<svg xmlns="http://www.w3.org/2000/svg" width="40" height="40" viewBox="0 0 40 40">
    <defs>
        <linearGradient id="prefix__a" x1="0%" x2="50%" y1="0%" y2="100%">
            <stop offset="0%" stop-color="#FCD117"/>
            <stop offset="100%" stop-color="#FF377C"/>
        </linearGradient>
    </defs>
    <g fill="none" fill-rule="evenodd">
        <rect width="40" height="40" fill="url(#prefix__a)" rx="20"/>
        <path fill="#FFF" d="M22.846 11.668h.136l.087.002.093.006.1.01.045.006.072.011.128.025c.328.072.634.203.905.383l.102.072.03.023.093.072.072.062c.196.173.363.371.497.587.146.233.257.49.326.765l.031.14c.03.15.047.303.05.457v11.36c0 1.482-1.199 2.684-2.678 2.684-1.479 0-2.678-1.202-2.678-2.685v-1.274l-1.506 2.615c-.74 1.285-2.378 1.725-3.658.983-1.281-.741-1.72-2.384-.98-3.668l6.467-11.232c.081-.15.176-.29.282-.42l.102-.118.048-.051.107-.104.07-.063.052-.044.073-.058.058-.042.066-.047c.384-.26.838-.423 1.329-.453l.079-.004zm6.976-.001c1.479 0 2.678 1.202 2.678 2.685v11.296c0 1.483-1.199 2.685-2.678 2.685-1.48 0-2.678-1.202-2.678-2.685V14.352c0-1.483 1.199-2.685 2.678-2.685zm-13.467.36c1.281.741 1.72 2.383.98 3.668l-6.504 11.294c-.74 1.285-2.377 1.725-3.658.983-1.281-.741-1.72-2.384-.98-3.668l6.504-11.294c.74-1.285 2.377-1.725 3.658-.983z"/>
    </g>
</svg>
