<svg xmlns="http://www.w3.org/2000/svg" width="132" height="56" viewBox="0 0 132 56">
    <defs>
        <filter id="prefix__a" width="155.6%" height="155.6%" x="-27.8%" y="-27.8%" filterUnits="objectBoundingBox">
            <feOffset dx="1" dy="1" in="SourceAlpha" result="shadowOffsetOuter1"/>
            <feGaussianBlur in="shadowOffsetOuter1" result="shadowBlurOuter1" stdDeviation=".5"/>
            <feColorMatrix in="shadowBlurOuter1" result="shadowMatrixOuter1" values="0 0 0 0 0 0 0 0 0 0 0 0 0 0 0 0 0 0 0.33 0"/>
            <feMerge>
                <feMergeNode in="shadowMatrixOuter1"/>
                <feMergeNode in="SourceGraphic"/>
            </feMerge>
        </filter>
    </defs>
    <g fill="none" fill-rule="evenodd">
        <path stroke="#03A87C" stroke-linecap="round" stroke-width="24" d="M.72 26.312c7.391 20.208 8.906-.055 19.852-.614 6.49-.332 10.475 9.398 16.972 9.443 6.886.047 11.566-9.007 18.45-9.2 14.148-.4.409 22.457 32.811-.314" transform="translate(12 4)"/>
        <g fill="#000" stroke="#FFF" filter="url(#prefix__a)" transform="translate(12 4) translate(98)">
            <path d="M17.132 2.282L15.718.868c-.293-.293-.677-.44-1.061-.44-.384 0-.768.147-1.06.44L2.281 12.182c-.292.293-.439.677-.439 1.06 0 .222.049.443.146.647l-.414.414c-.293.293-.439.677-.439 1.061 0 .384.146.768.44 1.06.292.294.676.44 1.06.44s.768-.146 1.06-.44l.415-.413c.204.097.425.146.646.146.384 0 .768-.147 1.061-.44L17.132 4.405c.293-.293.44-.677.44-1.06 0-.385-.147-.769-.44-1.062z"/>
        </g>
    </g>
</svg>
