<svg xmlns="http://www.w3.org/2000/svg" width="16" height="16" viewBox="0 0 16 16">
    <g fill="none" fill-rule="evenodd">
        <g fill="#9CA5B4">
            <path d="M446.004 13c.553 0 1 .448 1 1v7.168l1.948-1.946c.39-.39 1.023-.39 1.414 0 .39.39.39 1.024 0 1.414L446.002 25l-4.364-4.364c-.39-.39-.39-1.024 0-1.414.39-.39 1.024-.39 1.414 0l1.952 1.951V14c0-.552.448-1 1-1zM453 9c.552 0 1 .448 1 1s-.448 1-1 1h-14c-.552 0-1-.448-1-1s.448-1 1-1h14z" transform="translate(-438 -9)"/>
        </g>
    </g>
</svg>
