<svg xmlns="http://www.w3.org/2000/svg" width="100" height="60" viewBox="0 0 100 60">
    <g fill="none">
        <rect width="100" height="60" fill="#0072CE" rx="4"/>
        <path fill="#FFF" d="M84.4 34.67h-3.53c-.35 0-.58 0-.78.14-.2.14-.3.34-.3.6 0 .3.18.5.43.6.2.07.42.1.75.1l1.05.02c1.06.02 1.77.2 2.2.65.08.06.12.13.18.2V34.67zm0 5.33c-.46.68-1.38 1.03-2.62 1.03h-3.75V39.3h3.73c.37 0 .63-.05.8-.2.12-.13.22-.3.22-.53 0-.24-.1-.42-.24-.53-.14-.13-.35-.18-.68-.18-1.82-.07-4.1.05-4.1-2.5 0-1.18.75-2.42 2.8-2.42h3.85v-1.6h-3.58c-1.08 0-1.87.25-2.43.66v-.66h-5.3c-.86 0-1.86.2-2.33.66v-.66H61.3V32c-.76-.55-2.03-.66-2.62-.66h-6.25V32c-.6-.58-1.92-.66-2.73-.66h-7l-1.6 1.72-1.5-1.72H29.15v11.28H39.4l1.66-1.75 1.55 1.75h6.33v-2.65h.62c.84 0 1.83-.02 2.7-.4v3.05h5.2v-2.94h.27c.32 0 .35 0 .35.33v2.62H73.9c1 0 2.06-.26 2.64-.72v.72h5.02c1.05 0 2.07-.15 2.85-.52V40h-.01zm-7.73-3.23c.38.4.58.88.58 1.7 0 1.75-1.1 2.56-3.04 2.56h-3.77V39.3h3.76c.36 0 .62-.05.8-.2.12-.13.2-.3.2-.53 0-.24-.1-.42-.22-.53-.15-.13-.35-.18-.7-.18-1.8-.07-4.08.05-4.08-2.5 0-1.18.74-2.42 2.78-2.42h3.88v1.73H73.3c-.35 0-.58 0-.77.14-.2.14-.3.34-.3.6 0 .3.2.5.43.6.2.07.43.1.76.1l1.04.02c1.05.02 1.78.2 2.2.65l.01-.01zm-17.5-.5c-.25.15-.57.16-.94.16h-2.36v-1.8h2.4c.33 0 .68 0 .9.13.26.13.4.38.4.73 0 .34-.14.62-.4.77v.01zm1.18 1c.43.16.8.45.95.68.28.4.32.77.32 1.48v1.6h-1.94v-1c0-.5.04-1.22-.32-1.6-.28-.28-.7-.35-1.42-.35h-2.07v2.95h-1.95v-8.1h4.48c.98 0 1.7.06 2.33.4.6.36 1 .87 1 1.8 0 1.28-.87 1.94-1.38 2.14zm2.45-4.33h6.47v1.68h-4.54v1.47h4.43v1.64h-4.43v1.6h4.54v1.7H62.8v-8.1.01zm-13.08 3.74h-2.5v-2.06h2.53c.7 0 1.18.28 1.18 1 0 .7-.46 1.06-1.2 1.06h-.01zM45.3 40.3l-3-3.3 3-3.2v6.5zm-7.7-.95h-4.77v-1.6h4.26v-1.66h-4.27V34.6h4.86l2.12 2.35-2.22 2.38.02.02zM53 35.6c0 2.26-1.67 2.72-3.36 2.72h-2.42v2.7h-3.77l-2.4-2.67-2.47 2.68H30.9v-8.1h7.8l2.4 2.67 2.45-2.66h6.2c1.53 0 3.26.43 3.26 2.67L53 35.6zM21.65 23.62l-1.32-3.22L19 23.62h2.65zm29.23-1.28c-.26.16-.58.17-.95.17h-2.36v-1.8h2.4c.33 0 .68.03.9.16.26.1.4.37.4.7 0 .37-.13.65-.4.78l.01-.01zm16.8 1.28l-1.34-3.22L65 23.62h2.68zm-31.3 3.5h-2v-6.34l-2.82 6.33h-1.7l-2.82-6.33v6.34H23.1l-.75-1.8h-4.03l-.75 1.8h-2.1l3.46-8.07h2.88l3.3 7.65v-7.65h3.17l2.54 5.48 2.34-5.47h3.23v8.08l-.01-.02zm7.9 0h-6.47V19h6.5v1.7h-4.55v1.45h4.43v1.66h-4.43v1.6h4.54v1.68l-.02.03zm9.14-5.9c0 1.27-.86 1.94-1.37 2.14.43.16.8.45.96.68.3.4.33.76.33 1.48v1.6h-1.95v-1.03c0-.5.04-1.2-.32-1.58-.28-.3-.7-.35-1.4-.35h-2.1v2.94h-1.93v-8.07h4.46c.98 0 1.7.02 2.34.38.6.38.98.9.98 1.8v.01zm3.1 5.9h-1.98V19h1.98v8.12zm22.95 0h-2.75l-3.67-6.08v6.07H69.1l-.75-1.8h-4.03l-.73 1.8H61.3c-.94 0-2.14-.2-2.8-.88-.7-.7-1.05-1.62-1.05-3.1 0-1.2.2-2.28 1.05-3.15.62-.64 1.6-.94 2.94-.94h1.88v1.73H61.5c-.7 0-1.1.1-1.5.48-.32.34-.55.98-.55 1.83 0 .87.17 1.5.53 1.9.3.32.84.42 1.35.42h.88l2.74-6.37h2.9l3.28 7.65v-7.65h2.96l3.4 5.63v-5.63h2v8.08l-.02.01zM15.44 28.7h3.3l.76-1.8h1.67l.74 1.8h6.53v-1.37L29 28.7h3.4l.58-1.4v1.4h16.2v-2.95h.3c.22 0 .28.03.28.4v2.55h8.38v-.68c.67.36 1.73.68 3.1.68h3.53l.76-1.8h1.67l.74 1.8h6.8V27l1.02 1.7h5.44V17.42h-5.4v1.34l-.74-1.34h-5.53v1.34l-.7-1.34h-7.46c-1.25 0-2.34.18-3.23.66v-.66H53v.66c-.58-.5-1.35-.66-2.2-.66H31.98l-1.26 2.92-1.3-2.92H23.5v1.34l-.66-1.34H17.8l-2.36 5.37v5.91z"/>
    </g>
</svg>
