<svg xmlns="http://www.w3.org/2000/svg" width="100" height="60" viewBox="0 0 100 60">
    <g fill="none">
        <rect width="100" height="60" fill="#0069AA" rx="4"/>
        <path fill="#FFF" d="M19.55 35.98c0-1.2-.63-1.12-1.24-1.14v-.35c.54.02 1.07.02 1.6.02.56 0 1.33-.03 2.32-.03 3.47 0 5.37 2.3 5.37 4.7 0 1.32-.8 4.66-5.54 4.66-.7 0-1.32-.03-1.95-.03-.6 0-1.18.02-1.8.03v-.35c.82-.07 1.2-.1 1.25-1v-6.52l-.01.01zm1.3 6.3c0 1.03.75 1.15 1.4 1.15 2.9 0 3.86-2.2 3.86-4.2 0-2.5-1.6-4.3-4.2-4.3-.54 0-.8.03-1.04.05v7.3h-.02zM28.06 43.5h.25c.4 0 .66 0 .66-.43v-3.64c0-.6-.2-.67-.7-.94v-.22c.63-.2 1.38-.44 1.43-.48.1-.06.17-.07.24-.07.06 0 .1.08.1.2v5.14c0 .44.3.44.66.44h.23v.36c-.46 0-.93-.03-1.4-.03-.5 0-.98.02-1.47.03v-.36zm1.43-7.84c-.36 0-.66-.32-.66-.67 0-.35.32-.65.65-.65.34 0 .65.28.65.64 0 .35-.3.66-.66.66l.02.02zM32.2 39.5c0-.48-.14-.62-.77-.87v-.26c.57-.2 1.12-.36 1.77-.64.04 0 .08.02.08.13v.87c.76-.55 1.42-1 2.32-1 1.14 0 1.54.83 1.54 1.88v3.47c0 .44.3.44.67.44h.26v.36c-.48 0-.94-.03-1.43-.03-.48 0-.96.02-1.45.03v-.35h.25c.37 0 .64 0 .64-.43v-3.5c0-.77-.47-1.15-1.23-1.15-.43 0-1.12.35-1.56.65v3.97c0 .44.3.44.67.44h.24v.36c-.48 0-.95-.03-1.43-.03-.5 0-.97.02-1.45.03v-.35h.24c.38 0 .64 0 .64-.43V39.5M39.08 40.16c-.03.12-.03.32 0 .78.08 1.27.9 2.32 1.97 2.32.74 0 1.3-.4 1.8-.9l.2.2c-.62.8-1.38 1.5-2.48 1.5-2.14 0-2.57-2.06-2.57-2.92 0-2.63 1.77-3.4 2.7-3.4 1.1 0 2.27.67 2.28 2.1v.24l-.13.08h-3.77zm2.37-.43c.34 0 .38-.18.38-.34 0-.7-.42-1.24-1.17-1.24-.82 0-1.38.6-1.54 1.57h2.33v.01zM43.3 43.5h.35c.38 0 .65 0 .65-.43V39.3c0-.42-.5-.5-.7-.6v-.2c.98-.42 1.5-.77 1.64-.77.08 0 .12.04.12.17v1.2h.02c.34-.5.9-1.37 1.72-1.37.34 0 .77.23.77.7 0 .37-.26.7-.63.7-.42 0-.42-.33-.9-.33-.22 0-.97.3-.97 1.12v3.15c0 .44.27.44.64.44h.76v.36c-.73 0-1.3-.03-1.87-.03-.56 0-1.13.02-1.6.03v-.35M48.46 42c.17.88.7 1.63 1.7 1.63.78 0 1.07-.48 1.07-.95 0-1.58-2.92-1.07-2.92-3.23 0-.76.6-1.72 2.1-1.72.42 0 1 .12 1.52.4l.1 1.36h-.32c-.13-.86-.6-1.34-1.46-1.34-.54 0-1.05.3-1.05.88 0 1.57 3.1 1.1 3.1 3.2 0 .88-.7 1.82-2.3 1.82-.54 0-1.17-.2-1.64-.45l-.15-1.54.26-.06M64.43 36.92h-.34c-.26-1.57-1.38-2.2-2.88-2.2-1.55 0-3.8 1.03-3.8 4.26 0 2.7 1.95 4.65 4 4.65 1.34 0 2.44-.9 2.7-2.32l.32.1-.3 1.95c-.57.35-2.1.7-2.98.7-3.13 0-5.12-2-5.12-5.03 0-2.76 2.45-4.73 5.1-4.73 1.07 0 2.12.34 3.15.7l.13 1.92M64.9 43.5h.26c.38 0 .65 0 .65-.43V35.6c0-.88-.2-.9-.7-1.05v-.22c.53-.17 1.1-.4 1.38-.57.15-.08.25-.15.3-.15.08 0 .1.1.1.2v9.27c0 .44.3.44.67.44h.23v.36c-.45 0-.92-.03-1.4-.03-.5 0-.97.02-1.47.03v-.35M73.53 43.12c0 .24.14.26.37.26.16 0 .36-.02.54-.02v.3c-.58.04-1.68.32-1.93.4l-.06-.04v-1.08c-.8.65-1.42 1.12-2.38 1.12-.72 0-1.47-.47-1.47-1.6v-3.43c0-.35-.07-.7-.82-.75v-.26c.5 0 1.56-.1 1.73-.1.16 0 .16.1.16.4v3.46c0 .4 0 1.56 1.17 1.56.45 0 1.06-.35 1.62-.82v-3.6c0-.28-.64-.43-1.12-.56v-.24c1.2-.08 1.95-.2 2.1-.2.1 0 .1.1.1.25v4.95M76.2 38.7c.53-.46 1.26-.97 2-.97 1.55 0 2.5 1.35 2.5 2.82 0 1.75-1.3 3.5-3.22 3.5-1 0-1.5-.3-1.86-.46l-.4.3-.28-.15c.12-.8.18-1.57.18-2.38V35.6c0-.88-.2-.9-.7-1.05v-.22c.53-.17 1.1-.4 1.37-.57.14-.08.25-.15.3-.15.07 0 .1.1.1.2v4.9l.01-.01zm0 3.64c0 .5.48 1.37 1.38 1.37 1.43 0 2.04-1.4 2.04-2.6 0-1.44-1.1-2.65-2.15-2.65-.5 0-.9.33-1.27.63v3.26-.01zM18.3 51.66h.1c.26 0 .54-.03.54-.4V47.4c0-.38-.28-.4-.54-.4h-.1v-.23c.28 0 .72.02 1.08.02.37 0 .8-.03 1.15-.03v.2h-.1c-.27 0-.55.04-.55.42v3.83c0 .38.28.4.54.4h.1v.23c-.34 0-.78-.02-1.15-.02-.36 0-.8.02-1.07.02v-.22"/>
        <path fill="#FFF" d="M20.53 51.92c-.36 0-.8-.03-1.16-.03-.35 0-.78.02-1.07.02h-.03v-.3h.13c.27 0 .5 0 .5-.37v-3.83c0-.35-.23-.38-.5-.38h-.13v-.3h.03c.3 0 .72.04 1.08.04.36 0 .8-.03 1.15-.03h.03v.3h-.14c-.26 0-.5.02-.5.37v3.83c0 .36.24.38.5.38h.14v.3h-.03zm-.03-.07v-.15h-.08c-.26 0-.57-.05-.57-.45v-3.83c0-.4.3-.45.57-.45h.08v-.15c-.34 0-.77.03-1.12.03-.35 0-.77-.03-1.05-.03v.15h.07c.26 0 .57.05.57.45v3.83c0 .4-.3.45-.57.45h-.07v.15c.28 0 .7-.03 1.04-.03.36 0 .78.03 1.13.03zM25.54 50.44h.02v-2.75c0-.6-.42-.7-.64-.7h-.16v-.2c.35 0 .68.02 1.02.02.3 0 .6-.03.9-.03v.2h-.1c-.3 0-.66.06-.66.93v3.33c0 .25 0 .5.05.73h-.28l-3.77-4.2v3c0 .65.12.86.68.86h.14v.22c-.32 0-.63-.02-.94-.02-.33 0-.67.02-1 .02v-.22h.1c.5 0 .66-.34.66-.92v-3.08c0-.4-.33-.65-.66-.65h-.1v-.2c.28 0 .57.02.84.02.22 0 .43-.03.65-.03l3.24 3.64"/>
        <path fill="#FFF" d="M25.97 52.02h-.3l-3.7-4.14v2.93c0 .65.1.83.64.83h.17v.3h-.03c-.32 0-.63-.04-.94-.04-.33 0-.67.02-1 .02h-.03v-.3h.14c.5 0 .63-.3.63-.88v-3.08c0-.4-.32-.62-.63-.62h-.13v-.3h.03c.28 0 .57.04.84.04.22 0 .43-.03.68 0l3.2 3.6v-2.7c0-.57-.4-.64-.6-.64h-.2v-.3h.04c.35 0 .68.04 1.02.04.3 0 .6-.03.9-.03h.03v.3h-.13c-.3 0-.6.02-.62.88v3.33c0 .25 0 .5.05.73V52H26l-.03.02zm-.28-.06h.23c-.03-.22-.04-.46-.04-.7v-3.33c0-.87.36-.96.67-.96h.08v-.15c-.3 0-.58.03-.87.03-.33 0-.66-.03-1-.03v.15h.14c.23 0 .67.1.67.72l-.02 2.75v.02l-.04.02-3.25-3.68c-.22 0-.44.03-.66.03-.27 0-.54-.03-.8-.03v.15h.06c.34 0 .7.27.7.7v3.07c0 .58-.17.96-.7.96h-.06v.15c.3 0 .64-.03.96-.03.3 0 .6.03.9.03v-.15h-.1c-.56 0-.7-.25-.7-.9V47.7l3.8 4.24.03.02zM27.78 47.15c-.55 0-.57.13-.68.67h-.22c.03-.2.06-.4.1-.62 0-.2.03-.4.03-.62h.18c.06.2.25.2.44.2h3.77c.2 0 .37 0 .4-.22l.16.03c-.03.2-.06.38-.08.58v.6l-.23.07c-.02-.27-.05-.7-.54-.7h-1.2v3.9c0 .55.26.6.6.6h.15v.23c-.28 0-.8-.02-1.2-.02-.42 0-.94.02-1.22.02v-.22h.14c.4 0 .6-.03.6-.6v-3.9h-1.2"/>
        <path fill="#FFF" d="M30.65 51.92c-.28 0-.8-.03-1.2-.03-.42 0-.93.02-1.22.02h-.03v-.3h.17c.4 0 .56 0 .57-.57v-3.87h-1.16v-.06H29v3.93c0 .6-.23.65-.63.65h-.1v.15c.28 0 .77-.03 1.2-.03.37 0 .86.03 1.15.03v-.15h-.1c-.36 0-.64-.1-.64-.66v-3.92h1.23c.5 0 .56.42.58.7l.15-.07c0-.2 0-.38.02-.57.02-.2.05-.38.07-.56l-.1-.02c-.04.2-.25.22-.43.22h-3.8c-.2 0-.37 0-.44-.2h-.12c0 .2 0 .38-.04.58-.02.2-.06.4-.08.6h.15c.1-.52.16-.7.7-.68v.06c-.53 0-.52.1-.64.64v.03h-.3l.02-.04c.03-.2.06-.4.08-.6.03-.2.05-.42.05-.62v-.04h.23l.02.03c.04.18.18.18.37.18h3.8c.2 0 .34 0 .35-.2v-.03h.04l.2.04v.03c-.04.2-.07.4-.1.58v.6l-.02.02-.26.1v-.04c-.02-.28-.05-.68-.5-.68h-1.18v3.86c0 .55.23.6.57.6h.2v.28h-.05M32.2 51.66h.1c.26 0 .54-.03.54-.4V47.4c0-.38-.28-.4-.54-.4h-.1v-.23c.44 0 1.2.02 1.8.02.63 0 1.38-.03 1.88-.03 0 .3 0 .78.02 1.1l-.22.06c-.04-.47-.13-.85-.9-.85h-1v1.92h.86c.44 0 .53-.25.58-.64h.22c-.02.28-.03.57-.03.85s.02.56.04.84l-.22.04c-.05-.43-.07-.7-.57-.7h-.88v1.7c0 .46.42.46.9.46.87 0 1.25-.06 1.47-.9l.2.06c-.1.4-.17.78-.24 1.16-.47 0-1.3-.02-1.96-.02-.66 0-1.53.02-1.95.02v-.22"/>
        <path fill="#FFF" d="M36.1 51.92c-.47 0-1.3-.04-1.96-.04-.66 0-1.53.04-1.95.04h-.04v-.3h.14c.26 0 .5 0 .5-.37v-3.83c0-.35-.24-.38-.5-.38h-.14v-.3h.03c.44 0 1.2.04 1.8.04.62 0 1.38-.03 1.88-.03h.03V47.15c0 .26 0 .53.03.74v.03h-.03l-.25.07v-.04c-.05-.47-.1-.8-.86-.82h-1V49h.84c.42-.02.5-.23.55-.62v-.03h.27v.03c-.02.28-.03.57-.03.85s0 .56.03.83v.03h-.03l-.25.05v-.04c-.07-.43-.07-.68-.55-.68h-.85v1.67c0 .43.4.43.86.43.88 0 1.23-.05 1.45-.87l.02-.03h.03l.24.07-.02.03c-.1.4-.18.77-.25 1.16v.02h-.03l.04.02zm-.03-.07c.07-.37.15-.74.24-1.1l-.13-.04c-.22.83-.65.9-1.5.9-.47 0-.93 0-.93-.5v-1.75h.9c.52 0 .57.3.6.72l.16-.03c0-.27-.02-.54-.02-.8 0-.28 0-.55.02-.83h-.16c-.04.4-.16.66-.6.65h-.9V47.1h1.05c.75 0 .87.38.9.84l.16-.04c0-.2-.02-.47-.02-.72v-.34c-.5 0-1.23.03-1.83.03-.6 0-1.33-.03-1.77-.03v.15h.07c.26 0 .57.05.57.45v3.83c0 .4-.3.45-.57.45h-.07v.15c.42 0 1.26-.03 1.9-.03.65 0 1.47.03 1.94.03l-.01-.02zM37.33 47.56c0-.53-.3-.55-.52-.55h-.12v-.2c.24 0 .7.02 1.14.02.43 0 .78-.03 1.17-.03.9 0 1.73.23 1.73 1.27 0 .66-.44 1.06-1.02 1.3l1.26 1.86c.2.3.35.4.7.43v.22c-.23 0-.46-.02-.7-.02-.23 0-.47.02-.7.02-.55-.73-1.04-1.52-1.5-2.36h-.5v1.56c0 .56.27.58.6.58H39v.22c-.42 0-.84-.02-1.26-.02-.35 0-.7.02-1.06.02v-.22h.13c.3 0 .53-.12.53-.4v-3.7h-.01zm.94 1.7h.36c.73 0 1.12-.28 1.12-1.15 0-.63-.42-1.05-1.07-1.05-.22 0-.3.02-.4.03v2.17h-.01z"/>
        <path fill="#FFF" d="M41.67 51.92c-.24 0-.48-.03-.72-.03-.22 0-.45.02-.7 0-.57-.73-1.05-1.52-1.52-2.35h-.43v1.53c0 .55.23.55.57.55h.16v.3H39c-.42 0-.84-.04-1.26-.04-.35 0-.7.02-1.06.02h-.03v-.3h.16c.28 0 .5-.1.5-.35v-3.7c0-.53-.26-.53-.5-.53h-.15v-.3h.03c.24 0 .7.04 1.14.04.43 0 .78-.03 1.17-.03.9 0 1.76.26 1.76 1.32 0 .66-.43 1.07-1 1.3L41 51.2c.2.3.32.4.68.43h.02v.3h-.03v-.01zm-3.4-2.43h.5c.48.84.96 1.63 1.5 2.35.22 0 .46-.03.68-.03.24 0 .46.03.7.03v-.16c-.35-.05-.5-.15-.7-.46l-1.28-1.9h.03c.57-.24 1-.63 1-1.27 0-1-.8-1.25-1.7-1.25-.4 0-.74.03-1.18.03-.43 0-.87-.03-1.1-.03v.15h.1c.22 0 .54.04.54.6v3.7c0 .3-.27.43-.55.43h-.1v.15c.37 0 .7-.03 1.04-.03.4 0 .82.03 1.23.03v-.15h-.1c-.34 0-.63-.04-.63-.62v-1.6h.03l-.01.03zm0-.2h-.03v-2.25h.02c.1 0 .2-.03.42-.03.67 0 1.1.43 1.1 1.1 0 .87-.42 1.17-1.15 1.17h-.36v.01zm.36-.08c.72 0 1.08-.25 1.1-1.1 0-.64-.4-1.04-1.05-1.04-.2 0-.3.02-.38.03v2.12h.33v-.01zM46.63 50.44v-2.75c0-.6-.4-.7-.62-.7h-.15v-.2c.34 0 .68.02 1.02.02.3 0 .6-.03.9-.03v.2h-.1c-.32 0-.66.06-.66.93v3.33c0 .25.02.5.05.73h-.27L43 47.8v3c0 .65.14.86.7.86h.12v.22c-.3 0-.62-.02-.94-.02-.33 0-.66.02-1 .02v-.22h.1c.5 0 .67-.34.67-.92v-3.08c0-.4-.34-.65-.67-.65h-.1v-.2c.3 0 .57.02.85.02.22 0 .43-.03.65-.03l3.25 3.64"/>
        <path fill="#FFF" d="M47.05 52.02h-.3l-3.7-4.14v2.93c0 .65.1.83.65.83h.16v.3h-.04c-.3 0-.63-.05-.94-.05-.32 0-.66.04-1 .04h-.02v-.3H42c.47 0 .6-.3.62-.88v-3.08c0-.4-.32-.62-.64-.62h-.12v-.3h.03c.27 0 .55.04.83.04.2 0 .43-.03.67-.02l3.2 3.62v-2.7c0-.57-.38-.64-.6-.64h-.2v-.3h.05c.34 0 .68.04 1.02.04.3 0 .6-.03.9-.03h.03v.3h-.14c-.3 0-.6.02-.62.88v3.33c0 .25 0 .5.04.73h-.03l.01.02zm-.28-.06H47c-.02-.22-.02-.46-.02-.7v-3.33c0-.87.37-.95.68-.96h.08v-.15c-.3 0-.58.03-.87.03-.34 0-.66-.03-1-.03v.15h.14c.23 0 .67.1.67.72v2.75l-.02.02-.02.02-3.25-3.68c-.22 0-.43.03-.65.03-.27 0-.54-.03-.8-.03v.15h.05c.35 0 .7.26.7.7v3.07c0 .58-.17.96-.7.96h-.06v.15c.32 0 .64-.03.96-.03.3 0 .6.03.9.03v-.15h-.08c-.57 0-.72-.25-.72-.9V47.7l3.8 4.24-.02.02zM48.94 50.84c-.07.25-.16.44-.16.57 0 .23.3.26.55.26h.08v.22c-.28 0-.58-.02-.88-.02-.26 0-.52 0-.78.02v-.22h.04c.3 0 .53-.16.64-.47l1.16-3.36c.1-.27.23-.64.28-.9.23-.1.52-.23.66-.32.02 0 .04-.02.06-.02.02 0 .03 0 .05.03.02.05.04.12.06.18l1.34 3.83c.1.25.17.52.27.74.1.2.25.3.5.3h.03v.2h-2.1v-.2h.08c.18 0 .46-.03.46-.22 0-.1-.06-.3-.14-.52l-.3-.85H49.2l-.24.76-.02-.01zM50 47.6l-.7 2.07h1.38L50 47.6z"/>
        <path fill="#FFF" d="M52.83 51.92c-.33-.02-.65-.04-1-.04-.36 0-.72.02-1.1.04h-.03v-.3h.1c.18 0 .43-.03.43-.17 0-.08-.06-.28-.14-.5l-.3-.84h-1.6l-.23.75c-.07.25-.16.44-.16.56 0 .2.3.23.53.23h.1v.3h-.02c-.28-.03-.58-.05-.87-.05-.27 0-.53.02-.8.04h-.02v-.3h.08c.27 0 .5-.14.6-.44l1.17-3.35c.1-.27.23-.64.3-.93.22-.08.52-.22.66-.3.03-.02.05-.03.08-.03.02 0 .05 0 .08.04.02.07.04.14.06.2l1.35 3.82c.08.25.17.52.27.74.08.2.22.27.45.27h.06v.3h-.03l-.02-.04zm-2.07-.07c.36 0 .72-.03 1.07-.03.34 0 .65.02.97.03v-.15c-.26 0-.43-.1-.52-.3-.1-.24-.2-.5-.27-.76l-1.34-3.82c-.02-.06-.04-.13-.06-.18h-.07c-.14.1-.43.24-.65.3-.04.27-.17.64-.27.9l-1.15 3.36c-.12.32-.37.5-.67.5v.15c.24 0 .5-.03.75-.03.28 0 .57.02.85.03v-.15h-.05c-.24 0-.57-.03-.58-.3 0-.14.1-.32.16-.57h.04-.03l.25-.78h1.7l.3.87c.08.23.14.43.14.53-.02.23-.32.24-.5.25h-.04v.15h-.03zm-1.5-2.15l.7-2.13h.05v.03-.03h.03l.7 2.13h-1.48zm.1-.06h1.28L50 47.68l-.64 1.96zM53.16 47.15c-.55 0-.57.13-.68.67h-.22c.03-.2.06-.4.1-.62 0-.2.03-.4.03-.62h.16c.06.2.24.2.44.2h3.77c.2 0 .38 0 .4-.22l.17.03c-.03.2-.06.38-.08.58-.02.2-.02.4-.02.6l-.22.07c0-.27-.05-.7-.54-.7h-1.2v3.9c0 .55.26.6.6.6h.15v.23c-.28 0-.8-.02-1.2-.02-.43 0-.94.02-1.22.02v-.22h.15c.4 0 .6-.03.6-.6v-3.9h-1.2"/>
        <path fill="#FFF" d="M56.03 51.92c-.28 0-.8-.03-1.2-.03-.42 0-.94.02-1.22.02h-.02v-.3h.17c.4 0 .56 0 .57-.57v-3.87h-1.16v-.06h1.22v3.93c0 .6-.23.65-.63.65h-.1v.15c.28 0 .77-.03 1.2-.03.37 0 .86.03 1.15.03v-.15h-.1c-.36 0-.64-.1-.64-.66v-3.92h1.22c.5 0 .56.42.57.7l.16-.07c0-.2 0-.38.03-.57.02-.2.05-.38.07-.56l-.1-.02c-.04.2-.25.22-.43.22h-3.8c-.18 0-.36 0-.43-.2h-.12c0 .2-.02.38-.04.58-.02.2-.06.4-.1.6h.17c.1-.52.16-.7.7-.68v.06c-.54 0-.52.1-.64.64v.03h-.28v-.04c.03-.2.07-.4.1-.6.02-.2.04-.42.04-.62v-.04h.23v.03c.04.18.18.18.36.18h3.8c.2 0 .36 0 .37-.2v-.03h.04l.2.04v.03c-.03.2-.06.4-.08.58-.02.2-.02.4-.02.6l-.03.02-.25.1v-.04c-.02-.28-.05-.68-.52-.68h-1.16v3.86c0 .55.22.6.57.6h.16v.28h-.03M57.6 51.66h.1c.27 0 .55-.03.55-.4V47.4c0-.38-.28-.4-.54-.4h-.1v-.23c.3 0 .73.02 1.1.02.35 0 .8-.03 1.14-.03v.2h-.1c-.27 0-.55.04-.55.42v3.83c0 .38.27.4.53.4h.1v.23c-.34 0-.78-.02-1.15-.02-.36 0-.8.02-1.07.02v-.22"/>
        <path fill="#FFF" d="M59.84 51.92c-.36 0-.8-.04-1.16-.04-.36 0-.8.04-1.07.04h-.02v-.3h.13c.27 0 .52 0 .52-.37v-3.83c0-.35-.25-.38-.5-.38h-.14v-.3h.03c.3 0 .73.04 1.1.04.35 0 .8-.03 1.14-.03h.03v.3h-.14c-.26 0-.5.02-.5.37v3.83c0 .36.24.38.5.38h.14v.3h-.03l-.03-.01zm-.04-.07v-.15h-.07c-.26 0-.57-.05-.57-.45v-3.83c0-.4.3-.45.57-.45h.07v-.15c-.33 0-.76.03-1.1.03-.36 0-.78-.03-1.06-.03v.15h.07c.27 0 .58.05.58.45v3.83c0 .4-.3.45-.57.45h-.06v.15c.28 0 .7-.03 1.04-.03.36 0 .78.03 1.12.03h-.02zM62.75 46.68c1.55 0 2.8.96 2.8 2.52 0 1.68-1.2 2.8-2.76 2.8-1.56 0-2.75-1.06-2.75-2.63 0-1.52 1.18-2.7 2.7-2.7m.1 5c1.43 0 1.67-1.25 1.67-2.3 0-1.08-.57-2.37-1.8-2.37-1.26 0-1.64 1.14-1.64 2.12 0 1.3.6 2.55 1.78 2.55"/>
        <path fill="#FFF" d="M60.02 49.37c0-1.53 1.2-2.72 2.73-2.72v.06c-1.5 0-2.66 1.17-2.67 2.67 0 1.55 1.17 2.6 2.7 2.6 1.54 0 2.73-1.1 2.73-2.77 0-1.54-1.2-2.5-2.75-2.5v-.05c1.57 0 2.82.97 2.83 2.55 0 1.7-1.22 2.82-2.8 2.82-1.56 0-2.76-1.06-2.76-2.65m1.02-.25c0-1 .4-2.15 1.7-2.15 1.23 0 1.8 1.3 1.8 2.4 0 1.05-.24 2.33-1.68 2.33v-.06c1.4 0 1.63-1.22 1.63-2.28 0-1.06-.58-2.33-1.77-2.33-1.25 0-1.62 1.1-1.62 2.1 0 1.3.6 2.5 1.76 2.5v.07c-1.2 0-1.8-1.27-1.82-2.58M70.47 50.44v-2.75c0-.6-.4-.7-.63-.7h-.15v-.2c.33 0 .66.02 1 .02.3 0 .6-.03.9-.03v.2h-.1c-.3 0-.65.06-.65.93v3.33c0 .25 0 .5.04.73h-.3l-3.75-4.2v3c0 .65.13.86.7.86h.1v.22c-.3 0-.62-.02-.93-.02-.33 0-.66.02-1 .02v-.22h.1c.5 0 .67-.34.67-.92v-3.08c0-.4-.35-.65-.68-.65h-.1v-.2c.28 0 .57.02.85.02.22 0 .43-.03.65-.03l3.25 3.64"/>
        <path fill="#FFF" d="M70.9 52.02h-.3l-3.72-4.14v2.93c0 .65.1.83.66.83h.15v.3h-.04c-.3 0-.63-.04-.94-.04-.33 0-.66.02-1 .02h-.02v-.3h.13c.48 0 .62-.3.62-.88v-3.08c0-.4-.3-.62-.63-.62h-.12v-.3h.03c.28 0 .56.04.84.04.2 0 .42-.03.67 0l3.2 3.6v-2.7c0-.57-.38-.64-.6-.64h-.2v-.3h.05c.33 0 .67.04 1 .04.3 0 .6-.03.9-.03h.04v.3h-.14c-.3 0-.62.02-.62.88v3.33c0 .25 0 .5.04.73V52h-.03l.03.02zm-.3-.06h.25c-.03-.22-.04-.46-.04-.7v-3.33c0-.87.38-.95.7-.96h.07v-.15c-.3 0-.57.03-.86.03-.33 0-.65-.03-.98-.03v.15h.12c.23 0 .67.1.67.72v2.77l-.03.02-3.25-3.68c-.22 0-.43.03-.65.03-.27 0-.55-.03-.8-.03v.15h.05c.34 0 .7.26.7.7v3.07c0 .58-.17.96-.7.96h-.06v.15c.3 0 .64-.03.96-.03.3 0 .6.03.9.03v-.15h-.08c-.58 0-.72-.25-.72-.9V47.7l3.8 4.24-.05.02zM72.78 50.84c-.07.25-.16.44-.16.57 0 .23.3.26.55.26h.08v.22c-.3 0-.6-.02-.9-.02-.25 0-.5 0-.77.02v-.22h.04c.28 0 .53-.16.63-.47l1.17-3.36c.1-.27.23-.64.27-.9.23-.1.52-.23.66-.32.02 0 .03-.02.06-.02.02 0 .03 0 .05.03.02.05.04.12.06.18l1.35 3.83c.08.25.17.52.27.74.08.2.24.3.48.3h.04v.2h-2.1v-.2h.08c.17 0 .45-.03.45-.22 0-.1-.06-.3-.14-.52l-.3-.85H73l-.22.76v-.01zm1.07-3.24h-.02l-.68 2.07h1.37l-.67-2.07z"/>
        <path fill="#FFF" d="M76.67 51.92c-.33-.02-.66-.03-1-.03-.36 0-.73 0-1.1.02h-.03v-.3h.1c.18 0 .43-.03.43-.17 0-.08-.06-.28-.15-.5l-.27-.84h-1.6l-.24.75c-.06.25-.15.44-.15.56 0 .2.27.23.52.23h.1v.3h-.03c-.3-.03-.6-.04-.88-.04-.26 0-.52 0-.78.02h-.04v-.3h.08c.27 0 .5-.14.6-.44l1.17-3.35c.1-.27.22-.64.28-.93.23-.08.52-.22.67-.3.02-.02.04-.03.07-.03 0 0 .05 0 .08.05.02.05.04.12.06.18l1.35 3.82c.1.25.18.52.28.74.08.2.2.27.45.27h.07v.3h-.03l-.01-.01zm-2.07-.07c.36 0 .72-.03 1.06-.03.34 0 .66.02.98.03v-.15c-.26 0-.43-.1-.52-.3-.1-.24-.2-.5-.27-.76l-1.35-3.82c-.02-.06-.04-.13-.06-.18h-.07c-.14.1-.43.24-.65.3-.04.27-.17.64-.27.9l-1.17 3.36c-.1.32-.36.5-.66.5v.15c.24 0 .5-.03.74-.03.3 0 .57.02.86.03v-.15h-.05c-.24 0-.57-.03-.58-.3 0-.14.08-.32.15-.57h.03-.03l.24-.78h1.7l.3.87c.07.23.13.43.13.53 0 .23-.32.24-.48.25h-.05v.15h.02zm-1.5-2.15l.7-2.13h.05v.03-.03h.02l.7 2.13H73.1zm.1-.06h1.27l-.63-1.96-.64 1.96zM78.5 51.17c0 .3.22.38.45.4.3.03.63.03.96 0 .32-.04.58-.22.7-.4.13-.16.2-.37.24-.53h.2c-.07.42-.17.83-.26 1.24-.64 0-1.28-.02-1.93-.02-.64 0-1.28.02-1.92.02v-.22h.1c.26 0 .55-.03.55-.48v-3.76c0-.38-.3-.4-.55-.4h-.1v-.23c.38 0 .76.02 1.15.02.37 0 .74-.03 1.1-.03v.2h-.17c-.27 0-.5 0-.5.4v3.77"/>
        <path fill="#FFF" d="M80.78 51.92c-.64 0-1.28-.03-1.93-.03-.64 0-1.28.02-1.92.02h-.03v-.3h.13c.26 0 .5 0 .52-.44v-3.76c0-.35-.26-.38-.52-.38h-.13v-.3h.03c.38 0 .76.04 1.15.04.37 0 .74-.03 1.1-.03h.04v.3h-.2c-.3 0-.47-.02-.48.35v3.77c0 .27.18.34.4.38h.42c.17 0 .36 0 .55-.02.3-.03.56-.2.7-.38.1-.16.17-.36.2-.5l.02-.04h.27l-.02.05c-.08.42-.18.82-.27 1.24v.02h-.02l-.01.01zm-.02-.07c.08-.4.18-.78.25-1.18h-.14c-.04.16-.1.36-.22.52-.14.18-.4.36-.72.4-.2 0-.38.02-.56.02h-.4c-.25-.04-.48-.14-.48-.45V47.4c0-.4.26-.43.53-.43h.16v-.15c-.36 0-.72.03-1.08.03-.38 0-.75-.03-1.12-.03v.15h.07c.26 0 .58.05.58.45v3.76c0 .47-.3.52-.57.52h-.07v.15c.63 0 1.26-.03 1.9-.03.63 0 1.26.03 1.9.03h-.03zM80.96 46.58c.44 0 .77.34.77.77s-.33.77-.77.77-.77-.34-.77-.77.32-.77.76-.77h.01zm0 1.4c.35 0 .6-.3.6-.63s-.25-.63-.6-.63c-.34 0-.6.3-.6.63s.26.62.6.62v.01zm-.38-.22v-.04c.1-.02.1 0 .1-.07v-.57c0-.08 0-.1-.1-.1v-.04h.4c.13 0 .26.06.26.2 0 .12-.08.2-.18.23l.12.18c.06.08.13.15.17.18v.03h-.15c-.07 0-.13-.16-.27-.36h-.1v.26c0 .05.03.04.12.06v.04h-.37zm.26-.4h.1c.1 0 .14-.08.14-.2 0-.13-.07-.17-.15-.17h-.1v.35l.01.02z"/>
        <path fill="#0069AA" d="M35.35 21c0-6.82 5.54-12.36 12.37-12.36 6.83 0 12.37 5.54 12.37 12.37 0 6.84-5.55 12.37-12.38 12.37-6.83 0-12.37-5.53-12.37-12.36"/>
        <path fill="#FFF" d="M55.2 20.76c0-3.16-1.98-5.87-4.77-6.93V27.7c2.8-1.07 4.77-3.77 4.77-6.94zM45.1 27.7V13.83c-2.78 1.07-4.76 3.77-4.77 6.93 0 3.17 2 5.87 4.77 6.94zm2.67-18.66c-6.48 0-11.73 5.25-11.73 11.72 0 6.48 5.25 11.73 11.73 11.73 6.47 0 11.72-5.26 11.72-11.74 0-6.47-5.26-11.72-11.73-11.72l.01.01zm-.03 24.55c-7.1.03-12.92-5.7-12.92-12.7 0-7.64 5.83-12.93 12.92-12.92h3.32c7 0 13.4 5.28 13.4 12.92 0 6.98-6.4 12.7-13.4 12.7h-3.32z"/>
    </g>
</svg>
