<svg xmlns="http://www.w3.org/2000/svg" width="100" height="60" viewBox="0 0 100 60">
    <g fill="none">
        <rect width="99" height="59" x=".5" y=".5" fill="#FFF" stroke="#E6772F" rx="4"/>
        <path fill="#E6772F" d="M24.12 60H96c2.2 0 4-1.8 4-4V33.7S73.2 51.87 24.12 60z"/>
        <path fill="#1A1919" d="M18.3 29.82c-.76.64-1.72.92-3.25.92h-.63v-7.66h.63c1.53 0 2.45.27 3.24.94.8.7 1.3 1.77 1.3 2.88 0 1.12-.5 2.23-1.3 2.92h.01zm-2.77-8.7h-3.47v11.6h3.45c1.84 0 3.17-.43 4.33-1.35 1.38-1.1 2.2-2.74 2.2-4.45 0-3.42-2.68-5.8-6.5-5.8h-.01zM23.1 21.12L25.47 21.12 25.47 32.72 23.1 32.72zM31.24 25.56c-1.42-.5-1.83-.83-1.83-1.45 0-.72.75-1.27 1.77-1.27.7 0 1.3.27 1.9.93l1.24-1.54c-1-.86-2.22-1.3-3.54-1.3-2.15 0-3.78 1.44-3.78 3.32 0 1.6.76 2.42 2.97 3.2.93.3 1.4.5 1.64.65.46.28.7.7.7 1.18 0 .94-.78 1.64-1.84 1.64-1.12 0-2.03-.54-2.57-1.55l-1.54 1.4c1.1 1.54 2.4 2.22 4.2 2.22 2.44 0 4.17-1.58 4.17-3.82 0-1.84-.8-2.68-3.5-3.62M35.47 26.92c0 3.4 2.8 6.04 6.4 6.04 1 0 1.88-.2 2.95-.67v-2.67c-.95.9-1.78 1.27-2.85 1.27-2.38 0-4.06-1.65-4.06-4 0-2.22 1.75-3.98 3.97-3.98 1.12 0 1.97.38 2.95 1.3v-2.65c-1.03-.5-1.88-.7-2.9-.7-3.58 0-6.45 2.68-6.45 6.05M63.95 28.9L60.72 21.12 58.15 21.12 63.28 33 64.54 33 69.78 21.12 67.22 21.12 63.95 28.9M70.85 32.7L77.55 32.7 77.55 30.74 73.2 30.74 73.2 27.62 77.38 27.62 77.38 25.65 73.2 25.65 73.2 23.08 77.54 23.08 77.54 21.12 70.84 21.12 70.84 32.72M82.15 26.45h-.68v-3.5h.72c1.47 0 2.26.6 2.26 1.72 0 1.16-.8 1.78-2.3 1.78zm4.74-1.9c0-2.18-1.57-3.43-4.3-3.43h-3.5v11.6h2.37v-4.67h.3l3.27 4.66h2.9l-3.8-4.88c1.77-.34 2.75-1.5 2.75-3.28h.01z"/>
        <path fill="#E6772F" d="M58.48 26.94c0 3.34-2.83 6.04-6.3 6.04-3.5 0-6.32-2.7-6.32-6.04 0-3.33 2.82-6.03 6.3-6.03 3.5 0 6.32 2.7 6.32 6.04"/>
    </g>
</svg>
