<svg xmlns="http://www.w3.org/2000/svg" width="100" height="60" viewBox="0 0 100 60">
    <g fill="none">
        <rect width="100" height="60" fill="#12438C" rx="4"/>
        <path fill="#FFF" d="M63.5 30.8h3.93c.02 0 .04.02.06.02h.14c.02 0 .04 0 .06.02H67.8l.03.02c.02 0 .05 0 .07.02.02 0 .04 0 .06.02.02 0 .04 0 .07.02.02 0 .04 0 .06.02 0 0 .03.02.05.03.03 0 .05.02.07.03.02 0 .04.02.06.04.02 0 .05.02.07.03.02.02.04.03.06.05.03 0 .06.03.08.04.02.02.04.04.06.05.02.03.04.05.07.07.03.02.05.04.07.06.02.02.04.05.06.07.03.03.05.05.07.08.02.03.04.06.06.1.03.02.05.05.07.1.02.03.04.07.06.1 0 .06.04.1.06.16l.06.22c.03.13.05.27.05.4 0 .15-.02.3-.05.42-.02.08-.04.15-.06.22-.02.05-.05.1-.07.15-.03.04-.05.08-.07.12-.02.04-.04.07-.07.1-.02.04-.04.06-.06.1-.02.02-.04.05-.07.07-.02.02-.04.05-.06.07-.02.03-.04.05-.06.07l-.06.06c-.02.02-.04.03-.06.05-.02.02-.05.03-.07.05 0 0-.03.02-.05.04-.02 0-.05.02-.07.04-.02.02-.04.03-.06.04-.02 0-.04.02-.07.03-.02 0-.04.02-.06.03-.03 0-.05.02-.07.02-.03 0-.05.02-.07.02-.02 0-.04.02-.06.02-.02 0-.05 0-.07.02h-.02-.03c-.02.02-.04.02-.07.02h-.06c-.02 0-.04.02-.06.02h-.07-4.02V30.8zm5.17-3.97c.03.12.04.24.04.37s0 .26-.03.38l-.06.22c0 .05-.04.1-.06.14l-.06.12-.07.1c0 .03-.03.05-.05.08-.02.03-.04.05-.07.07-.02.04-.04.06-.06.08-.02.02-.04.04-.07.05l-.06.06c-.03 0-.05.02-.07.03-.03.02-.05.03-.07.04-.02.02-.04.03-.06.04-.02.02-.05.03-.07.05-.02 0-.04.02-.06.03-.02 0-.04 0-.07.02-.02 0-.04.02-.06.03-.02 0-.04 0-.06.02-.03 0-.05 0-.07.02h-.05c-.02.02-.05.02-.07.02h-.13c-.02 0-.04.02-.06.02h-3.7V25.6H67.27c.03.02.05.02.07.02h.05c.03 0 .06.02.08.02.02 0 .04 0 .06.02.03 0 .05 0 .08.02.02 0 .04 0 .06.02.02 0 .04 0 .06.02.03 0 .05.02.07.03.02 0 .04.02.06.03.02 0 .05.02.07.03.02 0 .04.02.06.03.02 0 .04.03.07.04.02.02.04.03.06.05 0 .02.03.03.05.05.03.02.05.04.07.06l.06.06c.03.02.05.04.07.07.02.02.04.05.06.08.03.03.06.06.08.1.02.03.04.07.06.1.02.06.05.1.07.16.03.08.05.15.07.23l-.04-.01zM76.65 10h.03v33.34c0 .2 0 .4-.03.6 0 .16-.03.33-.06.5-.03.1-.05.22-.08.33-.02.1-.04.18-.06.27-.02.08-.04.15-.07.23-.03.07-.05.13-.07.2l-.06.18c-.02.06-.05.12-.07.17-.02.05-.04.1-.06.16l-.07.14c-.02.05-.04.1-.06.14 0 .04-.03.08-.06.13-.02.03-.04.07-.06.1-.02.05-.04.08-.06.12-.03.04-.05.08-.07.1-.02.05-.04.08-.06.12-.03.03-.06.07-.08.1-.02.04-.04.07-.06.1-.02.03-.05.06-.07.1-.03.03-.05.06-.07.1-.02.02-.04.05-.07.07-.02.04-.04.07-.06.1-.02.03-.04.05-.06.08-.03.03-.05.06-.07.08-.02.03-.04.05-.06.08 0 .02-.04.05-.06.07-.02.04-.04.06-.06.1-.02 0-.04.03-.07.06 0 .02-.03.04-.05.07l-.06.06c-.04.02-.06.04-.08.06l-.06.06c-.03.02-.05.04-.07.06-.03.02-.05.04-.07.06-.02.02-.05.04-.07.06l-.06.06c-.02.02-.04.04-.07.06-.02 0-.04.03-.06.05-.02.02-.04.04-.06.05-.02.02-.04.04-.06.05-.02.02-.04.04-.06.05-.02.02-.05.04-.07.05 0 .02-.03.04-.05.05-.02.02-.04.03-.07.05-.02 0-.04.03-.06.04-.02.03-.04.04-.07.06-.02 0-.04.03-.06.04-.03.02-.05.03-.07.04-.03.02-.05.03-.07.04-.02.02-.04.03-.06.04-.02.02-.05.03-.07.04l-.06.04c-.02 0-.04.03-.07.04-.02 0-.04.02-.06.04-.02 0-.04.02-.06.03-.03.02-.05.03-.07.04 0 .02-.03.03-.05.04-.02 0-.05.02-.07.03-.02.02-.04.03-.06.04-.02 0-.04.02-.07.03l-.06.03-.08.03c-.02 0-.04.02-.06.03-.02 0-.04.02-.06.03h-.07c-.02.02-.04.03-.06.04-.02 0-.05.02-.07.03-.02 0-.04 0-.06.02h-.07c-.02.02-.04.03-.06.04 0 0-.03 0-.05.02-.03 0-.05 0-.07.02l-.06.02c-.02 0-.05 0-.07.02l-.06.02c-.03 0-.05 0-.08.02-.02 0-.04 0-.06.02h-.07l-.07.03-.06.03h-.07c-.02.02-.04.02-.06.03h-.07l-.06.02h-.06c-.02.02-.04.02-.06.03-.02 0-.04 0-.06.02h-.07l-.06.02h-.08c-.02 0-.04 0-.06.02h-.14c-.02 0-.04 0-.07.02h-.19l-.06.02H60.2V36.4h10.9l.06-.02h.13l.07-.02h.07c.02 0 .04 0 .06-.02h.07l.06-.02h.06c.02 0 .04-.02.06-.02h.06l.07-.03h.05c.02-.02.05-.02.07-.03h.06c.02-.02.04-.03.07-.03h.06c.03-.02.05-.02.07-.03l.07-.02c.02 0 .04 0 .06-.02.02 0 .05-.02.07-.02.02 0 .04 0 .06-.02.02 0 .04 0 .07-.02.02 0 .04-.02.06-.03.02 0 .04 0 .06-.02.03 0 .05 0 .07-.02 0 0 .03-.02.05-.03.03 0 .05-.02.07-.03.02 0 .04-.02.06-.03.02-.02.05-.03.07-.04.02 0 .04-.03.06-.04.03 0 .05-.02.08-.03.02-.03.04-.04.06-.05.02 0 .04-.03.06-.04.03 0 .05-.02.07-.03.02 0 .04-.03.06-.04.02-.02.05-.03.07-.05.02 0 .04-.03.06-.05.02 0 .05-.03.07-.04.02-.03.04-.05.06-.07l.05-.05c.03-.02.05-.04.07-.06l.06-.06c.03-.02.05-.04.07-.06.02-.02.04-.04.06-.07.03-.02.06-.04.08-.07.02-.02.04-.05.06-.07.02-.04.04-.07.07-.1.03-.02.05-.05.07-.08.02-.03.04-.06.06-.1.03-.03.05-.06.07-.1.02-.04.04-.07.06-.1.03-.05.05-.1.07-.14.02-.05.04-.1.06-.14l.06-.18c.02-.07.04-.14.06-.22.03-.1.05-.22.07-.33v-.42-.42c-.03-.1-.05-.22-.08-.32-.02-.07-.04-.14-.06-.2-.02-.07-.04-.13-.07-.18-.03-.05-.05-.1-.07-.14-.02-.04-.04-.08-.07-.12-.02-.04-.04-.08-.06-.1-.02-.05-.04-.08-.07-.1-.02-.04-.04-.07-.06-.1-.02-.03-.04-.06-.06-.1-.02 0-.04-.04-.06-.07-.02-.02-.04-.04-.06-.07-.02-.02-.05-.04-.07-.07 0-.03-.03-.05-.05-.07-.02-.02-.04-.04-.07-.06l-.06-.06c-.02 0-.04-.03-.07-.04l-.06-.06c-.03 0-.05-.03-.07-.05-.03 0-.05-.03-.07-.04-.02 0-.04-.02-.06-.04-.02 0-.05-.03-.07-.04-.02-.02-.04-.03-.06-.04-.02-.02-.04-.03-.07-.04-.02-.02-.04-.03-.06-.04-.02 0-.04-.03-.06-.04-.03 0-.05-.02-.07-.03 0 0-.03-.02-.05-.04-.02-.02-.05-.03-.07-.04-.02 0-.04-.02-.06-.03-.02 0-.04-.02-.07-.03-.02 0-.04-.02-.06-.03-.03 0-.05 0-.08-.02-.02 0-.04-.02-.06-.03-.02 0-.04-.02-.06-.02-.03 0-.05-.02-.07-.03-.02 0-.04 0-.06-.02-.02 0-.05 0-.07-.02-.02 0-.04-.02-.06-.02h-.07l-.06-.03s-.03 0-.05-.02c-.03 0-.05 0-.07-.02H72c-.02-.02-.05-.02-.07-.03h-.06c-.03-.02-.05-.02-.08-.03h-.06l-.07-.02h-.07c-.02-.02-.04-.02-.06-.02h-.07c-.02-.02-.04-.02-.06-.02h-.13l-.06-.02h-.12l-.07-.02H71v-.08h.05l.07-.02h.06l.06-.02h.07l.07-.03h.07c.02 0 .04 0 .06-.02.02 0 .04 0 .07-.02h.06c.02-.02.04-.03.06-.03.02 0 .04-.02.06-.02h.06c.03-.02.05-.03.07-.04 0 0 .03 0 .05-.02.02 0 .05-.02.07-.02.02 0 .04-.02.06-.03.02-.02.04-.03.07-.04.02 0 .04-.02.06-.03.03 0 .05-.02.07-.03.03 0 .05-.02.07-.03.02 0 .04-.02.06-.03.02 0 .05-.03.07-.04.02 0 .04-.02.06-.03.02-.02.04-.03.07-.04.02-.02.04-.03.06-.04.02-.03.04-.04.06-.06.03 0 .05-.02.07-.04 0-.02.03-.03.05-.05.03 0 .05-.03.07-.05.02 0 .04-.03.06-.05.02-.02.05-.03.07-.05l.06-.06c.03-.02.05-.04.08-.06.02-.03.04-.05.06-.07.02 0 .04-.04.06-.06.03-.02.05-.05.07-.07.02-.03.04-.06.06-.08.03-.04.05-.07.07-.1.02-.03.04-.06.06-.1.02-.03.05-.06.07-.1.02-.03.04-.07.06-.1 0-.05.03-.1.05-.14.03-.05.05-.1.07-.14l.06-.18c.03-.07.05-.15.07-.23.03-.1.05-.24.06-.37.02-.1.03-.2.03-.3 0-.12 0-.23-.02-.33 0-.14-.02-.27-.05-.4-.02-.07-.04-.15-.07-.22l-.06-.18c-.02-.04-.04-.1-.07-.14-.02-.04-.04-.08-.06-.13-.03-.03-.05-.07-.07-.1-.02-.04-.05-.07-.07-.1-.02-.04-.04-.07-.06-.1-.02-.03-.04-.05-.07-.08-.02-.03-.04-.05-.06-.08-.02-.02-.04-.05-.07-.07-.02-.02-.04-.05-.06-.07l-.06-.06c-.03-.02-.05-.04-.07-.06l-.05-.05c-.02-.02-.05-.03-.07-.05-.02-.02-.04-.03-.06-.05-.02-.02-.04-.03-.07-.05-.02 0-.04-.03-.06-.04-.03-.02-.05-.03-.08-.05-.02 0-.04 0-.06-.03-.02 0-.04-.02-.06-.04-.03 0-.05-.02-.07-.03-.02-.02-.04-.03-.06-.04-.02 0-.05-.02-.07-.03-.02 0-.04-.02-.06-.04-.02-.02-.04-.03-.07-.04-.02 0-.04-.02-.06-.03 0 0-.03 0-.05-.02-.03 0-.05 0-.07-.02-.02 0-.04-.02-.06-.03-.02 0-.05 0-.07-.02-.02 0-.04-.02-.06-.02-.03 0-.05 0-.08-.02-.02 0-.04 0-.06-.02-.02 0-.04 0-.07-.02-.03 0-.05 0-.07-.02h-.06c-.03-.02-.05-.03-.07-.03l-.06-.03h-.07c-.02-.02-.04-.02-.06-.03h-.06c-.02-.02-.04-.02-.06-.02-.02 0-.04 0-.06-.02h-.07c-.02 0-.04 0-.06-.02h-.08l-.06-.02h-.14l-.07-.02h-.12l-.07-.02h-.25l-.05-.02H60.2v-6.94c0-.46.04-.92.13-1.36.02-.1.05-.2.07-.28.02-.08.04-.16.06-.23 0-.08.04-.15.06-.22.02-.06.04-.13.06-.2.02-.05.04-.1.07-.16 0-.05.03-.1.05-.16.02-.05.04-.1.07-.14.02-.05.04-.1.06-.14.02-.05.04-.1.06-.13.03-.04.05-.08.07-.13.03-.04.05-.07.07-.1.02-.05.05-.1.07-.13.02-.04.04-.08.06-.1.02-.05.04-.08.07-.12.02-.03.04-.06.06-.1.02-.03.04-.06.06-.1.02-.02.04-.05.06-.08.02-.03.04-.06.06-.1.02-.02.05-.05.07-.08 0-.03.03-.05.05-.08.02-.03.04-.06.07-.08.02-.03.04-.05.06-.08.02-.03.04-.05.07-.08.02-.02.04-.04.06-.07.03-.02.05-.05.07-.07.03-.02.05-.05.07-.07.02-.03.04-.05.06-.08.02-.02.05-.04.07-.06.02-.02.04-.05.06-.07.02-.03.04-.05.07-.07l.06-.06.06-.06c.03 0 .05-.03.07-.05l.05-.05c.02-.02.05-.04.07-.06.02 0 .04-.03.06-.05.02-.03.04-.04.07-.06l.06-.05.08-.06c.02-.02.04-.03.06-.05.02-.03.04-.04.06-.06l.07-.04c.02-.02.04-.03.06-.05l.07-.04.06-.03c.02-.02.04-.03.07-.04l.06-.04c0-.03.03-.04.05-.05.03-.02.05-.03.07-.04.02 0 .04-.02.06-.03.02 0 .05-.02.07-.04.02 0 .04-.02.06-.03.03 0 .06-.02.08-.04.02 0 .04-.02.06-.03.02 0 .04-.02.07-.03.03 0 .05-.02.07-.03l.06-.04c.03 0 .05-.02.07-.03.02 0 .04-.02.06-.03.02 0 .05 0 .07-.02.02 0 .04-.02.06-.03 0 0 .03-.02.06-.03.02-.02.04-.03.06-.03l.06-.03.07-.02c.02 0 .04-.02.06-.03.03-.02.06-.02.08-.03.02 0 .04-.02.06-.02.02 0 .05-.02.07-.03l.07-.02c.02 0 .04 0 .07-.02.02 0 .04 0 .06-.02h.06c.03-.02.05-.03.07-.03.02 0 .04 0 .06-.02h.06c.02 0 .04-.02.06-.02.02 0 .04 0 .07-.02h.05l.06-.03h.08c.02 0 .04-.02.06-.02h.14l.07-.03h.13c.02-.02.04-.02.06-.02h.06l.06-.02h.13l.05-.02h10.33l.02-.02zM23.46 33.2c-.05-.02-.1-.04-.14-.07V16.66c0-.46.05-.92.14-1.36.02-.1.04-.18.06-.27.02-.08.05-.16.07-.24 0-.08.03-.15.05-.22.02-.06.04-.12.07-.2.02-.04.04-.1.06-.16.02-.05.04-.1.07-.15l.06-.15c.03-.05.05-.1.07-.14.02-.04.05-.1.07-.13l.06-.12c.02-.04.04-.08.07-.12.02-.03.04-.07.06-.1.02-.04.04-.07.07-.1.02-.04.04-.08.06-.1.02-.05.04-.08.06-.1.02-.04.05-.08.07-.1 0-.04.03-.07.05-.1.02-.03.04-.06.07-.1.02-.02.04-.05.06-.07.02-.03.04-.06.06-.1.03-.02.05-.04.07-.07.03-.02.05-.05.07-.08l.07-.07c.02-.02.04-.04.06-.07l.07-.07c.02-.02.04-.04.06-.07.02-.03.04-.05.06-.07.02-.03.04-.05.06-.07l.06-.06c.02-.02.05-.04.07-.07 0-.02.03-.04.05-.06.02-.02.04-.04.07-.05l.06-.06.06-.06c.03-.02.05-.03.07-.05.03-.02.05-.04.07-.06.02-.02.05-.04.07-.06.02 0 .04-.03.06-.05.02-.02.04-.04.07-.06.02 0 .04-.03.06-.05l.06-.05c.02-.02.04-.03.06-.05.02 0 .04-.03.06-.04.02-.02.05-.03.07-.05 0 0 .03 0 .05-.03.02 0 .04-.03.07-.04.02 0 .04-.03.06-.04.02-.02.04-.04.06-.05.03 0 .05-.03.07-.04.03 0 .05 0 .07-.03.02 0 .05-.02.07-.03.02 0 .04-.03.06-.04.02 0 .04-.02.07-.03.02 0 .04-.03.06-.04.02 0 .04-.02.06-.03l.06-.03c.02 0 .04-.02.06-.03.02 0 .05-.02.07-.03 0 0 .03 0 .05-.02.02 0 .04-.02.07-.03.02 0 .04-.02.06-.03.02 0 .04-.02.06-.03l.07-.03.07-.03.07-.02c.02 0 .04-.02.06-.03.02 0 .04-.02.07-.03.02 0 .04 0 .06-.02l.06-.02.06-.02h.06c.02-.02.05-.03.07-.03 0 0 .03-.02.05-.02.02 0 .04 0 .07-.02l.06-.02h.06c.02 0 .05 0 .07-.02.03 0 .05 0 .07-.02h.07l.06-.02c.02 0 .04 0 .06-.02h.07c.02 0 .04-.02.06-.02h.06l.06-.02h.07c0-.02.03-.02.05-.02h.06l.08-.02h.13c.03-.02.05-.02.07-.02h.13c.02 0 .04 0 .06-.02H39.82v33.34c0 .3-.02.58-.05.86-.02.13-.04.26-.07.4l-.06.3c-.03.08-.05.16-.07.24-.02.08-.05.15-.07.22-.02.06-.04.13-.06.2-.02.05-.05.1-.07.17-.02.05-.04.1-.06.16-.02.04-.04.1-.07.14-.02.04-.04.1-.06.14-.02.04-.04.1-.06.13-.03.05-.05.1-.07.14 0 .04-.03.08-.05.12l-.07.1c-.02.05-.04.08-.06.12-.02.03-.04.07-.07.1-.02.04-.04.07-.06.1-.03.04-.05.07-.07.1-.03.03-.05.06-.07.1-.02.02-.04.05-.06.08-.02.03-.05.06-.07.1-.02.02-.04.05-.06.07-.02.03-.04.06-.07.08-.02.04-.04.07-.06.1-.02.02-.04.04-.06.07-.03.02-.05.05-.07.07 0 .03-.03.05-.05.08-.02.02-.05.04-.07.07-.02 0-.04.03-.06.05-.02.03-.04.05-.07.07l-.06.06-.07.07c-.03.02-.05.04-.07.06-.02.03-.04.05-.06.07-.02.02-.05.04-.07.06-.02 0-.04.03-.06.05-.02.02-.04.04-.07.06-.02 0-.04.03-.06.05-.02 0-.04.03-.06.04-.03.02-.05.04-.07.05 0 0-.03.03-.05.04-.02.02-.05.04-.07.05-.02 0-.04.02-.06.04-.02 0-.04.03-.07.05-.02 0-.04.02-.06.03-.03 0-.05.03-.07.04-.02.02-.05.03-.07.05-.02 0-.04.02-.06.04-.02 0-.05.03-.07.04-.02 0-.04.03-.06.04-.02 0-.04.02-.07.04-.02 0-.04.02-.06.04-.02 0-.04.02-.06.03-.02 0-.05.03-.07.04 0 0-.03 0-.05.02l-.07.04c-.02 0-.04.02-.06.03-.02 0-.04 0-.06.02-.03 0-.05.02-.07.03-.03 0-.05.02-.07.03-.02 0-.05.02-.07.03-.02.02-.04.03-.06.04l-.07.03-.06.03c-.02 0-.04 0-.06.02-.02 0-.04.02-.06.03-.02 0-.04.02-.06.02-.02 0-.05.02-.07.03 0 0-.03 0-.05.02l-.07.02-.06.03c-.02 0-.04 0-.06.02h-.07c-.03 0-.05.02-.07.03l-.07.02h-.06c-.02.02-.04.03-.07.03-.02 0-.04 0-.06.02-.02 0-.04 0-.06.02h-.06l-.06.03h-.07s-.03.02-.05.02c-.02 0-.04 0-.07.02h-.12c-.03 0-.05.02-.07.02h-.07c-.02 0-.05.02-.07.02H34c-.02 0-.04.02-.07.02h-.12c-.02 0-.04.02-.06.02h-.13-.05l-.07.02H23.3V35.96s.05.02.14.04h.06l.07.02.05.02h.07l.06.03h.07l.06.03h.07l.07.02.06.02h.07l.06.03h.07l.06.02h.06l.07.02h.05l.07.02.06.02h.06l.07.02h.07l.07.02H25l.07.03h.06l.06.02h.06l.06.02h.07l.05.02h.13l.06.02h.07l.07.02h.07l.06.02h.07l.06.02h.06l.06.02h.06l.07.02h.13l.06.02h.06l.07.02h.14l.06.02h.07l.06.02h.12l.06.02h.14l.07.02h.19l.07.02h.13l.07.02h.18l.06.02h.19l.06.02h.27l.06.02h.31l.07.02h.6l.07.02h1.39l.07-.02h.33l.06-.02h.24l.06-.02h.23l.07-.02h.13l.06-.02h.13l.06-.02h.06l.06-.02h.13l.08-.02h.06c.02 0 .04-.02.07-.02H33l.06-.02h.07c.02 0 .04-.02.06-.02h.07c.02 0 .04-.02.06-.02h.06l.06-.03h.13c.02 0 .04-.02.06-.02l.08-.02h.06c.02-.02.04-.02.07-.02l.07-.02h.06c.03-.02.05-.02.07-.03l.06-.03h.07c.02-.02.04-.02.06-.03l.06-.02h.06c.02-.02.04-.02.06-.03l.07-.03c.02 0 .04 0 .06-.02l.08-.02.06-.02h.07l.07-.03.06-.02c.03 0 .05-.02.07-.02.02 0 .04-.02.06-.03l.07-.02c.02 0 .04-.02.06-.02 0 0 .03-.02.06-.03.02 0 .04-.02.06-.02l.06-.02.07-.03c.02 0 .04 0 .06-.02.03 0 .06-.02.08-.03l.06-.03.07-.03c.03 0 .05-.02.07-.03.02 0 .04 0 .06-.02.03 0 .05-.03.07-.04.02 0 .04-.02.06-.03.02 0 .05 0 .07-.02.02-.02.04-.03.06-.04l.06-.04c.02 0 .04-.02.06-.03.02-.02.04-.03.06-.04.03-.02.05-.03.07-.04.02-.03.04-.04.06-.05.03-.02.06-.03.08-.05.02 0 .04-.02.06-.04.02 0 .04-.03.06-.04.03-.02.05-.04.07-.05.02-.02.04-.03.06-.05.03-.02.05-.03.07-.05.02-.02.04-.03.06-.05.02-.02.05-.04.07-.06.02 0 .04-.03.06-.05l.05-.05c.03-.02.05-.04.07-.06.02-.03.04-.05.06-.07.03-.02.05-.04.07-.07l.06-.06c.03-.03.05-.05.08-.07.02-.03.04-.05.06-.08.02-.02.04-.05.06-.08.03-.02.05-.05.07-.08.02-.04.04-.07.06-.1.03-.02.05-.06.07-.1.02-.02.04-.05.06-.08.02-.04.05-.07.07-.1.02-.04.04-.08.06-.1 0-.05.03-.1.05-.13l.07-.14c.02-.05.04-.1.06-.14.03-.05.05-.1.07-.16.02-.05.04-.1.06-.17.03-.07.06-.14.08-.2.02-.1.04-.17.06-.25.02-.1.05-.2.06-.3.03-.15.05-.3.07-.46.02-.23.03-.45.03-.67V23.6H32.7v8.08c-.02.15-.05.3-.08.44 0 .1-.03.17-.06.26-.02.06-.04.13-.06.2-.02.05-.05.1-.07.16-.03.04-.05.1-.07.14-.02.04-.04.08-.07.12-.02.04-.04.08-.06.1-.02.05-.04.08-.06.1-.03.05-.05.08-.07.1-.02.04-.04.07-.06.1 0 .02-.04.05-.06.07-.02.03-.04.05-.06.08l-.07.07c0 .02-.03.04-.05.06l-.06.06c-.04.02-.06.04-.08.06-.02.02-.04.04-.06.05-.02.02-.05.04-.07.06-.03.02-.05.04-.07.05-.02.02-.04.03-.07.05-.02 0-.04.03-.06.04-.02.02-.04.03-.06.04-.03.02-.05.03-.07.04-.02 0-.04.03-.06.04l-.06.03c-.02 0-.04.02-.06.03-.02 0-.04.02-.07.03 0 0-.03.02-.05.03-.02 0-.04 0-.06.02-.04 0-.06 0-.08.02-.02 0-.04.02-.06.03-.02 0-.05 0-.07.02h-.07c-.02.02-.04.03-.07.03-.02 0-.04.02-.06.02-.02 0-.04.02-.06.02-.03 0-.05 0-.07.02h-.06s-.04 0-.06.02h-.06c-.02.02-.04.02-.07.03H30c-.02 0-.04.02-.06.02h-.08c-.02 0-.04 0-.06.02h-.27c-.02.02-.04.02-.06.02h-.13-.96l-.06-.02h-.19l-.06-.02h-.14l-.07-.02h-.07l-.06-.02h-.13l-.07-.02h-.06l-.06-.02h-.06l-.06-.03h-.07l-.06-.02h-.08l-.06-.02H27l-.07-.03h-.06l-.07-.02-.06-.02h-.07l-.06-.03h-.06l-.06-.03-.06-.02h-.07l-.06-.03h-.08l-.06-.03-.07-.02-.07-.02-.06-.02h-.07l-.06-.03-.07-.02h-.06l-.06-.03-.06-.02-.06-.02-.07-.02-.06-.02-.08-.02-.06-.02-.07-.02-.07-.03-.06-.03-.07-.02-.06-.02-.07-.03-.06-.02-.06-.03-.06-.02-.06-.03-.07-.02-.06-.03-.08-.02-.06-.03-.06-.03-.07-.02-.06-.03-.07-.03-.06-.04-.07-.03-.06-.02-.05-.02-.07-.03-.06-.03-.07-.03-.06-.04-.08-.03-.06-.03.02.04zm18.44-7.92c-.03.04-.08.07-.13.1v-8.72c0-.46.05-.92.14-1.35.03-.1.05-.18.08-.27l.06-.24c.02-.08.04-.15.06-.22.03-.06.05-.12.07-.18l.06-.18c.02-.05.05-.1.07-.15l.06-.15c.02-.05.04-.1.07-.14.02-.04.04-.1.06-.13 0-.04.03-.08.05-.12.03-.04.05-.08.07-.12.02-.03.04-.06.06-.1.02-.04.05-.07.07-.1.02-.04.04-.08.06-.1.03-.05.05-.08.08-.1.02-.04.04-.08.06-.1.02-.04.04-.07.06-.1.03-.03.05-.06.07-.1.02-.02.04-.05.06-.07.02-.03.05-.06.07-.1.02 0 .04-.04.06-.07.02-.02.04-.05.07-.08.02-.02.04-.05.06-.07 0-.02.03-.04.05-.06.03-.03.05-.05.07-.08.02-.02.04-.04.06-.07.02-.03.05-.05.07-.07.02-.02.04-.05.06-.07.03-.02.05-.04.08-.06l.06-.06c.02-.03.04-.04.06-.06.03-.02.05-.04.07-.06l.06-.06c.02-.02.05-.04.07-.06.02-.02.04-.03.06-.05.02-.02.04-.04.07-.06l.06-.06.05-.05c.03-.02.05-.04.07-.06.02 0 .04-.03.06-.05.02-.02.05-.04.07-.05.02-.02.04-.03.06-.05.03 0 .05-.03.08-.04.02-.02.04-.03.06-.05.02 0 .04 0 .06-.03.03 0 .05-.03.07-.04.02 0 .04-.03.06-.04.02-.02.05-.04.07-.05.02 0 .04-.03.06-.04.02 0 .04 0 .07-.03.02 0 .04-.02.06-.03 0 0 .03-.03.05-.04.03 0 .05-.02.07-.03.02 0 .04-.02.06-.04l.07-.03.06-.03c.03 0 .05-.02.08-.03.02 0 .04-.02.06-.03.02 0 .04 0 .06-.02.02 0 .05-.02.07-.03.02 0 .04-.02.06-.03.02 0 .04-.02.07-.02l.06-.03c.02 0 .04-.02.06-.03.03 0 .05 0 .07-.02 0 0 .03-.02.05-.03.02 0 .05-.02.07-.03.02 0 .04 0 .06-.02.02 0 .04-.02.07-.02l.06-.02h.07c.03-.02.05-.03.07-.03.02 0 .04-.02.06-.02.02 0 .05 0 .07-.02l.06-.02h.07c.02 0 .04 0 .06-.02.02 0 .04 0 .06-.02H47l.05-.02c.02 0 .05 0 .07-.02h.06c.02 0 .04-.02.07-.02h.06l.07-.02h.07c.02-.02.04-.02.06-.02h.07l.06-.02h.13c.02-.02.04-.02.06-.02H47.95c.02 0 .05 0 .07-.02h10.16v33.34c0 .3-.02.58-.06.86l-.06.4c0 .1-.03.2-.06.3l-.06.24c-.02.08-.04.15-.07.22 0 .06-.03.13-.05.2-.02.05-.04.1-.06.17-.04.05-.06.1-.08.16-.02.04-.04.1-.06.14l-.07.14c-.03.04-.05.1-.07.13-.02.05-.04.1-.07.14l-.06.12c-.02.03-.04.07-.06.1-.03.05-.05.08-.07.12-.02.03-.04.07-.06.1 0 .04-.04.07-.06.1-.02.04-.04.07-.06.1-.02.03-.04.06-.07.1 0 .02-.03.05-.05.08-.02.03-.04.06-.06.1-.04.02-.06.05-.08.07-.02.03-.04.06-.06.08-.02.04-.05.07-.07.1-.03.02-.05.04-.07.07-.02.02-.04.05-.07.07-.02.03-.04.05-.06.08-.02.02-.04.04-.06.07-.03 0-.05.03-.07.05-.02.03-.04.05-.06.07 0 .02-.04.04-.06.06-.02.02-.04.05-.06.07-.02.02-.04.04-.07.06 0 .03-.03.05-.05.07-.02.02-.04.04-.06.05-.04.02-.06.04-.08.06l-.06.06c-.02 0-.04.03-.07.05-.03 0-.05.02-.07.04-.02.02-.04.04-.07.05-.02 0-.04.03-.06.04-.02.02-.04.04-.06.05-.02 0-.05.02-.07.04-.02 0-.04.03-.06.05 0 0-.03 0-.06.03-.02 0-.04.03-.06.04-.02.02-.04.03-.06.05-.03 0-.05.02-.07.04-.02 0-.04.03-.06.04-.03 0-.06.03-.08.04-.02 0-.04.02-.06.04-.02 0-.04.02-.07.04-.03 0-.05.02-.07.03l-.06.04-.07.02-.06.04c-.02 0-.05.02-.07.03-.02 0-.04 0-.06.02 0 0-.03.02-.06.03-.02 0-.04.02-.06.03-.02 0-.04.02-.06.03-.03.02-.05.03-.07.04l-.06.03-.08.03-.06.02c-.02 0-.04.02-.07.03-.03 0-.05.02-.07.02-.02 0-.04.02-.06.03-.03 0-.05 0-.07.02l-.06.02-.07.03c-.02 0-.04 0-.06.02h-.06c-.02 0-.04.02-.06.03l-.06.02h-.07c-.02.02-.04.03-.06.03-.03 0-.06 0-.08.02-.02 0-.04 0-.06.02h-.07l-.07.03h-.06c-.03 0-.05.02-.07.02-.02 0-.04 0-.06.02h-.13s-.03.02-.06.02h-.06c-.02 0-.04.02-.06.02h-.07c-.02 0-.04.02-.06.02h-.14c-.02 0-.04.02-.07.02h-.2l-.06.02h-.13-9.97V34.6c.05.05.1.1.14.12.03.02.05.04.08.06.02 0 .04.03.06.05.02 0 .04.03.06.04.03.02.05.04.07.05.02.02.04.03.06.05.02 0 .05.03.07.04l.06.06c.02 0 .04.03.07.04l.06.04c0 .02.03.03.05.04.03.02.05.03.07.04l.06.04c.02 0 .05.03.07.04.02 0 .04.02.06.04l.08.03.06.04.06.04c.03.02.05.03.07.04.02 0 .04.02.06.03l.07.04.06.04.07.03c.02.02.04.03.06.04l.05.03.07.03.06.03.07.02.06.03.08.03.06.03.06.03.07.02.06.03c.02.02.05.03.07.03l.06.03c.02 0 .04 0 .07.02.02 0 .04.02.06.02l.05.03.07.02c.02 0 .04 0 .06.02.02 0 .05 0 .07.02h.06l.08.03.06.02.06.02.07.02h.06l.07.02.06.02.07.02h.06l.05.03h.07l.06.02.07.02h.06l.08.03h.06l.06.03h.07l.06.02.07.02h.06l.06.02h.07l.05.03h.13l.07.02h.06l.07.02h.07l.06.02h.07l.06.02h.07l.06.02h.06l.07.02h.12l.06.02h.13l.07.02h.13l.07.02h.13l.06.02h.18l.07.02h.19l.07.02h.33l.06.02h.51l.07.02h1.47l.06-.02h.48l.06-.02h.24l.07-.02h.19l.07-.02h.2l.06-.02h.12l.06-.02h.13l.07-.02h.12l.07-.02h.07l.07-.02h.13l.06-.02h.06l.06-.02h.06l.07-.02h.05l.07-.02h.12l.07-.02h.07l.07-.02h.06l.07-.02h.06l.06-.03h.06l.06-.02h.14l.07-.02h.06l.06-.02h.07l.07-.03h.07l.06-.02h.13l.06-.03h.06l.06-.02h.07l.05-.03h.07l.06-.02.06-.02h.07l.07-.02.07-.02h.06l.06-.02.07-.02h.06l.06-.03h.06l.07-.02.05-.02h.06l.08-.03h.06l.07-.03.07-.02v-2.82l-.06.03-.06.04-.06.03-.07.03-.05.03-.06.02-.08.03-.06.03-.07.03-.07.04-.07.03-.06.03-.06.03-.07.02-.06.03-.06.03-.06.04-.06.02-.07.03h-.06l-.08.04-.06.03-.07.02-.07.02-.06.02-.07.02-.06.03h-.07l-.06.03-.06.02-.06.03-.06.02-.07.02-.06.02-.08.02-.06.02-.07.02-.07.02-.06.02-.07.02-.06.02h-.07l-.06.03-.06.03-.06.02h-.06l-.07.03h-.06l-.08.03-.06.02-.07.02h-.07l-.06.03h-.07l-.06.02h-.07l-.06.02h-.06l-.06.02-.06.02h-.07l-.06.02h-.08l-.06.02h-.07l-.07.02H52l-.06.02h-.07l-.06.02h-.12l-.06.02h-.13l-.08.02h-.2l-.06.02H49.95c-.03-.02-.05-.02-.07-.02h-.13l-.06-.02h-.08l-.06-.02h-.13c-.02-.02-.04-.02-.06-.03h-.07c-.02 0-.04 0-.06-.02h-.13c0-.02-.03-.02-.05-.03h-.07l-.06-.03h-.07c-.02-.02-.04-.02-.06-.03h-.08c-.02 0-.04-.02-.06-.03-.02 0-.04 0-.06-.02-.03 0-.05 0-.07-.02-.02 0-.04 0-.06-.02h-.07c-.02-.02-.04-.02-.06-.03-.02 0-.04-.02-.07-.03-.02 0-.04 0-.06-.02 0 0-.03-.02-.05-.03-.03 0-.05-.02-.07-.03-.02 0-.04-.02-.06-.03-.02 0-.05-.02-.07-.03-.02 0-.04 0-.06-.02-.03 0-.05-.02-.08-.03-.02 0-.04-.02-.06-.04-.02 0-.04 0-.06-.02-.03 0-.05-.02-.07-.04-.02 0-.04-.02-.06-.03-.02 0-.05-.02-.07-.03-.02 0-.04-.03-.06-.04-.02-.02-.04-.03-.07-.04-.02-.03-.04-.04-.06-.06 0 0-.03-.03-.05-.04-.03-.02-.05-.03-.07-.05-.02-.02-.04-.03-.06-.05-.02-.02-.05-.03-.07-.05-.02-.02-.04-.04-.06-.05-.03-.02-.05-.04-.08-.06l-.06-.06-.06-.06c-.03-.02-.05-.04-.07-.06-.02-.03-.04-.05-.06-.07-.02-.04-.05-.06-.07-.08-.02-.03-.04-.05-.06-.08-.02-.02-.04-.05-.07-.08-.02-.02-.04-.05-.06-.08 0-.03-.03-.06-.05-.1-.03-.02-.05-.05-.07-.08-.02-.04-.04-.07-.06-.1-.02-.04-.05-.07-.07-.1-.02-.05-.04-.1-.06-.13-.03-.04-.05-.08-.08-.12-.02-.05-.04-.1-.06-.14-.02-.04-.04-.1-.06-.14-.03-.06-.05-.12-.07-.17-.02-.08-.04-.14-.06-.2-.03-.1-.05-.17-.07-.25l-.06-.3c-.03-.15-.05-.3-.06-.47-.02-.2-.03-.38-.03-.58 0-.2 0-.4.03-.58 0-.16.03-.32.06-.47l.06-.3c.02-.08.04-.16.07-.24.02-.06.04-.12.06-.2.02-.04.04-.1.07-.16l.06-.15c.02-.06.04-.1.06-.15.03-.04.05-.08.07-.12 0-.04.03-.08.05-.12.02-.03.05-.06.07-.1.02-.03.04-.06.06-.1.02-.03.04-.06.07-.1.02-.02.04-.05.06-.08.03-.03.05-.05.07-.08.03-.03.05-.05.07-.08.02-.03.04-.05.06-.08.02-.02.05-.04.07-.07.02 0 .04-.03.06-.05.02-.03.04-.05.07-.07l.06-.06.06-.06c.03-.02.05-.04.07-.06l.05-.05c.02-.02.05-.03.07-.05.02-.02.04-.03.06-.05.02-.02.04-.03.07-.05.02 0 .04-.03.06-.04.03-.02.05-.03.07-.05.03 0 .05 0 .07-.03.02 0 .04-.02.06-.04.02 0 .05-.02.07-.04.02-.02.04-.03.06-.04.02-.02.04-.03.07-.04.02 0 .04-.02.06-.03.02-.03.04-.04.06-.05.03 0 .05-.02.07-.03 0 0 .03-.02.05-.03.02-.02.05-.03.07-.04.02 0 .04-.02.06-.03.02 0 .04-.02.07-.02.02 0 .04 0 .06-.02.03 0 .05-.02.07-.02.03 0 .05-.02.07-.03.02 0 .04 0 .06-.02h.07c.02-.02.04-.03.06-.03.02 0 .04-.02.07-.02.02 0 .04-.02.06-.02l.06-.02h.07c0-.02.03-.02.05-.03h.07l.06-.03h.07c.02-.02.04-.02.06-.03h.14c.02-.02.04-.02.06-.02h.07c.02-.02.04-.02.06-.03h.13l.06-.02h.07l.05-.02H50l.07-.02h1.25l.04.02h.18l.07.02h.12l.07.02h.07l.07.02h.13l.06.02h.06l.06.02h.06l.07.02h.05l.07.02h.06l.06.03h.07l.07.02h.07l.06.02h.07l.06.02.06.02h.06l.06.03h.07l.05.02h.07l.06.03.06.02h.07l.07.03.07.02.06.02.07.02.06.02.06.02.06.02.06.02.07.02.05.02.07.02.06.02.06.02.07.02.07.03h.07l.06.03.07.03.06.02.06.03.06.03.06.03.07.02.05.03.07.03.06.03.06.03.07.02.07.02.07.03.06.03.06.03.07.03.06.03.06.02.06.03.07.03.05.03.06.04.08.03.06.03.07.04.07.03v-2.82l-.06-.02-.06-.02h-.06l-.07-.02h-.05l-.06-.03h-.08l-.06-.02-.07-.02h-.07l-.07-.02h-.06l-.06-.02-.07-.02h-.06l-.06-.02-.06-.02h-.06l-.07-.02-.06-.02H55l-.06-.02h-.07l-.07-.03h-.13l-.06-.02h-.07l-.06-.03h-.06l-.06-.02h-.06l-.07-.02h-.14l-.06-.02H54l-.07-.02-.06-.02h-.07l-.06-.02h-.07l-.06-.02h-.12l-.06-.02h-.07l-.06-.02h-.08l-.06-.02h-.07l-.07-.02h-.13l-.06-.02h-.07l-.06-.02h-.12l-.06-.02h-.13l-.08-.02h-.13l-.07-.02H52l-.06-.02h-.19l-.06-.02h-.27l-.06-.02h-.33l-.07-.02h-.56l-.07-.02h-1.4l-.07.02h-.39l-.07.02h-.24l-.07.02h-.19l-.08.02h-.12l-.07.02h-.19l-.07.02h-.06l-.05.02h-.13l-.07.02H47l-.08.02h-.12l-.07.02h-.06l-.07.02h-.06l-.07.02h-.06l-.05.02h-.07l-.06.02-.07.02h-.06l-.08.02h-.06l-.06.03h-.07l-.06.02h-.07l-.06.02h-.06l-.07.03h-.05l-.07.03h-.06l-.07.03-.06.03h-.07l-.07.03-.06.02-.07.02-.06.02h-.07l-.06.03-.06.02-.07.02h-.05c-.02.02-.05.03-.07.03l-.06.03c-.02 0-.04 0-.07.02l-.06.02-.07.02c-.03 0-.05.02-.07.02-.02 0-.04.02-.06.03l-.07.02c-.02 0-.04 0-.06.02l-.07.02-.06.03-.06.02-.07.02-.05.03-.07.03-.06.03-.07.03-.06.03c-.03 0-.05.02-.07.04l-.07.03-.06.03-.07.03c-.02 0-.04 0-.06.02-.02.02-.04.03-.07.04l-.06.03-.06.03c-.03 0-.05.02-.07.04 0 0-.03.02-.05.03-.02.02-.05.03-.07.04-.02 0-.04.03-.06.04-.02 0-.04.03-.07.04-.02 0-.04.03-.06.04l-.07.04c-.03.02-.05.03-.07.05l-.06.04c-.02 0-.05.02-.07.03-.02.02-.04.04-.06.05-.02.02-.04.03-.07.05-.02 0-.04.03-.06.05-.02 0-.04.03-.06.05-.03 0-.05.03-.07.05l-.01-.08z"/>
    </g>
</svg>
