<svg xmlns="http://www.w3.org/2000/svg" width="100" height="60" viewBox="0 0 100 60">
    <g fill="none">
        <rect width="100" height="60" fill="#006" rx="4"/>
        <path fill="#C00" d="M56.13 30.5C56.13 41.25 47.4 50 36.6 50c-10.76 0-19.5-8.74-19.5-19.5 0-10.8 8.74-19.53 19.5-19.53 10.8 0 19.53 8.74 19.53 19.52"/>
        <path fill="#F90" d="M62.8 10.97c-5.03 0-9.62 1.9-13.1 5.05-.7.64-1.35 1.33-1.96 2.07h3.95c.52.64 1.02 1.33 1.47 2.05h-6.92c-.4.67-.8 1.36-1.12 2.07h9.17c.3.67.6 1.36.82 2.07H44.3c-.22.66-.4 1.35-.56 2.05H55.7c.28 1.34.43 2.72.43 4.14 0 2.15-.35 4.24-1 6.18H44.3c.24.7.52 1.4.83 2.07h9.17c-.34.7-.7 1.4-1.13 2.07h-6.92c.46.72.95 1.4 1.5 2.06h3.93c-.6.74-1.26 1.43-1.97 2.07C53.2 48.1 57.78 50 62.8 50c10.8 0 19.53-8.74 19.53-19.5 0-10.8-8.74-19.53-19.52-19.53"/>
        <path fill="#006" d="M32.06 32.62c-.23-.02-.32-.03-.48-.03-1.2 0-1.8.4-1.8 1.2 0 .52.3.83.75.83.87 0 1.5-.82 1.53-2zm1.54 3.6h-1.76l.04-.85c-.53.66-1.25.98-2.22.98-1.15 0-1.93-.9-1.93-2.2 0-1.96 1.37-3.1 3.72-3.1.24 0 .54.02.86.06.08-.26.1-.37.1-.5 0-.55-.38-.75-1.37-.75-1.03 0-1.9.25-2.24.37 0-.14.3-1.8.3-1.8 1.04-.33 1.74-.44 2.52-.44 1.82 0 2.78.82 2.78 2.36 0 .4-.06.92-.17 1.6-.18 1.16-.58 3.66-.63 4.27zM26.84 36.2L24.72 36.2 25.94 28.6 23.22 36.2 21.78 36.2 21.6 28.64 20.33 36.21 18.33 36.21 20 26.3 23.05 26.3 23.23 31.85 25.09 26.31 28.47 26.31 26.83 36.21M65.43 32.62c-.22-.02-.32-.03-.47-.03-1.2 0-1.8.4-1.8 1.2 0 .52.3.83.75.83.87 0 1.5-.82 1.53-2h-.01zm1.54 3.6h-1.75l.04-.85c-.54.66-1.25.98-2.22.98-1.15 0-1.94-.9-1.94-2.2 0-1.96 1.37-3.1 3.72-3.1.24 0 .55.02.87.06.05-.26.07-.37.07-.5 0-.55-.37-.75-1.36-.75-1.03 0-1.88.25-2.23.37.02-.14.3-1.8.3-1.8 1.05-.33 1.74-.44 2.53-.44 1.82 0 2.78.82 2.78 2.36 0 .4-.07.92-.17 1.6-.18 1.16-.57 3.66-.63 4.27h-.01zM43 36.1c-.57.17-1.02.25-1.5.25-1.1 0-1.68-.62-1.68-1.77-.02-.36.15-1.3.3-2.15.1-.75.9-5.5.9-5.5h2.1l-.23 1.23h1.26l-.3 1.93H42.6c-.25 1.52-.6 3.43-.6 3.68 0 .42.22.6.72.6.24 0 .43-.02.57-.08l-.3 1.8M49.47 36.02c-.72.22-1.42.33-2.16.33-2.35 0-3.58-1.24-3.58-3.6 0-2.74 1.57-4.77 3.7-4.77 1.72 0 2.83 1.13 2.83 2.9 0 .6-.07 1.18-.26 2h-4.2c-.14 1.16.6 1.65 1.83 1.65.75 0 1.43-.16 2.2-.5l-.36 2v-.01zm-1.18-4.77c0-.17.2-1.44-1-1.44-.66 0-1.14.52-1.34 1.45h2.33l.01-.01zM34.87 30.7c0 1.02.5 1.72 1.6 2.25.87.4 1 .52 1 .9 0 .5-.38.72-1.2.72-.65 0-1.23-.1-1.9-.32 0 0-.3 1.78-.3 1.86.48.1.9.2 2.2.25 2.24 0 3.27-.85 3.27-2.7 0-1.1-.43-1.75-1.5-2.24-.88-.4-.98-.48-.98-.86 0-.44.35-.66 1.03-.66.4 0 .98.05 1.5.12l.32-1.86c-.55-.1-1.38-.16-1.87-.16-2.37 0-3.2 1.24-3.18 2.72M59.77 28.2c.6 0 1.14.14 1.9.53l.34-2.15c-.3-.12-1.4-.84-2.3-.84-1.43 0-2.63.7-3.47 1.86-1.23-.4-1.74.42-2.36 1.24l-.55.13c.04-.27.08-.54.07-.8h-1.96c-.26 2.48-.73 5-1.1 7.5l-.1.54h2.12c.35-2.3.55-3.76.66-4.76l.8-.44c.12-.44.5-.6 1.24-.58-.1.53-.15 1.08-.15 1.65 0 2.64 1.44 4.28 3.72 4.28.58 0 1.1-.08 1.87-.3l.36-2.25c-.7.35-1.28.5-1.8.5-1.23 0-1.98-.9-1.98-2.4 0-2.18 1.1-3.7 2.7-3.7M77.7 26.3l-.46 2.87c-.58-.76-1.2-1.3-2.02-1.3-1.07 0-2.04.8-2.68 2-.9-.2-1.8-.5-1.8-.5.06-.67.1-1.07.1-1.2h-1.96c-.26 2.48-.73 5-1.1 7.5l-.1.54h2.12c.3-1.85.5-3.4.67-4.62.72-.65 1.08-1.22 1.8-1.18-.3.78-.5 1.68-.5 2.6 0 2.02 1.02 3.35 2.56 3.35.78 0 1.37-.27 1.95-.9l-.1.76h2l1.62-9.9h-2.1v-.02zm-2.64 8.05c-.72 0-1.08-.54-1.08-1.6 0-1.57.68-2.7 1.64-2.7.73 0 1.12.56 1.12 1.58 0 1.6-.7 2.72-1.68 2.72z"/>
        <path fill="#FFF" d="M27.45 35.62L25.33 35.62 26.55 28.02 23.85 35.62 22.39 35.62 22.19 28.06 20.93 35.62 18.93 35.62 20.6 25.72 23.66 25.72 23.74 31.85 25.8 25.72 29.1 25.72 27.45 35.62M32.67 32.04c-.23-.03-.32-.04-.48-.04-1.2 0-1.8.4-1.8 1.23 0 .5.28.82.74.82.87 0 1.5-.82 1.53-2l.01-.01zm1.54 3.58h-1.75l.04-.83c-.54.65-1.26.96-2.23.96-1.15 0-1.93-.9-1.93-2.2 0-1.96 1.37-3.1 3.72-3.1.24 0 .54.02.86.06.07-.26.08-.38.08-.52 0-.53-.37-.73-1.36-.73-1.03-.02-1.9.24-2.24.36.02-.14.3-1.8.3-1.8 1.05-.32 1.75-.44 2.53-.44 1.82 0 2.78.8 2.78 2.35 0 .42-.05.93-.16 1.6-.18 1.16-.58 3.66-.63 4.27l-.01.02zM62.62 26l-.34 2.14c-.76-.38-1.3-.54-1.9-.54-1.58 0-2.7 1.53-2.7 3.7 0 1.52.76 2.42 2 2.42.5 0 1.1-.16 1.8-.5l-.38 2.25c-.78.2-1.3.3-1.87.3-2.3 0-3.7-1.65-3.7-4.28 0-3.55 1.96-6.02 4.77-6.02.92 0 2 .4 2.32.5M66.04 32.04c-.22-.03-.32-.04-.47-.04-1.2 0-1.8.4-1.8 1.23 0 .5.3.82.75.82.86 0 1.5-.82 1.52-2v-.01zm1.54 3.58h-1.75l.04-.83c-.54.65-1.25.96-2.22.96-1.15 0-1.94-.9-1.94-2.2 0-1.96 1.38-3.1 3.73-3.1.24 0 .55.02.86.06.06-.26.08-.38.08-.52 0-.53-.37-.73-1.36-.73-1.04-.02-1.9.24-2.24.36.02-.14.3-1.8.3-1.8 1.05-.32 1.74-.44 2.53-.44 1.82 0 2.8.8 2.8 2.35 0 .42-.08.93-.18 1.6-.2 1.16-.58 3.66-.64 4.27l-.01.02zM43.62 35.5c-.58.18-1.03.26-1.52.26-1.08 0-1.67-.62-1.67-1.77-.02-.36.15-1.3.3-2.15.1-.76.9-5.5.9-5.5h2.1l-.23 1.22h1.08l-.3 1.94H43.2c-.24 1.54-.6 3.44-.6 3.7 0 .4.23.6.73.6.24 0 .43-.03.57-.08l-.28 1.78M50.08 35.44c-.72.22-1.42.32-2.16.32-2.36 0-3.6-1.23-3.6-3.6 0-2.74 1.58-4.77 3.7-4.77 1.73 0 2.84 1.13 2.84 2.9 0 .6-.07 1.17-.26 2h-4.2c-.13 1.15.62 1.64 1.84 1.64.75 0 1.43-.16 2.2-.5l-.36 2v.01zm-1.18-4.78c0-.17.22-1.44-.98-1.44-.67 0-1.15.52-1.35 1.44h2.33zM35.48 30.12c0 1.02.5 1.72 1.6 2.24.87.4 1 .53 1 .9 0 .5-.38.72-1.2.72-.65 0-1.23-.1-1.9-.32 0 0-.3 1.78-.3 1.86.48.1.9.2 2.2.24 2.24 0 3.27-.85 3.27-2.7 0-1.1-.43-1.74-1.5-2.23-.88-.4-.98-.5-.98-.88 0-.43.35-.66 1.03-.66.42 0 1 .04 1.52.12l.3-1.87c-.54-.1-1.37-.16-1.86-.16-2.37 0-3.2 1.23-3.18 2.72M78.8 35.62h-2l.1-.75c-.6.62-1.18.9-1.96.9-1.54 0-2.56-1.34-2.56-3.35 0-2.68 1.58-4.93 3.45-4.93.82 0 1.44.32 2.02 1.08l.47-2.86h2.1l-1.62 9.9v.01zm-3.13-1.86c1 0 1.68-1.12 1.68-2.7 0-1.03-.4-1.6-1.12-1.6-.96 0-1.64 1.13-1.64 2.72 0 1.05.35 1.58 1.07 1.58h.01zM69.5 27.57c-.27 2.5-.74 5.02-1.1 7.5l-.1.55h2.1c.77-4.92.95-5.88 2.14-5.76.2-1 .54-1.9.8-2.34-.88-.18-1.38.32-2.03 1.27.06-.42.16-.82.14-1.23H69.5M52.05 27.57c-.26 2.5-.74 5.02-1.1 7.5l-.1.55h2.12c.76-4.92.94-5.88 2.13-5.76.2-1 .54-1.9.8-2.34-.88-.18-1.38.32-2.03 1.27.05-.42.15-.82.13-1.23h-1.95"/>
    </g>
</svg>
