<svg xmlns="http://www.w3.org/2000/svg" width="100" height="60" viewBox="0 0 100 60">
    <g fill="none">
        <rect width="100" height="60" fill="#26337A" rx="4"/>
        <path fill="#FFFFFE" d="M41.5 39.55L44.56 20.47 49.48 20.47 46.4 39.55 41.5 39.55M64.23 20.94c-.97-.38-2.5-.8-4.4-.8-4.86 0-8.28 2.6-8.3 6.3-.04 2.74 2.43 4.27 4.3 5.18 1.9.93 2.55 1.53 2.55 2.36-.02 1.28-1.53 1.87-2.95 1.87-1.96 0-3-.3-4.63-1l-.63-.3-.68 4.26c1.13.54 3.26 1 5.46 1.03 5.17 0 8.52-2.56 8.56-6.52.02-2.16-1.3-3.8-4.13-5.17-1.73-.88-2.78-1.47-2.77-2.36 0-.8.9-1.65 2.82-1.65 1.6-.02 2.77.35 3.68.74l.44.22.66-4.14M70.78 32.78c.4-1.1 1.96-5.33 1.96-5.33-.03.05.4-1.1.65-1.82l.32 1.65s.94 4.55 1.14 5.5h-4.08.01zm6.06-12.3h-3.8c-1.18 0-2.06.35-2.57 1.6l-7.3 17.47h5.16s.84-2.35 1.03-2.86h6.3c.15.66.6 2.85.6 2.85h4.56L76.84 20.5v-.02zM37.37 20.5l-4.8 13-.53-2.65c-.9-3.05-3.7-6.35-6.8-8l4.4 16.68h5.2l7.74-19.04h-5.2"/>
        <path fill="#EC982D" d="M28.1 20.48h-7.94l-.06.4c6.17 1.57 10.25 5.38 11.94 9.97l-1.72-8.76c-.3-1.22-1.16-1.58-2.23-1.62"/>
    </g>
</svg>
