<svg xmlns="http://www.w3.org/2000/svg" xmlns:xlink="http://www.w3.org/1999/xlink" width="255" height="120" viewBox="0 0 255 120">
    <defs>
        <circle id="d307w7jt5g" cx="34.067" cy="34.067" r="34.067"/>
        <circle id="hu18e31epi" cx="34.067" cy="34.067" r="34.067"/>
        <circle id="a2nbqws2vk" cx="34.067" cy="34.067" r="34.067"/>
        <circle id="2purl0r7om" cx="34.067" cy="34.067" r="34.067"/>
        <path id="dlct8vu18a" d="M0 0v62.754c0 2.959 2.42 5.38 5.379 5.38h68.133c2.959 0 5.38-2.421 5.38-5.38V0H0zm48.41 14.344H30.48c-1.98 0-3.585-1.605-3.585-3.586 0-1.981 1.604-3.586 3.586-3.586h17.93c1.98 0 3.586 1.605 3.586 3.586 0 1.981-1.605 3.586-3.586 3.586z"/>
        <path id="uvew0f4vyc" d="M0 0v62.754c0 2.959 2.42 5.38 5.379 5.38h68.133c2.959 0 5.38-2.421 5.38-5.38V0H0zm48.41 14.344H30.48c-1.98 0-3.585-1.605-3.585-3.586 0-1.981 1.604-3.586 3.586-3.586h17.93c1.98 0 3.586 1.605 3.586 3.586 0 1.981-1.605 3.586-3.586 3.586z"/>
        <path id="4bl34p16oe" d="M0 0v62.754c0 2.959 2.42 5.38 5.379 5.38h68.133c2.959 0 5.38-2.421 5.38-5.38V0H0zm48.41 14.344H30.48c-1.98 0-3.585-1.605-3.585-3.586 0-1.981 1.604-3.586 3.586-3.586h17.93c1.98 0 3.586 1.605 3.586 3.586 0 1.981-1.605 3.586-3.586 3.586z"/>
        <path id="uln0cog6do" d="M0 0v62.754c0 2.959 2.42 5.38 5.379 5.38h68.133c2.959 0 5.38-2.421 5.38-5.38V0H0zm48.41 14.344H30.48c-1.98 0-3.585-1.605-3.585-3.586 0-1.981 1.604-3.586 3.586-3.586h17.93c1.98 0 3.586 1.605 3.586 3.586 0 1.981-1.605 3.586-3.586 3.586z"/>
        <radialGradient id="zmi3e1is6q" cx="-.283%" cy="-.432%" r="149.734%" fx="-.283%" fy="-.432%" gradientTransform="matrix(.86364 0 0 1 0 0)">
            <stop offset="0%" stop-color="#FFF" stop-opacity=".1"/>
            <stop offset="100%" stop-color="#FFF" stop-opacity="0"/>
        </radialGradient>
    </defs>
    <g fill="none" fill-rule="evenodd">
        <g>
            <g>
                <g transform="translate(-709 -370) translate(709 370) translate(.143 .359)">
                    <mask id="ljyqpr49ob" fill="#fff">
                        <use xlink:href="#dlct8vu18a"/>
                    </mask>
                    <path fill="#EEE" fill-rule="nonzero" d="M0 0L78.891 0 78.891 68.133 0 68.133z" mask="url(#ljyqpr49ob)"/>
                </g>
                <g transform="translate(-709 -370) translate(709 370) translate(.143 .359)">
                    <mask id="aujj2v15nd" fill="#fff">
                        <use xlink:href="#uvew0f4vyc"/>
                    </mask>
                    <path fill="#FFF" fill-rule="nonzero" d="M48.41 7.172H30.48c-1.98 0-3.585 1.605-3.585 3.586 0 1.981 1.604 3.586 3.586 3.586h17.93c1.98 0 3.586-1.605 3.586-3.586 0-1.981-1.605-3.586-3.586-3.586z" mask="url(#aujj2v15nd)"/>
                </g>
                <g transform="translate(-709 -370) translate(709 370) translate(.143 .359)">
                    <mask id="asdmxfjxif" fill="#fff">
                        <use xlink:href="#4bl34p16oe"/>
                    </mask>
                    <g mask="url(#asdmxfjxif)">
                        <g transform="translate(5.379 28.688)">
                            <mask id="ocfrntk2ih" fill="#fff">
                                <use xlink:href="#d307w7jt5g"/>
                            </mask>
                            <path fill="#DB4437" fill-rule="nonzero" d="M5.41 0v41.808h15.245L34.067 18.58h34.066V0H5.41zm0 0v41.808h15.245L34.067 18.58h34.066V0H5.41z" mask="url(#ocfrntk2ih)"/>
                            <mask id="hx9gj7ugbj" fill="#fff">
                                <use xlink:href="#hu18e31epi"/>
                            </mask>
                            <path fill="#0F9D58" fill-rule="nonzero" d="M0 68.133h32.426l15.052-15.052V41.812l-26.823-.004L0 6.383v61.75zm0 0h32.426l15.052-15.052V41.812l-26.823-.004L0 6.383v61.75z" mask="url(#hx9gj7ugbj)"/>
                            <g>
                                <mask id="wqbhqtvgml" fill="#fff">
                                    <use xlink:href="#a2nbqws2vk"/>
                                </mask>
                                <path fill="#FFCD40" fill-rule="nonzero" d="M34.067 18.58l13.411 23.228-15.047 26.325h35.702V18.58H34.067zm0 0l13.411 23.228-15.047 26.325h35.702V18.58H34.067z" mask="url(#wqbhqtvgml)"/>
                            </g>
                            <g>
                                <mask id="jrqw9v1unn" fill="#fff">
                                    <use xlink:href="#2purl0r7om"/>
                                </mask>
                                <g fill-rule="nonzero" mask="url(#jrqw9v1unn)">
                                    <g transform="translate(18.378 18.378)">
                                        <circle cx="15.689" cy="15.689" r="15.487" fill="#F1F1F1"/>
                                        <circle cx="15.689" cy="15.689" r="12.39" fill="#4285F4"/>
                                    </g>
                                </g>
                            </g>
                        </g>
                    </g>
                </g>
                <g transform="translate(-709 -370) translate(709 370) translate(.143 .359)">
                    <mask id="qooe14rh4p" fill="#fff">
                        <use xlink:href="#uln0cog6do"/>
                    </mask>
                    <path fill="#212121" fill-opacity=".05" fill-rule="nonzero" d="M0 0L78.891 0 78.891 34.067 0 34.067z" mask="url(#qooe14rh4p)"/>
                </g>
                <path fill="#212121" fill-opacity=".02" fill-rule="nonzero" d="M0.143 33.977L79.035 33.977 79.035 34.425 0.143 34.425z" transform="translate(-709 -370) translate(709 370)"/>
                <path fill="#FFF" fill-opacity=".05" fill-rule="nonzero" d="M0.143 34.425L79.035 34.425 79.035 34.874 0.143 34.874z" transform="translate(-709 -370) translate(709 370)"/>
                <path fill="#212121" fill-opacity=".02" fill-rule="nonzero" d="M48.554 14.702h-17.93c-1.905 0-3.46-1.488-3.572-3.361-.01.076-.014.148-.014.224 0 1.981 1.605 3.586 3.586 3.586h17.93c1.981 0 3.586-1.605 3.586-3.586 0-.076-.005-.148-.013-.224-.113 1.873-1.668 3.361-3.573 3.361zM.144.36v.448h78.89V.359H.145z" transform="translate(-709 -370) translate(709 370)"/>
                <path fill="#231F20" fill-opacity=".1" fill-rule="nonzero" d="M30.624 7.53h17.93c1.905 0 3.46 1.489 3.573 3.362.004-.076.013-.148.013-.224 0-1.981-1.605-3.586-3.586-3.586h-17.93c-1.981 0-3.586 1.605-3.586 3.586 0 .076.005.148.014.224.112-1.873 1.667-3.361 3.572-3.361zm43.032 60.514H5.522c-2.958 0-5.379-2.42-5.379-5.38v.449c0 2.958 2.421 5.379 5.38 5.379h68.133c2.958 0 5.379-2.42 5.379-5.379v-.448c0 2.958-2.42 5.379-5.38 5.379z" transform="translate(-709 -370) translate(709 370)"/>
                <path fill="url(#zmi3e1is6q)" fill-rule="nonzero" d="M.143.359v62.754c0 2.958 2.421 5.379 5.38 5.379h68.133c2.958 0 5.379-2.42 5.379-5.379V.359H.143zm48.411 14.343h-17.93c-1.981 0-3.586-1.604-3.586-3.586 0-1.98 1.605-3.585 3.586-3.585h17.93c1.981 0 3.586 1.604 3.586 3.585 0 1.982-1.605 3.586-3.586 3.586z" transform="translate(-709 -370) translate(709 370)"/>
                <g fill="#FCD117" fill-rule="nonzero">
                    <path d="M13.849.847l3.018 6.231 6.84.954c.82.115 1.393.875 1.279 1.698-.047.334-.204.642-.446.876l-4.974 4.805 1.209 6.82c.145.819-.399 1.6-1.214 1.745-.331.06-.672.005-.969-.153L12.5 20.56l-6.092 3.262c-.731.39-1.64.114-2.03-.62-.158-.297-.212-.64-.153-.971l1.209-6.82L.46 10.605C-.137 10.03-.155 9.077.42 8.48c.233-.243.54-.4.873-.447l6.84-.954L11.15.848c.362-.748 1.26-1.06 2.004-.696.303.147.547.392.694.695zM43.849.847l3.018 6.231 6.84.954c.82.115 1.393.875 1.279 1.698-.047.334-.204.642-.446.876l-4.974 4.805 1.209 6.82c.145.819-.399 1.6-1.214 1.745-.331.06-.672.005-.969-.153L42.5 20.56l-6.092 3.262c-.731.39-1.64.114-2.03-.62-.158-.297-.212-.64-.153-.971l1.209-6.82-4.974-4.806c-.597-.576-.615-1.529-.04-2.127.233-.243.54-.4.873-.447l6.84-.954L41.15.848c.362-.748 1.26-1.06 2.004-.696.303.147.547.392.694.695zM73.849.847l3.018 6.231 6.84.954c.82.115 1.393.875 1.279 1.698-.047.334-.204.642-.446.876l-4.974 4.805 1.209 6.82c.145.819-.399 1.6-1.214 1.745-.331.06-.672.005-.969-.153L72.5 20.56l-6.092 3.262c-.731.39-1.64.114-2.03-.62-.158-.297-.212-.64-.153-.971l1.209-6.82-4.974-4.806c-.597-.576-.615-1.529-.04-2.127.233-.243.54-.4.873-.447l6.84-.954L71.15.848c.362-.748 1.26-1.06 2.004-.696.303.147.547.392.694.695zM103.849.847l3.018 6.231 6.84.954c.82.115 1.393.875 1.279 1.698-.047.334-.204.642-.446.876l-4.974 4.805 1.209 6.82c.145.819-.399 1.6-1.214 1.745-.331.06-.672.005-.969-.153L102.5 20.56l-6.092 3.262c-.731.39-1.64.114-2.03-.62-.158-.297-.212-.64-.153-.971l1.209-6.82-4.974-4.806c-.597-.576-.615-1.529-.04-2.127.233-.243.54-.4.873-.447l6.84-.954 3.018-6.23c.362-.748 1.26-1.06 2.004-.696.303.147.547.392.694.695zM133.849.847l3.018 6.231 6.84.954c.82.115 1.393.875 1.279 1.698-.047.334-.204.642-.446.876l-4.974 4.805 1.209 6.82c.145.819-.399 1.6-1.214 1.745-.331.06-.672.005-.969-.153L132.5 20.56l-6.092 3.262c-.731.39-1.64.114-2.03-.62-.158-.297-.212-.64-.153-.971l1.209-6.82-4.974-4.806c-.597-.576-.615-1.529-.04-2.127.233-.243.54-.4.873-.447l6.84-.954 3.018-6.23c.362-.748 1.26-1.06 2.004-.696.303.147.547.392.694.695z" transform="translate(-709 -370) translate(709 370) translate(0 96)"/>
                </g>
                <path fill="#9CA5B4" fill-rule="nonzero" d="M164.28 118.52l1.02-.48c-.773-1.28-1.35-2.65-1.73-4.11-.38-1.46-.57-2.957-.57-4.49 0-1.533.19-3.03.57-4.49.38-1.46.957-2.83 1.73-4.11l-1.02-.48c-.827 1.347-1.473 2.757-1.94 4.23-.467 1.473-.7 3.09-.7 4.85 0 1.76.233 3.38.7 4.86.467 1.48 1.113 2.887 1.94 4.22zm9.42-3.52v-3.52h1.74v-1.32h-1.74v-7.92h-1.84l-5.46 8.16v1.08h5.74V115h1.56zm-1.56-4.84h-4l2.98-4.36c.187-.307.367-.607.54-.9.173-.293.34-.593.5-.9h.08c-.027.347-.05.757-.07 1.23-.02.473-.03.883-.03 1.23v3.7zm6.36 5.08c.32 0 .597-.117.83-.35.233-.233.35-.53.35-.89 0-.387-.117-.697-.35-.93-.233-.233-.51-.35-.83-.35-.333 0-.617.117-.85.35-.233.233-.35.543-.35.93 0 .36.117.657.35.89.233.233.517.35.85.35zm6.58 0c.64 0 1.25-.13 1.83-.39.58-.26 1.097-.673 1.55-1.24.453-.567.813-1.3 1.08-2.2.267-.9.4-1.99.4-3.27 0-1.027-.11-1.923-.33-2.69-.22-.767-.527-1.407-.92-1.92-.393-.513-.86-.897-1.4-1.15-.54-.253-1.123-.38-1.75-.38-.507 0-.99.1-1.45.3-.46.2-.86.48-1.2.84-.34.36-.61.79-.81 1.29-.2.5-.3 1.057-.3 1.67 0 1.32.327 2.307.98 2.96s1.533.98 2.64.98c.533 0 1.067-.147 1.6-.44.533-.293 1-.693 1.4-1.2-.013 1.027-.113 1.887-.3 2.58-.187.693-.433 1.257-.74 1.69-.307.433-.66.743-1.06.93-.4.187-.827.28-1.28.28-.4 0-.783-.093-1.15-.28-.367-.187-.683-.433-.95-.74l-.92 1.04c.347.387.777.707 1.29.96s1.11.38 1.79.38zm.6-6.44c-.8 0-1.393-.24-1.78-.72s-.58-1.14-.58-1.98c0-.413.057-.793.17-1.14.113-.347.27-.643.47-.89.2-.247.437-.437.71-.57.273-.133.563-.2.87-.2.813 0 1.46.32 1.94.96.48.64.773 1.587.88 2.84-.413.6-.857 1.033-1.33 1.3-.473.267-.923.4-1.35.4zm10.64 9.4l5.34-17.4h-1.2l-5.34 17.4h1.2zm14.28-2.96c.56 0 1.097-.097 1.61-.29.513-.193.97-.473 1.37-.84.4-.367.72-.817.96-1.35.24-.533.36-1.147.36-1.84 0-.693-.103-1.29-.31-1.79-.207-.5-.49-.913-.85-1.24-.36-.327-.78-.57-1.26-.73-.48-.16-.993-.24-1.54-.24-.387 0-.733.047-1.04.14-.307.093-.613.22-.92.38l.34-3.78h4.94v-1.42h-6.38l-.42 6.14.88.56c.387-.253.737-.447 1.05-.58.313-.133.69-.2 1.13-.2.827 0 1.487.247 1.98.74.493.493.74 1.18.74 2.06 0 .44-.073.84-.22 1.2-.147.36-.347.667-.6.92s-.55.45-.89.59c-.34.14-.703.21-1.09.21-.747 0-1.377-.147-1.89-.44-.513-.293-.957-.633-1.33-1.02l-.8 1.08c.213.227.457.443.73.65.273.207.58.39.92.55.34.16.72.29 1.14.39.42.1.883.15 1.39.15zm11.02-.24l1.26-4h4.78l1.24 4h1.78l-4.44-13.12h-1.88L219.92 115h1.7zm5.62-5.34h-3.94l.62-2c.24-.733.467-1.463.68-2.19.213-.727.42-1.47.62-2.23h.08c.213.76.427 1.503.64 2.23.213.727.44 1.457.68 2.19l.62 2zm9.16 5.34l3.44-9.72h-1.62l-1.84 5.52-.44 1.44c-.147.48-.293.953-.44 1.42h-.08l-.45-1.42c-.153-.48-.303-.96-.45-1.44l-1.84-5.52h-1.7l3.5 9.72h1.92zm8.6 4.48c.76 0 1.443-.09 2.05-.27.607-.18 1.123-.423 1.55-.73.427-.307.753-.663.98-1.07.227-.407.34-.837.34-1.29 0-.813-.283-1.403-.85-1.77s-1.417-.55-2.55-.55h-1.88c-.667 0-1.12-.1-1.36-.3-.24-.2-.36-.453-.36-.76 0-.267.06-.49.18-.67.12-.18.267-.343.44-.49.227.107.467.19.72.25.253.06.5.09.74.09.493 0 .957-.08 1.39-.24.433-.16.81-.383 1.13-.67.32-.287.573-.64.76-1.06.187-.42.28-.89.28-1.41 0-.413-.077-.793-.23-1.14-.153-.347-.343-.633-.57-.86h2v-1.26h-3.38c-.187-.067-.397-.123-.63-.17-.233-.047-.483-.07-.75-.07-.493 0-.963.08-1.41.24-.447.16-.837.39-1.17.69-.333.3-.597.663-.79 1.09-.193.427-.29.907-.29 1.44 0 .587.13 1.103.39 1.55.26.447.55.803.87 1.07v.08c-.253.173-.493.413-.72.72-.227.307-.34.667-.34 1.08 0 .387.083.71.25.97.167.26.37.463.61.61v.08c-.44.307-.787.647-1.04 1.02s-.38.767-.38 1.18c0 .427.097.8.29 1.12.193.32.467.593.82.82.353.227.777.397 1.27.51.493.113 1.04.17 1.64.17zm0-8.66c-.28 0-.543-.053-.79-.16-.247-.107-.467-.26-.66-.46s-.343-.443-.45-.73c-.107-.287-.16-.61-.16-.97 0-.72.2-1.277.6-1.67.4-.393.887-.59 1.46-.59s1.06.197 1.46.59c.4.393.6.95.6 1.67 0 .36-.053.683-.16.97-.107.287-.257.53-.45.73-.193.2-.413.353-.66.46-.247.107-.51.16-.79.16zm.24 7.52c-.88 0-1.57-.153-2.07-.46-.5-.307-.75-.72-.75-1.24 0-.28.08-.56.24-.84.16-.28.413-.547.76-.8.213.067.43.11.65.13.22.02.423.03.61.03h1.68c.64 0 1.127.087 1.46.26.333.173.5.487.5.94 0 .253-.073.5-.22.74-.147.24-.353.45-.62.63s-.59.327-.97.44c-.38.113-.803.17-1.27.17zm6.7.18c.827-1.333 1.473-2.74 1.94-4.22.467-1.48.7-3.1.7-4.86 0-1.76-.233-3.377-.7-4.85-.467-1.473-1.113-2.883-1.94-4.23l-1.02.48c.773 1.28 1.35 2.65 1.73 4.11.38 1.46.57 2.957.57 4.49 0 1.533-.19 3.03-.57 4.49-.38 1.46-.957 2.83-1.73 4.11l1.02.48z" transform="translate(-709 -370) translate(709 370)"/>
            </g>
        </g>
    </g>
</svg>
