<svg xmlns="http://www.w3.org/2000/svg" width="31" height="11" viewBox="0 0 31 11">
    <path fill="#9CA5B4" d="M4.145 10.156c.529 0 1.02-.104 1.475-.312.456-.208.86-.52 1.216-.936L5.783 7.751c-.208.225-.44.407-.696.546-.255.139-.56.208-.916.208-.624 0-1.122-.24-1.495-.721s-.559-1.16-.559-2.035c0-.425.054-.806.162-1.144.109-.338.258-.624.449-.858.19-.234.414-.414.67-.54.255-.125.53-.188.825-.188.303 0 .563.056.78.169.217.113.433.269.65.468l1.053-1.183c-.286-.295-.644-.553-1.072-.774-.43-.22-.908-.331-1.437-.331-.546 0-1.064.1-1.553.299-.49.2-.92.49-1.288.871s-.66.847-.877 1.398c-.217.55-.325 1.176-.325 1.878 0 .71.104 1.337.312 1.878.208.542.494.995.858 1.359s.789.64 1.274.825c.485.187 1.001.28 1.547.28zm6.578 0c.407 0 .8-.076 1.176-.228.378-.151.711-.37 1.001-.656.29-.286.523-.64.696-1.06.173-.42.26-.899.26-1.436 0-.537-.087-1.016-.26-1.436-.173-.42-.405-.774-.696-1.06-.29-.286-.623-.505-1-.656-.377-.152-.77-.228-1.177-.228-.407 0-.802.076-1.183.228-.381.151-.717.37-1.007.656-.29.286-.523.64-.696 1.06-.173.42-.26.899-.26 1.436 0 .537.087 1.016.26 1.436.173.42.405.774.696 1.06.29.286.626.505 1.007.656.381.152.776.228 1.183.228zm0-1.547c-.399 0-.695-.165-.89-.494-.195-.33-.293-.776-.293-1.339s.098-1.01.292-1.339c.196-.33.492-.494.891-.494.39 0 .685.165.884.494.2.33.299.776.299 1.339s-.1 1.01-.299 1.339c-.2.33-.494.494-.884.494zm6.201 1.547c.217 0 .405-.015.566-.045.16-.03.292-.068.396-.111l-.234-1.417c-.052.017-.093.026-.123.026h-.111c-.078 0-.154-.039-.227-.117-.074-.078-.111-.217-.111-.416V.887h-1.911v7.111c0 .33.03.626.091.89.06.265.158.49.293.676.134.187.314.332.539.436.225.104.503.156.832.156zm4.732 0c.407 0 .8-.076 1.176-.228.378-.151.711-.37 1.001-.656.29-.286.523-.64.696-1.06.173-.42.26-.899.26-1.436 0-.537-.087-1.016-.26-1.436-.173-.42-.405-.774-.696-1.06-.29-.286-.623-.505-1-.656-.377-.152-.77-.228-1.177-.228-.407 0-.802.076-1.183.228-.381.151-.717.37-1.007.656-.29.286-.523.64-.696 1.06-.173.42-.26.899-.26 1.436 0 .537.087 1.016.26 1.436.173.42.405.774.696 1.06.29.286.626.505 1.007.656.381.152.776.228 1.183.228zm0-1.547c-.399 0-.695-.165-.89-.494-.195-.33-.293-.776-.293-1.339s.098-1.01.292-1.339c.196-.33.492-.494.891-.494.39 0 .685.165.884.494.2.33.299.776.299 1.339s-.1 1.01-.299 1.339c-.2.33-.494.494-.884.494zM28.013 10V6.256c.173-.442.392-.75.656-.923.265-.173.518-.26.761-.26.139 0 .26.009.364.026.104.017.217.043.338.078l.312-1.651c-.095-.043-.202-.076-.319-.098-.116-.021-.266-.032-.448-.032-.33 0-.659.104-.988.312-.33.208-.611.533-.845.975h-.052l-.13-1.131h-1.56V10h1.911z"/>
</svg>
