<svg xmlns="http://www.w3.org/2000/svg" width="960" height="40" viewBox="0 0 960 40">
    <g fill="none" fill-rule="evenodd">
        <g fill="#9CA5B4">
            <g>
                <path fill-rule="nonzero" d="M862.924 19.96c0-4.594 3.41-8.455 7.86-8.895 2.7-.244 5.21.293 7.246 2.2 2.652 2.443 3.41 5.57 2.557 9.04-.805 3.422-3.078 5.475-6.346 6.354-2.036.538-4.072.391-6.014-.44-3.267-1.368-5.303-4.496-5.303-8.26zm9.092-6.207c-3.268-.049-5.825 2.59-5.872 6.011-.047 3.617 2.415 6.403 5.635 6.452 3.315.049 5.92-2.59 5.92-6.012.094-3.714-2.274-6.402-5.683-6.45zm-38.783-2.2c-2.7-.732-5.351-.879-7.956.44-5.682 2.835-6.677 10.753-1.847 14.81 1.61 1.368 3.552 2.003 5.635 2.1 2.463.147 4.736-.39 6.867-1.71.237-.146.379-.342.379-.684V19.91c0-.147 0-.244-.048-.39h-7.482v2.687h4.641v2.884c0 .097-.142.293-.284.342-1.563.537-3.173.782-4.783.488-2.51-.44-4.356-2.394-4.735-5.082-.38-2.59.805-5.083 2.983-6.207 1.373-.684 2.794-.929 4.262-.684 1.136.195 2.273.586 3.504.928.284-.733.616-1.564.995-2.541-.758-.245-1.421-.587-2.131-.782zm88.742 13.587c0 .098-.143.294-.237.343-1.705.586-3.457.83-5.257.39-2.415-.635-4.12-2.736-4.309-5.18-.237-2.883 1.042-5.18 3.41-6.207 1.42-.635 2.936-.733 4.451-.39.947.195 1.894.586 2.889.879.331-.83.663-1.662.947-2.493-.095-.048-.095-.097-.142-.146-3.173-1.466-6.44-1.906-9.708-.391-6.014 2.834-6.914 11.29-1.61 15.2 3.504 2.59 8.76 2.296 12.217 0 .142-.098.237-.343.237-.538V19.96c0-.147 0-.244-.047-.391h-7.482v2.688h4.64c.048 1.026.048 1.955 0 2.883zm-19.51 3.52h-3.22c-.143 0-.332-.147-.427-.294-1.041-1.466-2.036-2.932-3.078-4.398-.19-.294-.426-.391-.805-.391-.947.048-1.847 0-2.841 0v5.082h-2.936v-17.3c.095 0 .237-.05.332-.05 1.799 0 3.598-.048 5.398 0 .805.05 1.657.147 2.415.391 2.368.734 3.788 2.737 3.883 5.23.047 1.026-.047 2.004-.426 2.981-.474 1.27-1.373 2.2-2.652 2.786 1.468 2.004 2.889 3.959 4.357 5.962zM892.14 14.192v6.744c1.137-.048 2.273 0 3.362-.195 1.658-.244 2.558-1.466 2.51-3.372 0-1.809-.9-2.933-2.557-3.177-1.089-.098-2.178 0-3.315 0zm-167.397.538c0 2.54 0 5.033-.047 7.575-.048 1.955-1.09 3.372-2.7 3.714-.805.147-1.657.147-2.415.05-1.23-.148-2.083-.93-2.51-2.151-.189-.538-.33-1.124-.33-1.71-.048-3.422-.048-6.843-.048-10.264v-.636h-2.984V21.426c0 .733.048 1.417.19 2.15.473 2.689 1.941 4.448 4.546 5.132 1.231.293 2.462.293 3.74.147 2.653-.342 4.547-2.053 5.163-4.74.189-.93.284-1.858.331-2.787.047-3.176 0-6.353 0-9.53v-.489h-2.936v3.422zm29.644-3.03v9.774c0 .733.047 1.417.19 2.15.473 2.688 1.94 4.448 4.545 5.132 1.231.293 2.463.293 3.694.147 2.604-.342 4.546-1.955 5.161-4.594.237-.978.332-2.004.38-2.982.047-3.127 0-6.255 0-9.432v-.538h-2.984V18.982c0 1.125 0 2.249-.047 3.373-.095 1.906-1.09 3.323-2.747 3.665-.758.147-1.61.147-2.368.05-1.326-.148-2.178-.978-2.604-2.298-.142-.489-.284-1.026-.284-1.564-.048-3.421-.048-6.842-.048-10.263v-.587h-2.983c.095.098.095.245.095.342zm100.533 9.97v-2.689h-7.15v-4.887h7.908v-2.737h-10.845V28.66h10.845v-2.785h-7.909V21.67h7.15zM960 28.658h-2.936c-.142 0-.284-.195-.331-.293-.427-.928-.805-1.857-1.184-2.786-.095-.293-.237-.39-.569-.39h-6.487c-.284 0-.426.097-.521.341-.426 1.027-.852 2.053-1.279 3.128h-3.03c.047-.146.047-.244.094-.342 2.51-5.62 5.067-11.24 7.577-16.812.095-.244.237-.44.474-.342.19.049.379.146.473.293 2.557 5.62 5.067 11.29 7.624 16.91 0 .049 0 .147.095.293zm-8.24-11.925c-.9 2.053-1.704 4.008-2.557 5.963h5.114c-.852-2.004-1.704-3.91-2.557-5.963zm-212.005-5.376h-2.936V28.66h10.844v-2.785h-7.955c.047-4.888.047-9.726.047-14.516zM696.047 28.61h10.844v-2.785h-7.955V11.309H696c.047 5.816.047 11.583.047 17.301zm237.34 0h2.889v-17.3h-2.89v17.3zm-130.698-4.838v-9.14c1.61.099 3.173.05 4.736.294 2.13.391 3.456 2.346 3.362 4.496-.095 2.2-1.658 4.057-3.789 4.301-1.42.196-2.84.049-4.309.049zm1.563-1.417c.758 0 1.468.049 2.178 0 1.42-.098 2.557-1.32 2.652-2.786.142-1.564-.805-2.932-2.226-3.226-.852-.195-1.752-.097-2.652-.195.048 2.101.048 4.154.048 6.207zm-11.886-4.057c.047 0 .095-.049.095-.049.094.147.189.245.284.391 1.61 1.71 3.267 3.421 4.877 5.083.142.147.38.245.616.391v-9.383h-1.515v5.718c-.048.049-.095.049-.143.097l-.284-.44c-1.61-1.759-3.172-3.47-4.782-5.18-.237-.244-.427-.391-.71-.244v9.237h1.562v-5.62zm-4.83 5.572h-1.42c-.096 0-.238-.098-.332-.196-.048-.049-.048-.097-.095-.195-.237-1.173-.947-1.613-2.084-1.418-.663.098-1.326.05-1.988 0-.237 0-.427.05-.521.343 0 .048-.048.097-.048.146-.615 1.418-.615 1.418-2.178 1.32.047-.147.095-.293.142-.391 1.279-2.835 2.51-5.62 3.788-8.455.048-.147.237-.245.38-.391.094.146.236.244.33.39 1.28 2.835 2.51 5.621 3.789 8.456.095.049.142.195.237.39zm-2.984-3.128c-.426-1.075-.852-2.053-1.325-3.177-.474 1.124-.9 2.15-1.326 3.177h2.651z" transform="translate(-119 -235) translate(119 235)"/>
                <path d="M351.162 2.28l3.785 2.729c-1.345 2.325-3.296 2.87-5.188 2.43.683.371 1.322.824 1.9 1.367 1.962 1.84 2.879 4.414 2.879 7.047 0 2.634-.917 5.208-2.88 7.048-2.014 1.89-4.767 2.7-7.514 2.7-1.795 0-3.593-.346-5.187-1.114-.11.035-.214.063-.27.08l-.045.012c-.633.166-1.1.743-1.1 1.43 0 .773.695 1.407 1.512 1.476l.145.006h8.907c1.998 0 4.147.635 5.633 2.018 1.331 1.24 1.852 3.12 1.912 4.895.063 1.844-.611 3.871-1.84 5.365l-.199.231h-8.959c.198-.306.313-.671.313-1.063 0-1.033-1-1.707-2.029-1.766l-.147-.004h-4.684c-6.467 0-6.295-5.65-6.295-5.65 0-2.649 1.245-4.64 2.49-5.968.878-.937 1.764-1.588 2.489-1.996l.368-.195c-.18-.145-.357-.297-.528-.457-1.962-1.84-2.879-4.414-2.879-7.048 0-2.633.917-5.207 2.88-7.047 2.014-1.89 4.767-2.7 7.513-2.7 1.167 0 2.335.146 3.447.46l.414.124 3.157-4.41zm22.673 0l3.785 2.729c-1.345 2.325-3.296 2.87-5.187 2.43.682.371 1.321.824 1.9 1.367 1.96 1.84 2.878 4.414 2.878 7.047 0 2.634-.917 5.208-2.879 7.048-2.015 1.89-4.768 2.7-7.514 2.7-1.298 0-2.598-.181-3.82-.571-.624.123-.871.868-.871 1.368 0 .607.497 1.017 1.15 1.017h.048l10.241.075h.049c1.997 0 4.146.636 5.633 2.02 1.33 1.238 1.852 3.118 1.912 4.894.062 1.844-.612 3.871-1.84 5.365l-.2.231h-8.959c.198-.306.313-.671.313-1.063 0-1.033-1-1.707-2.029-1.766l-.147-.004h-4.684c-5.972 0-6.282-4.819-6.295-5.556v-.094c0-2.649 1.245-4.64 2.49-5.968.475-.507.952-.93 1.405-1.276-.686-.372-1.33-.827-1.91-1.372-1.963-1.84-2.88-4.414-2.88-7.048 0-2.633.917-5.207 2.88-7.047 2.015-1.89 4.768-2.7 7.514-2.7 1.167 0 2.334.146 3.446.46l.414.124 3.157-4.41zM319.36 6.17c3.367 0 6.742 1.084 9.213 3.615 2.406 2.463 3.53 5.909 3.53 9.434 0 3.525-1.124 6.97-3.53 9.434-2.47 2.53-5.846 3.614-9.213 3.614-3.368 0-6.744-1.084-9.214-3.614-2.406-2.464-3.53-5.909-3.53-9.434 0-3.526 1.124-6.97 3.53-9.434 2.47-2.53 5.846-3.615 9.214-3.615zM299.76 0v7.53h5.342v7.826h-5.342v4.366c0 .933.19 1.653.572 2.143.588.75 1.24 1.24 2.831 1.24.68 0 1.276-.102 1.746-.255l.193-.069v8.2c-1.312.735-3.312 1.286-5.703 1.286-4.123 0-5.811-1.439-7.335-3.643-.936-1.367-1.428-3.343-1.475-5.89l-.004-.406v-6.972H287V8.42c.211.027.426.043.644.043 2.85 0 5.173-2.406 5.284-5.42l.004-.227V0h6.828zm89.64 0v20.595c0 1.31.625 2.628 2.405 2.496l.195-.02v8.434c-1.107.58-2.366.729-3.12.761-4.085-.016-6.138-1.454-7.656-3.649-.941-1.373-1.355-3.518-1.393-6.094l-.003-.39V0h9.571zm-70.093 16.144c-.78 0-1.562.246-2.134.82-.558.56-.818 1.342-.818 2.142 0 .8.26 1.583.818 2.142.572.574 1.354.82 2.134.82.78 0 1.562-.246 2.134-.82.557-.56.818-1.341.818-2.142 0-.8-.261-1.582-.818-2.142-.573-.574-1.354-.82-2.134-.82zm24.901-2.667c-.604 0-1.209.19-1.652.635-.431.433-.633 1.038-.633 1.658 0 .62.202 1.225.633 1.658.443.444 1.048.635 1.652.635.604 0 1.21-.19 1.652-.635.431-.433.633-1.039.633-1.658 0-.62-.202-1.225-.633-1.658-.443-.445-1.048-.635-1.652-.635zm22.735 0c-.603 0-1.209.19-1.652.635-.43.433-.632 1.038-.632 1.658 0 .62.201 1.225.632 1.658.443.444 1.049.635 1.652.635.604 0 1.21-.19 1.652-.635.431-.433.633-1.039.633-1.658 0-.62-.202-1.225-.633-1.658-.443-.445-1.048-.635-1.652-.635z" transform="translate(-119 -235) translate(119 235)"/>
                <path fill-rule="nonzero" d="M504.7 38.716c-2.405-.866-4.704-4.754-7.213-12.195-1.028-3.075-1.289-3.464-2.822-4.118-3.258-1.414-5.592-4.4-7.491-9.562-1.063-2.898-1.446-6.097-.976-8.306.47-2.21 2.126-3.535 4.408-3.535 1.55 0 2.369.371 3.432 1.538 1.812 1.961 2.874 5.072 5.209 15.146.923 3.941.94 3.977 3.554 4.454l.679.124-.157-.866c-.087-.478-.157-1.82-.157-2.987 0-2.28.227-3.04 1.168-3.924 1.585-1.502 4.581-1.502 6.341 0 .697.601.819.601 1.603-.053 1.132-.919 2.787-1.025 4.233-.265.662.353.906.336 2.23-.194 2.02-.831 5.174-.76 6.62.141l.592.371-.087-.6c-.052-.337-.296-1.309-.557-2.192-1.185-4.03-.993-7.459.54-9.261.854-1.026 1.76-1.432 3.24-1.432 1.446 0 2.23.318 3.223 1.29 1.812 1.785 3.101 5.196 4.739 12.584.975 4.436 1.22 5.337 1.568 5.656.296.282 3.013 1.042 3.327.936.105-.035.21-.848.244-1.908.087-2.333.4-3.43 1.324-4.49 1.045-1.201 1.881-1.59 3.467-1.59 1.028-.018 1.585.088 2.665.495l1.377.512.975-.477c1.254-.636 2.509-.778 3.415-.389.366.16.697.283.731.283.018 0-.191-.636-.47-1.432-1.045-2.898-1.29-6.45-.592-8.483.366-1.06 1.359-2.245 2.247-2.651.906-.407 2.822-.442 3.728-.053 1.864.777 3.397 3.41 4.808 8.2.244.831.959 3.677 1.586 6.345.627 2.67 1.237 5.02 1.376 5.232.261.406 1.916 1.025 3.293 1.237 1.515.23 1.585-.106.696-3.429-.522-1.98-.505-3.446.053-4.224.592-.83 1.707-1.272 3.153-1.272 1.428 0 2.178.247 3.188 1.06.366.283.732.53.836.53.087 0 .262-.247.4-.548.419-1.06 2.266-1.378 3.555-.636.923.53 1.707 1.874 2.37 4.1.295.973.713 2.404.94 3.2.4 1.307 1.045 2.368 1.463 2.368.087 0 .296-.124.436-.283.54-.53.261-2.722-.767-5.938-.278-.92-.522-1.98-.522-2.333 0-.902.627-1.52 1.515-1.52 1.464 0 2.039.795 2.23 2.987.174 2.014.871 5.39 1.307 6.31.87 1.82 2.892 1.996 3.589.317.418-1.007.296-2.297-.384-4.224-1.864-5.249-1.916-6.751-.348-8.324 1.324-1.343 3.205-1.467 4.477-.3.697.636.906 1.343.453 1.52-.348.14-.68-.124-.976-.778-.156-.3-.452-.672-.662-.813-.348-.248-.418-.23-.818.176-.61.619-.854 1.732-.75 3.323.105 1.361.47 2.527 1.795 5.726.54 1.308.662 1.856.732 3.093.052 1.361.034 1.556-.349 2.104-.819 1.219-2.613 1.714-4.338 1.184-.836-.248-1.341-.513-2.264-1.202-.244-.16-.401-.089-.959.512-.54.566-.853.76-1.48.849-2.074.318-3.485-1.644-4.687-6.487-.505-2.05-.853-2.916-1.41-3.517-.593-.636-1.064-.654-1.551-.017-.349.424-.384.636-.296 1.997.07 1.308.191 1.82.975 3.764 1.028 2.563 1.115 3.358.453 3.995-.348.335-.557.388-1.307.318-1.463-.142-1.968-.92-2.369-3.57-.697-4.737-1.742-7.176-3.1-7.176-1.22 0-1.795 1.043-1.586 2.899.052.583.47 2.156.906 3.481.888 2.687.906 3.27.122 4.224-.384.442-.575.53-1.272.53-.958 0-1.429-.3-2.02-1.237-.384-.618-.54-.707-1.708-.972-.714-.159-1.568-.265-1.882-.23-.54.054-.592.107-.644.708-.105 1.307 2.177 9.384 3.38 11.93.783 1.66 1.794 2.385 2.926 2.103 1.15-.3 1.307-1.485.366-2.828-.33-.477-.662-1.131-.714-1.467-.227-1.237.644-2.227 1.951-2.227.976 0 1.585.424 2.02 1.414.82 1.873-.365 4.206-2.63 5.231-1.062.477-2.822.354-3.885-.282-2.247-1.326-4.285-4.967-6.55-11.648-1.22-3.57-1.202-3.534-2.77-4.365-2.509-1.326-4.547-3.34-5.975-5.885-.331-.584-.906-1.326-1.272-1.626-.575-.46-.819-.548-1.62-.548-.784 0-1.01.07-1.412.495-.435.441-.487.6-.487 1.679 0 1.078.087 1.378 1.115 3.57.61 1.308 1.602 3.535 2.195 4.948.592 1.414 1.271 2.934 1.498 3.411.453.937.104.866 3.885.902 1.585.018 1.916.07 2.09.318.349.583-.07.725-1.672.548-.801-.089-1.969-.124-2.596-.089l-1.167.071.523 1.52c.296.848.557 2.068.61 2.704.086 1.078.07 1.184-.314 1.467-.505.354-1.36.371-2.143.036-.923-.39-1.69-1.467-3.833-5.444l-.261-.477-2.857.106c-2.718.106-2.91.088-3.659-.283-.975-.477-1.515-1.29-1.515-2.262 0-1.008.54-1.467 1.707-1.467 1.237 0 1.812.512 1.864 1.661.035 1.114.436 1.502 1.69 1.644.54.053 1.324.053 1.76-.018l.766-.124-.592-1.608c-.314-.866-.802-2.403-1.063-3.393-.435-1.662-.47-2.033-.47-5.285v-3.517l-.523-.424c-.749-.6-1.55-.83-2.648-.742-1.359.123-1.881.671-1.864 1.98 0 .83.122 1.148.906 2.456 1.446 2.386 1.603 4.17.453 5.267-.61.583-1.986.583-2.962 0-.749-.46-2.56-.902-3.676-.902-.714 0-.749.036-.749.513 0 1.325 1.603 7.9 2.648 10.922.854 2.422 1.446 3.429 2.317 3.835.767.372 1.795.283 2.126-.194.4-.53.278-1.52-.296-2.28-1.429-1.89-.837-3.835 1.15-3.835.975 0 1.585.424 2.02 1.414 1.045 2.403-1.306 5.532-4.146 5.532-2.404 0-4.233-1.573-6.045-5.25-.697-1.396-2.422-5.726-3.17-7.917-.785-2.35-1.098-2.74-2.631-3.447-.959-.424-2.248-1.29-3.05-2.067l-.626-.601-.105 1.184c-.261 2.704-2.073 4.648-3.937 4.224-1.132-.248-1.847-1.662-1.411-2.757.296-.707.888-1.15 2.02-1.52 1.569-.495 2.126-1.503 1.725-3.093-.278-1.131-.958-1.962-2.038-2.51-1.672-.848-3.083-.53-3.885.848-.644 1.114-.836 2.457-.61 4.207.262 1.944.61 2.686 1.986 4.206 1.516 1.68 2.387 3.2 3.171 5.567.714 2.192.976 4.613.61 5.55-.592 1.45-2.753 1.007-4.477-.919-1.934-2.139-3.067-5.196-3.972-10.64-1.15-6.875-1.394-7.811-2.405-8.66-.627-.548-.836-.548-1.446-.053-.47.371-.47.424-.383 1.715.105 1.696.627 3.092 1.62 4.259.959 1.149 1.255 2.032.959 3.004-.14.478-.366.796-.715.973-.644.335-.888.335-1.916-.036-.801-.283-.871-.283-2.108.089-.714.212-1.672.424-2.16.477-1.167.159-3.206-.3-4.356-.955-1.724-.99-4.425-1.414-4.773-.76-.488.937 2.37 11.24 3.71 13.291.75 1.167 2.457 1.59 3.224.795.435-.441.313-1.396-.28-2.244-.295-.424-.626-1.096-.748-1.485-.4-1.36.522-2.456 2.038-2.421.801.018 1.411.477 1.812 1.343.435.99.418 1.803-.087 2.863-1.045 2.245-3.484 3.288-5.801 2.457zm21.672-3.818c.662-1.343-1.481-7.37-3.38-9.508-1.36-1.52-1.55-1.149-.854 1.608 1.028 3.96 3.136 8.643 3.815 8.413.122-.035.297-.265.419-.513zm31.88-.406c.035-.619-.122-1.432-.522-2.651l-.575-1.768-.662-.053c-.366-.035-.75.018-.836.106-.175.177 1.045 3.818 1.62 4.737.54.901.923.742.975-.371zm-1.515-5.373c0-.442-2.143-5.656-2.509-6.115-.4-.495-.453-.513-.714-.248-.262.266-.262.425-.087 1.308.174.884 1.428 4.666 1.672 5.073.122.194 1.638.176 1.638-.018zm-44.912-4.436c.906-.265 1.097-.69.853-1.962-.278-1.414-1.184-4.153-1.707-5.125-.958-1.803-2.735-1.927-3.954-.265-.506.671-.47 2.403.052 4.153.749 2.474 2.683 3.782 4.756 3.199zm-16.132-4.153c.14-.601.052-1.202-1.255-7.795-1.236-6.327-1.794-8.5-2.439-9.49-.54-.831-1.358-1.361-2.125-1.361-3.658 0-4.216 6.15-1.115 12.619.575 1.184 1.394 2.633 1.847 3.234 1.463 1.962 3.205 3.234 4.407 3.234.453 0 .593-.088.68-.441zm38.5 0c.14-.584.053-1.202-1.167-7.423-1.655-8.413-1.986-9.544-3.153-10.622-.662-.601-.766-.637-1.655-.566-1.132.106-1.742.513-2.282 1.573-1.864 3.694.523 11.77 4.669 15.783 1.637 1.59 3.362 2.191 3.589 1.255zm30.14-.018c.226-.937-2.562-14.722-3.328-16.49-.802-1.803-2.004-2.474-3.467-1.944-1.29.46-2.195 2.315-2.195 4.507 0 2.934 1.394 7.229 3.293 10.145 2.02 3.093 5.33 5.302 5.696 3.782z" transform="translate(-119 -235) translate(119 235) matrix(1 0 0 -1 0 40)"/>
                <path d="M32.906 31.598c1.388 0 2.553 1.233 2.553 2.7 0 1.528-1.165 2.702-2.553 2.702H5.05c-1.388 0-2.553-1.233-2.553-2.701.056-1.468 1.165-2.701 2.553-2.701h27.856zm70.64-19.555c1.11 0 2.609.176 3.83.529l-.278 1.761c-1.387-.235-2.552-.352-3.551-.352-3.108 0-4.329.998-4.329 4.228v6.46c0 3.23 1.221 4.227 4.329 4.227.999 0 2.164-.117 3.551-.352l.278 1.82c-1.166.294-2.664.529-3.83.529-4.716 0-6.325-2.349-6.325-6.225v-6.4c0-3.876 1.61-6.225 6.326-6.225zm57.379 0c1.11 0 2.663.176 3.829.529l-.222 1.761c-1.387-.235-2.553-.352-3.552-.352-3.107 0-4.328.998-4.328 4.228v6.46c0 3.23 1.22 4.227 4.328 4.227 1 0 2.165-.117 3.552-.352l.222 1.82c-1.166.294-2.664.529-3.83.529-4.716 0-6.325-2.349-6.325-6.225v-6.4c0-3.876 1.61-6.225 6.326-6.225zm-30.021 0c1.554 0 3.44.235 4.717.646l-.222 1.82c-1.332-.293-3.274-.528-4.661-.528-2.941 0-3.33.822-3.33 2.76 0 2.466.111 2.76 3.219 3.582 4.883 1.35 5.16 2.173 5.16 5.579.056 3.23-1.054 4.932-5.493 4.932-1.665 0-3.663-.352-4.884-.94l.333-1.761c1.443.47 3.219.763 4.44.763 3.107 0 3.718-.646 3.718-2.936 0-2.583-.056-2.818-3.885-3.817-4.217-1.057-4.55-2.172-4.55-5.46 0-2.996 1.332-4.64 5.438-4.64zm-69.087 0c1.554 0 3.44.235 4.717.646l-.222 1.82c-1.332-.293-3.274-.528-4.661-.528-2.886 0-3.33.822-3.33 2.76 0 2.466.111 2.76 3.219 3.582 4.883 1.35 5.16 2.173 5.16 5.579.056 3.23-1.054 4.932-5.493 4.932-1.665 0-3.662-.352-4.883-.94l.333-1.761c1.442.47 3.218.763 4.439.763 3.107 0 3.718-.646 3.718-2.936v-.338c-.013-2.268-.23-2.526-3.885-3.479-4.161-1.057-4.55-2.172-4.55-5.46 0-2.996 1.332-4.64 5.438-4.64zm12.32-4.17v4.523h5.105l-.222 1.879h-4.94v12.449c0 1.585.223 2.231 1.943 2.231.943 0 1.998-.176 2.997-.528l.388 1.703c-.943.41-2.275.704-3.496.704-2.608 0-3.773-1.057-3.773-3.875V14.275H68.92v-1.88h3.219V8.169l1.997-.294zm13.595 4.17c4.328 0 6.048 1.82 6.048 5.226v13.213h-1.72l-.11-1.41c-1.61 1.058-3.497 1.762-5.661 1.762-2.941 0-4.328-1.82-4.328-5.05 0-3.817 1.609-4.991 4.883-4.991h4.939v-3.524c0-2.466-1.221-3.288-3.94-3.288-1.665 0-3.385.235-4.939.587l-.333-1.82c1.332-.411 3.44-.705 5.16-.705zm57.489-.059c4.717 0 6.492 2.82 6.492 6.577v5.696c0 3.7-1.775 6.577-6.492 6.577-4.717 0-6.493-2.877-6.493-6.577v-5.696c0-3.7 1.776-6.577 6.493-6.577zm34.515.06c4.329 0 6.049 1.82 6.049 5.225v13.213h-1.72l-.111-1.41c-1.61 1.058-3.44 1.762-5.66 1.762-2.941 0-4.329-1.82-4.329-5.05 0-3.817 1.61-4.991 4.884-4.991h4.938v-3.524c0-2.466-1.22-3.288-3.94-3.288-1.664 0-3.385.235-4.938.587l-.333-1.82c1.332-.411 3.44-.705 5.16-.705zM192 4.702v25.779h-1.998V4.997L192 4.703zm-21.53 7.693v18.086h-1.998V12.396h1.997zm-47.557 0l-6.659 8.925 6.937 9.16h-2.553l-6.77-9.16 6.604-8.925h2.441zm-9.933-7.693v25.72h-1.997V4.997l1.997-.294zm70.752 17.969h-4.828c-2.275 0-2.996.763-2.996 3.112 0 2.114.388 3.112 2.719 3.112 1.664 0 3.607-.704 5.105-1.879v-4.345zm-38.511-8.75c-3.108 0-4.495 1.527-4.495 4.58v5.814c0 3.054 1.387 4.58 4.495 4.58 3.107 0 4.495-1.526 4.495-4.58v-5.813c0-3.054-1.388-4.58-4.495-4.58zm-53.494 8.75H86.9c-2.275 0-2.996.763-2.996 3.112 0 2.114.388 3.112 2.719 3.112 1.665 0 3.607-.704 5.105-1.879v-4.345zm-54.992-.587c1.388 0 2.553 1.233 2.553 2.7 0 1.528-1.165 2.702-2.553 2.702H8.88c-1.388 0-2.553-1.233-2.553-2.701s1.165-2.701 2.553-2.701h27.856zm-6.326-9.572c1.388 0 2.553 1.233 2.553 2.701s-1.165 2.701-2.553 2.701H2.553c-1.388 0-2.553-1.233-2.553-2.7 0-1.469 1.165-2.702 2.553-2.702h27.856zm140.06-7.516V8.99h-1.997V4.997h1.997zM34.183 3c1.387 0 2.552 1.233 2.552 2.701s-1.165 2.701-2.552 2.701H6.326c-1.387 0-2.553-1.233-2.553-2.7C3.773 4.232 4.94 3 6.326 3h27.857z" transform="translate(-119 -235) translate(119 235)"/>
            </g>
        </g>
    </g>
</svg>
