<svg xmlns="http://www.w3.org/2000/svg" width="300" height="300" viewBox="0 0 300 300">
    <g fill="none" fill-rule="evenodd">
        <path fill="#2F333D" d="M0 0H300V300H0z"/>
        <path fill="#5E656F" d="M163.743 100.009l.22-.007h.61l.525.017.566.038.61.062.267.035.437.067.777.148c1.99.428 3.844 1.219 5.488 2.298l.623.43.186.136.556.433.438.372c1.193 1.039 2.202 2.23 3.018 3.524.883 1.4 1.558 2.945 1.977 4.59l.19.839c.179.9.282 1.818.305 2.74v68.159c0 8.897-7.276 16.11-16.25 16.11-8.976 0-16.251-7.213-16.251-16.11v-7.648l-9.139 15.694c-4.487 7.705-14.426 10.345-22.198 5.896-7.772-4.448-10.435-14.301-5.948-22.007l39.246-67.394c.49-.895 1.064-1.739 1.71-2.521l.618-.704.293-.309.645-.624.424-.374.319-.266.442-.346.35-.256.402-.28c2.33-1.56 5.088-2.536 8.064-2.72l.48-.022zM203.75 100c8.975 0 16.25 7.213 16.25 16.11v67.78c0 8.897-7.275 16.11-16.25 16.11s-16.25-7.213-16.25-16.11v-67.78c0-8.897 7.275-16.11 16.25-16.11zm-76.907 2.161c7.772 4.449 10.435 14.302 5.948 22.007l-39.465 67.768c-4.487 7.705-14.426 10.345-22.198 5.896-7.773-4.448-10.436-14.301-5.948-22.007l39.465-67.767c4.487-7.706 14.425-10.346 22.198-5.897z"/>
    </g>
</svg>
