<svg xmlns="http://www.w3.org/2000/svg" width="255" height="120" viewBox="0 0 255 120">
    <g fill="none" fill-rule="evenodd">
        <g fill-rule="nonzero">
            <g>
                <g fill="#FF492C">
                    <path d="M60.64 20.595H50.222c.283-1.637 1.29-2.55 3.336-3.588l1.92-.976c3.43-1.762 5.256-3.745 5.256-6.987 0-2.046-.787-3.65-2.36-4.815-1.543-1.165-3.43-1.731-5.602-1.731-1.732 0-3.305.44-4.753 1.353-1.416.881-2.486 2.014-3.147 3.43l3.021 3.022c1.165-2.36 2.864-3.525 5.099-3.525 1.888 0 3.053.976 3.053 2.33 0 1.132-.567 2.076-2.738 3.178l-1.228.598c-2.675 1.353-4.532 2.895-5.602 4.658-1.07 1.73-1.605 3.965-1.605 6.64v.724H60.64v-4.311zm-1.393 9.291h-17.25l-8.625 14.94h17.25l8.625 14.938 8.625-14.939-8.625-14.939z" transform="translate(-414 -370) translate(414 370)"/>
                    <path d="M34.858 54.784c-10.983 0-19.919-8.935-19.919-19.918 0-10.983 8.936-19.919 19.919-19.919l6.82-14.27C39.43.23 37.147.008 34.857.008 15.606.008 0 15.614 0 34.866c0 19.251 15.606 34.858 34.858 34.858 7.675 0 14.77-2.483 20.529-6.687l-7.552-13.08c-3.489 3.005-8.023 4.827-12.977 4.827z" transform="translate(-414 -370) translate(414 370)"/>
                </g>
                <g fill="#FCD117">
                    <path d="M13.849.847l3.018 6.231 6.84.954c.82.115 1.393.875 1.279 1.698-.047.334-.204.642-.446.876l-4.974 4.805 1.209 6.82c.145.819-.399 1.6-1.214 1.745-.331.06-.672.005-.969-.153L12.5 20.56l-6.092 3.262c-.731.39-1.64.114-2.03-.62-.158-.297-.212-.64-.153-.971l1.209-6.82L.46 10.605C-.137 10.03-.155 9.077.42 8.48c.233-.243.54-.4.873-.447l6.84-.954L11.15.848c.362-.748 1.26-1.06 2.004-.696.303.147.547.392.694.695zM43.849.847l3.018 6.231 6.84.954c.82.115 1.393.875 1.279 1.698-.047.334-.204.642-.446.876l-4.974 4.805 1.209 6.82c.145.819-.399 1.6-1.214 1.745-.331.06-.672.005-.969-.153L42.5 20.56l-6.092 3.262c-.731.39-1.64.114-2.03-.62-.158-.297-.212-.64-.153-.971l1.209-6.82-4.974-4.806c-.597-.576-.615-1.529-.04-2.127.233-.243.54-.4.873-.447l6.84-.954L41.15.848c.362-.748 1.26-1.06 2.004-.696.303.147.547.392.694.695zM73.849.847l3.018 6.231 6.84.954c.82.115 1.393.875 1.279 1.698-.047.334-.204.642-.446.876l-4.974 4.805 1.209 6.82c.145.819-.399 1.6-1.214 1.745-.331.06-.672.005-.969-.153L72.5 20.56l-6.092 3.262c-.731.39-1.64.114-2.03-.62-.158-.297-.212-.64-.153-.971l1.209-6.82-4.974-4.806c-.597-.576-.615-1.529-.04-2.127.233-.243.54-.4.873-.447l6.84-.954L71.15.848c.362-.748 1.26-1.06 2.004-.696.303.147.547.392.694.695zM103.849.847l3.018 6.231 6.84.954c.82.115 1.393.875 1.279 1.698-.047.334-.204.642-.446.876l-4.974 4.805 1.209 6.82c.145.819-.399 1.6-1.214 1.745-.331.06-.672.005-.969-.153L102.5 20.56l-6.092 3.262c-.731.39-1.64.114-2.03-.62-.158-.297-.212-.64-.153-.971l1.209-6.82-4.974-4.806c-.597-.576-.615-1.529-.04-2.127.233-.243.54-.4.873-.447l6.84-.954 3.018-6.23c.362-.748 1.26-1.06 2.004-.696.303.147.547.392.694.695zM133.849.847l3.018 6.231 6.84.954c.82.115 1.393.875 1.279 1.698-.047.334-.204.642-.446.876l-4.974 4.805 1.209 6.82c.145.819-.399 1.6-1.214 1.745-.331.06-.672.005-.969-.153L132.5 20.56l-6.092 3.262c-.731.39-1.64.114-2.03-.62-.158-.297-.212-.64-.153-.971l1.209-6.82-4.974-4.806c-.597-.576-.615-1.529-.04-2.127.233-.243.54-.4.873-.447l6.84-.954 3.018-6.23c.362-.748 1.26-1.06 2.004-.696.303.147.547.392.694.695z" transform="translate(-414 -370) translate(414 370) translate(0 96)"/>
                </g>
                <path fill="#9CA5B4" d="M164.28 118.52l1.02-.48c-.773-1.28-1.35-2.65-1.73-4.11-.38-1.46-.57-2.957-.57-4.49 0-1.533.19-3.03.57-4.49.38-1.46.957-2.83 1.73-4.11l-1.02-.48c-.827 1.347-1.473 2.757-1.94 4.23-.467 1.473-.7 3.09-.7 4.85 0 1.76.233 3.38.7 4.86.467 1.48 1.113 2.887 1.94 4.22zm9.42-3.52v-3.52h1.74v-1.32h-1.74v-7.92h-1.84l-5.46 8.16v1.08h5.74V115h1.56zm-1.56-4.84h-4l2.98-4.36c.187-.307.367-.607.54-.9.173-.293.34-.593.5-.9h.08c-.027.347-.05.757-.07 1.23-.02.473-.03.883-.03 1.23v3.7zm6.36 5.08c.32 0 .597-.117.83-.35.233-.233.35-.53.35-.89 0-.387-.117-.697-.35-.93-.233-.233-.51-.35-.83-.35-.333 0-.617.117-.85.35-.233.233-.35.543-.35.93 0 .36.117.657.35.89.233.233.517.35.85.35zm7.16 0c.56 0 1.097-.097 1.61-.29.513-.193.97-.473 1.37-.84.4-.367.72-.817.96-1.35.24-.533.36-1.147.36-1.84 0-.693-.103-1.29-.31-1.79-.207-.5-.49-.913-.85-1.24-.36-.327-.78-.57-1.26-.73-.48-.16-.993-.24-1.54-.24-.387 0-.733.047-1.04.14-.307.093-.613.22-.92.38l.34-3.78h4.94v-1.42h-6.38l-.42 6.14.88.56c.387-.253.737-.447 1.05-.58.313-.133.69-.2 1.13-.2.827 0 1.487.247 1.98.74.493.493.74 1.18.74 2.06 0 .44-.073.84-.22 1.2-.147.36-.347.667-.6.92s-.55.45-.89.59c-.34.14-.703.21-1.09.21-.747 0-1.377-.147-1.89-.44-.513-.293-.957-.633-1.33-1.02l-.8 1.08c.213.227.457.443.73.65.273.207.58.39.92.55.34.16.72.29 1.14.39.42.1.883.15 1.39.15zm10.66 2.96l5.34-17.4h-1.2l-5.34 17.4h1.2zm14.28-2.96c.56 0 1.097-.097 1.61-.29.513-.193.97-.473 1.37-.84.4-.367.72-.817.96-1.35.24-.533.36-1.147.36-1.84 0-.693-.103-1.29-.31-1.79-.207-.5-.49-.913-.85-1.24-.36-.327-.78-.57-1.26-.73-.48-.16-.993-.24-1.54-.24-.387 0-.733.047-1.04.14-.307.093-.613.22-.92.38l.34-3.78h4.94v-1.42h-6.38l-.42 6.14.88.56c.387-.253.737-.447 1.05-.58.313-.133.69-.2 1.13-.2.827 0 1.487.247 1.98.74.493.493.74 1.18.74 2.06 0 .44-.073.84-.22 1.2-.147.36-.347.667-.6.92s-.55.45-.89.59c-.34.14-.703.21-1.09.21-.747 0-1.377-.147-1.89-.44-.513-.293-.957-.633-1.33-1.02l-.8 1.08c.213.227.457.443.73.65.273.207.58.39.92.55.34.16.72.29 1.14.39.42.1.883.15 1.39.15zm11.02-.24l1.26-4h4.78l1.24 4h1.78l-4.44-13.12h-1.88L219.92 115h1.7zm5.62-5.34h-3.94l.62-2c.24-.733.467-1.463.68-2.19.213-.727.42-1.47.62-2.23h.08c.213.76.427 1.503.64 2.23.213.727.44 1.457.68 2.19l.62 2zm9.16 5.34l3.44-9.72h-1.62l-1.84 5.52-.44 1.44c-.147.48-.293.953-.44 1.42h-.08l-.45-1.42c-.153-.48-.303-.96-.45-1.44l-1.84-5.52h-1.7l3.5 9.72h1.92zm8.6 4.48c.76 0 1.443-.09 2.05-.27.607-.18 1.123-.423 1.55-.73.427-.307.753-.663.98-1.07.227-.407.34-.837.34-1.29 0-.813-.283-1.403-.85-1.77s-1.417-.55-2.55-.55h-1.88c-.667 0-1.12-.1-1.36-.3-.24-.2-.36-.453-.36-.76 0-.267.06-.49.18-.67.12-.18.267-.343.44-.49.227.107.467.19.72.25.253.06.5.09.74.09.493 0 .957-.08 1.39-.24.433-.16.81-.383 1.13-.67.32-.287.573-.64.76-1.06.187-.42.28-.89.28-1.41 0-.413-.077-.793-.23-1.14-.153-.347-.343-.633-.57-.86h2v-1.26h-3.38c-.187-.067-.397-.123-.63-.17-.233-.047-.483-.07-.75-.07-.493 0-.963.08-1.41.24-.447.16-.837.39-1.17.69-.333.3-.597.663-.79 1.09-.193.427-.29.907-.29 1.44 0 .587.13 1.103.39 1.55.26.447.55.803.87 1.07v.08c-.253.173-.493.413-.72.72-.227.307-.34.667-.34 1.08 0 .387.083.71.25.97.167.26.37.463.61.61v.08c-.44.307-.787.647-1.04 1.02s-.38.767-.38 1.18c0 .427.097.8.29 1.12.193.32.467.593.82.82.353.227.777.397 1.27.51.493.113 1.04.17 1.64.17zm0-8.66c-.28 0-.543-.053-.79-.16-.247-.107-.467-.26-.66-.46s-.343-.443-.45-.73c-.107-.287-.16-.61-.16-.97 0-.72.2-1.277.6-1.67.4-.393.887-.59 1.46-.59s1.06.197 1.46.59c.4.393.6.95.6 1.67 0 .36-.053.683-.16.97-.107.287-.257.53-.45.73-.193.2-.413.353-.66.46-.247.107-.51.16-.79.16zm.24 7.52c-.88 0-1.57-.153-2.07-.46-.5-.307-.75-.72-.75-1.24 0-.28.08-.56.24-.84.16-.28.413-.547.76-.8.213.067.43.11.65.13.22.02.423.03.61.03h1.68c.64 0 1.127.087 1.46.26.333.173.5.487.5.94 0 .253-.073.5-.22.74-.147.24-.353.45-.62.63s-.59.327-.97.44c-.38.113-.803.17-1.27.17zm6.7.18c.827-1.333 1.473-2.74 1.94-4.22.467-1.48.7-3.1.7-4.86 0-1.76-.233-3.377-.7-4.85-.467-1.473-1.113-2.883-1.94-4.23l-1.02.48c.773 1.28 1.35 2.65 1.73 4.11.38 1.46.57 2.957.57 4.49 0 1.533-.19 3.03-.57 4.49-.38 1.46-.957 2.83-1.73 4.11l1.02.48z" transform="translate(-414 -370) translate(414 370)"/>
            </g>
        </g>
    </g>
</svg>
