<svg xmlns="http://www.w3.org/2000/svg" width="24" height="20" viewBox="0 0 24 20">
    <path fill="#9CA5B4" fill-rule="evenodd" d="M22 4c1.105 0 2 .895 2 2v12c0 1.054-.816 1.918-1.85 1.995L22 20H6c-1.105 0-2-.895-2-2v-5c0-.552.448-1 1-1s1 .448 1 1v5h16V6h-9c-.552 0-1-.448-1-1s.448-1 1-1h9zM11 9l4 4 2-2 2.707 2.707c.188.188.293.442.293.707V15c0 .552-.448 1-1 1H9c-.552 0-1-.448-1-1v-2.586c0-.265.105-.52.293-.707L11 9zM5 0c.552 0 1 .448 1 1v3h3c.552 0 1 .448 1 1s-.448 1-1 1H6v3c0 .552-.448 1-1 1s-1-.448-1-1V6H1c-.552 0-1-.448-1-1s.448-1 1-1h3V1c0-.552.448-1 1-1zm14 8c.552 0 1 .448 1 1s-.448 1-1 1-1-.448-1-1 .448-1 1-1z"/>
</svg>
