<svg xmlns="http://www.w3.org/2000/svg" width="15" height="20" viewBox="0 0 15 20">
    <g fill="none" fill-rule="evenodd">
        <g fill="#FFF" fill-rule="nonzero">
            <path d="M276.65 84.874c-.457-.371-.28-1.192-.755-1.597.46-2.805-.83-5.276-2.37-6.86-1.293-1.33-.877-2.623-.877-3.742 0-1.788-.734-3.675-2.958-3.675-2.377 0-3.03 1.983-3.053 3.115-.056 2.718.55 3.425-1.041 5.403-1.872 2.328-2.148 4.65-1.725 5.881-.198.23-.464.485-.963.696-1.376.6-.367 1.604-.748 2.317-.108.202-.16.414-.16.616 0 .625.497 1.166 1.4 1.085 1.217-.108 2.34.755 3.067.755.641 0 1.168-.365 1.413-.868 1.147-.282 2.564-.247 3.71.05.207.575.765.95 1.386.95 1.359 0 1.62-1.54 3.18-2.063.561-.187.844-.732.844-1.24 0-.325-.116-.634-.35-.823zm-7.622-8.72c-.266 0-.486-.216-.833-.474-.44-.327-.887-.515-.882-.858 0-.236.315-.309.724-.568.438-.277.609-.559 1.04-.559.442 0 .575.223 1.175.483.59.255 1.001.355 1.001.644 0 .296-.617.507-.965.723-.51.315-.773.608-1.26.608zm1.388-4.346c.735.117.817 1.409.466 2.044l-.296-.12c.153-.453.15-1.198-.363-1.245-.326-.03-.536.4-.58.768-.128-.053-.267-.092-.436-.106.051-.769.548-1.447 1.209-1.341zm-2.836.275c.563-.14.896.515.898 1.196l-.258.159c-.035-.286-.163-.748-.483-.65-.342.107-.286.903-.095 1.066l-.255.142c-.35-.59-.35-1.778.193-1.913zm-1.762 16.036c-1.636-.744-2.192-.575-2.505-.575-.647 0-.859-.482-.615-.939.206-.388.142-.793.091-1.12-.078-.498-.092-.66.399-.876.679-.288.98-.659 1.205-.936.632-.781 1.27.447 1.792 1.541.34.71 1.007 1.069 1.212 1.854.19.726-.591 1.501-1.58 1.051zm5.822-1.561c-1.153.56-2.623.818-3.722.249-.162-.47-.422-.773-.702-1.078.449-.118.782-.678.383-1.24-.426-.602-1.296-1.02-2.175-1.7-.822-.636-1.082-2.204.038-3.956-.546 1.552-.227 2.982.047 3.391.057-.823.122-2.198 1.247-3.846.567-.831.576-1.93.588-2.616l.517.353c.38.28.698.59 1.155.59.675 0 1.048-.388 1.568-.71.204-.126.511-.252.77-.428.433 2.063 2.228 4.545 2.329 5.958.417-.86-.119-2.928-.119-2.928.702 1.07.758 1.963.788 3.058.491.2 1.018.724 1.066 1.413l-.204-.023c-.105-.766-2.172-1.89-2.358-.45-.992.152-.631 1.722-.831 2.74-.092.467-.262.835-.385 1.223zm4.038-.035c-.82.317-1.375.99-1.755 1.407-.734.805-1.704.42-1.807-.334-.11-.805.3-1.244.476-2.145.161-.823-.019-2.088.36-2.223.245 1.46 1.721.846 2.058.448.548 0 .593.185.716.697.077.321.182.591.481.909.349.372.242.944-.529 1.241zm-6.666-10.838c-.543 0-.949-.36-1.279-.64-.169-.143.042-.407.211-.263.323.273.648.562 1.068.562.505 0 .951-.432 1.555-.67.206-.082.324.237.12.318-.587.23-1.058.693-1.675.693z" transform="translate(-262 -69)"/>
        </g>
    </g>
</svg>
