<?xml version="1.0" encoding="UTF-8"?>
<svg width="16px" height="20px" viewBox="0 0 16 20" version="1.1" xmlns="http://www.w3.org/2000/svg" xmlns:xlink="http://www.w3.org/1999/xlink">
    <!-- Generator: Sketch 63.1 (92452) - https://sketch.com -->
    <title>mac-logo</title>
    <desc>Created with Sketch.</desc>
    <g id="alpha" stroke="none" stroke-width="1" fill="none" fill-rule="evenodd">
        <g id="markup-hero-home-(landing-page)" transform="translate(-445.000000, -395.000000)" fill="#FFFFFF" fill-rule="nonzero">
            <g id="Group-5" transform="translate(330.000000, 380.000000)">
                <g id="Group" transform="translate(115.000000, 15.000000)">
                    <path d="M15.6646345,15.5860835 C15.3774186,16.2848205 15.0373814,16.9280074 14.6434016,17.5193825 C14.1064057,18.3254812 13.6667056,18.8835395 13.3278519,19.1933605 C12.8025663,19.7020337 12.2397826,19.9624696 11.6371338,19.9772917 C11.2044724,19.9772917 10.682675,19.8476968 10.0753545,19.5847031 C9.46597837,19.323021 8.90599768,19.1933605 8.39397974,19.1933605 C7.85692151,19.1933605 7.28099476,19.323021 6.66495371,19.5847031 C6.04804061,19.8476968 5.5509721,19.9847027 5.17100745,19.9982787 C4.59302516,20.0242502 4.01699875,19.7563376 3.44200634,19.1933605 C3.07501032,18.8563219 2.61597564,18.2785883 2.06606713,17.4600942 C1.47606301,16.5860499 0.990997641,15.5725076 0.610989387,14.4169748 C0.204016102,13.1688368 0,11.9602462 0,10.7901536 C0,9.44986943 0.275069491,8.29381199 0.826030693,7.32506379 C1.25903467,6.54696965 1.835086,5.9331646 2.55605958,5.48255339 C3.27703316,5.03194873 4.05604167,4.80232439 4.89494133,4.78763347 C5.35401338,4.78763347 5.95597705,4.93713326 6.70400909,5.23095169 C7.4499856,5.52576044 7.92892792,5.67526023 8.1389674,5.67526023 C8.2959364,5.67526023 8.82801149,5.50045139 9.73002266,5.15194208 C10.5830122,4.82874181 11.3029517,4.69492326 11.8927067,4.7476335 C13.4908629,4.8834327 14.6914889,5.54674747 15.4899753,6.74175552 C14.0606853,7.6535764 13.3536396,8.93070277 13.367717,10.5690684 C13.3806109,11.845211 13.820311,12.9071547 14.6844503,13.7503087 C15.076063,14.1416512 15.5133961,14.4441268 16,14.6589159 C15.8944819,14.9811324 15.7831087,15.2897729 15.6646345,15.5860835 Z M11.9994083,0.400111172 C11.9994083,1.4003268 11.6523323,2.33424964 10.9605475,3.19867262 C10.1257465,4.22629599 9.11597487,4.82010434 8.02099149,4.72640381 C8.00629122,4.6006587 7.99894108,4.47408724 7.99894108,4.34740428 C7.99894108,3.38718206 8.395973,2.35955869 9.10096315,1.51933637 C9.45295991,1.09391616 9.90063301,0.740225671 10.4434842,0.458009141 C10.9852141,0.179996576 11.4976058,0.0262928137 11.9794757,0 C11.9935531,0.133700499 11.9994083,0.267525609 11.9994083,0.400111172 Z" id="mac-logo"></path>
                </g>
            </g>
        </g>
    </g>
</svg>