<svg xmlns="http://www.w3.org/2000/svg" width="47" height="30" viewBox="0 0 47 30">
    <defs>
        <linearGradient id="prefix__a" x1="0%" x2="50%" y1="29.629%" y2="70.371%">
            <stop offset="0%" stop-color="#FCD117"/>
            <stop offset="100%" stop-color="#FF377C"/>
        </linearGradient>
    </defs>
    <path fill="url(#prefix__a)" fill-rule="evenodd" d="M90.159 15.003l.066-.002h.182l.157.005.17.011.182.019.08.01.131.02.233.045c.596.128 1.15.365 1.643.689l.186.129.056.041.166.13.131.111c.357.312.66.67.904 1.058.264.42.466.883.592 1.377l.056.251c.054.27.085.546.092.822v20.448c0 2.67-2.178 4.833-4.865 4.833-2.687 0-4.865-2.164-4.865-4.833v-2.295l-2.736 4.709c-1.343 2.311-4.318 3.103-6.645 1.769-2.327-1.335-3.124-4.29-1.78-6.602l11.748-20.219c.147-.268.319-.521.512-.756l.185-.211.088-.093.193-.187.127-.112.095-.08.133-.104.105-.077.12-.084c.697-.468 1.523-.76 2.414-.816l.144-.006zM102.135 15c2.687 0 4.865 2.164 4.865 4.833v20.334c0 2.67-2.178 4.833-4.865 4.833-2.686 0-4.864-2.164-4.864-4.833V19.833c0-2.67 2.178-4.833 4.864-4.833zm-23.023.648c2.327 1.335 3.124 4.29 1.78 6.603L69.079 42.58c-1.343 2.311-4.318 3.103-6.645 1.769-2.327-1.335-3.124-4.29-1.78-6.602l11.814-20.33c1.343-2.312 4.318-3.104 6.645-1.77z" transform="translate(-60 -15)"/>
</svg>
