<svg xmlns="http://www.w3.org/2000/svg" width="20" height="20" viewBox="0 0 20 20">
    <g fill="none" fill-rule="evenodd">
        <rect width="20" height="20" fill="#FF7A59" rx="2"/>
        <path fill="#FFF" d="M14.95 5.05c.39.39.39 1.024 0 1.414L11.414 10l3.536 3.536c.39.39.39 1.023 0 1.414-.39.39-1.024.39-1.414 0L10 11.414 6.464 14.95c-.39.39-1.023.39-1.414 0-.39-.39-.39-1.024 0-1.414L8.586 10 5.05 6.464c-.39-.39-.39-1.023 0-1.414.39-.39 1.024-.39 1.414 0L10 8.586l3.536-3.536c.39-.39 1.023-.39 1.414 0z"/>
    </g>
</svg>
