<svg xmlns="http://www.w3.org/2000/svg" width="16" height="16" viewBox="0 0 16 16">
    <g fill="none" fill-rule="evenodd">
        <path fill="#9CA5B4" d="M257 282c.552 0 1 .448 1 1s-.448 1-1 1h-3v12h12v-3c0-.552.448-1 1-1s1 .448 1 1v4c0 .513-.386.936-.883.993L267 298h-14c-.552 0-1-.448-1-1v-14c0-.552.448-1 1-1h4zm10.998 0v6.172c0 .553-.448 1-1 1s-1-.447-1-1v-2.753l-5.07 5.069c-.39.39-1.023.39-1.413 0-.39-.39-.39-1.024 0-1.414l5.071-5.073h-2.76c-.552 0-1-.448-1-1 0-.553.448-1 1-1h6.172z" transform="translate(-252 -282)"/>
    </g>
</svg>
