<svg xmlns="http://www.w3.org/2000/svg" width="16" height="16" viewBox="0 0 16 16">
    <g fill="none" fill-rule="evenodd">
        <path fill="#5E656F" fill-rule="nonzero" d="M8.684 9.199c-.026-.23 0-.436.08-.617.078-.18.186-.351.322-.513.135-.161.285-.317.447-.467.162-.15.316-.305.46-.467.145-.16.266-.336.362-.524.097-.188.145-.402.145-.64 0-.338-.066-.632-.197-.882-.132-.25-.314-.455-.546-.616-.233-.162-.51-.28-.83-.358C8.608 4.038 8.264 4 7.896 4c-.491 0-.939.096-1.342.288-.404.192-.755.446-1.053.761l1.066.853c.175-.154.357-.28.546-.38.188-.1.406-.15.651-.15.263 0 .476.061.638.184.163.123.244.304.244.542 0 .146-.046.286-.138.42-.093.135-.209.274-.35.416l-.44.444c-.153.153-.292.322-.414.507-.123.184-.217.384-.283.6-.066.214-.077.453-.033.714h1.697zM7.83 12c.333 0 .612-.102.835-.305.224-.204.336-.456.336-.756 0-.307-.112-.562-.336-.766-.223-.204-.502-.306-.835-.306-.333 0-.61.102-.829.306-.22.204-.329.46-.329.766 0 .3.11.552.329.756.22.203.496.305.829.305z"/>
        <rect width="14" height="14" x="1" y="1" stroke="#5E656F" stroke-width="2" rx="7"/>
    </g>
</svg>
