<svg xmlns="http://www.w3.org/2000/svg" width="17" height="16" viewBox="0 0 17 16">
    <path fill="#9CA5B4" fill-rule="evenodd" d="M11.189.532l.917 1.728 1.926.338c.532.093.893.59.818 1.125l-.274 1.937 1.36 1.406c.375.387.375 1.003 0 1.39l-1.36 1.406.274 1.937c.075.534-.286 1.032-.818 1.125l-1.926.338-.917 1.728c-.253.477-.838.667-1.323.43l-1.757-.86-1.758.86c-.484.237-1.07.047-1.322-.43l-.917-1.728-1.927-.338c-.531-.093-.893-.59-.818-1.125l.274-1.937-1.36-1.406c-.375-.387-.375-1.003 0-1.39l1.36-1.406-.274-1.937c-.075-.534.287-1.032.818-1.125l1.927-.338.917-1.728c.252-.477.838-.667 1.322-.43L8.11.96 9.866.1c.485-.236 1.07-.046 1.323.43zm-3.08 2.225c-2.762 0-5 2.239-5 5s2.238 5 5 5c2.761 0 5-2.239 5-5s-2.239-5-5-5z"/>
</svg>
