<svg xmlns="http://www.w3.org/2000/svg" width="24" height="11" viewBox="0 0 24 11">
    <path fill="#9CA5B4" d="M3.836 10.156c.503 0 .951-.072 1.346-.215.394-.143.727-.333 1-.571.274-.239.481-.516.625-.832.142-.317.214-.653.214-1.008 0-.598-.15-1.079-.449-1.443-.298-.364-.708-.65-1.228-.858l-1.079-.442c-.182-.078-.353-.15-.514-.214-.16-.066-.299-.135-.415-.209-.118-.073-.208-.155-.273-.247-.066-.09-.098-.201-.098-.331 0-.243.098-.431.293-.565.194-.135.457-.202.786-.202.338 0 .648.059.93.176.281.116.56.283.838.5l.962-1.209c-.364-.364-.787-.641-1.268-.832-.48-.19-.968-.286-1.462-.286-.442 0-.847.065-1.216.195-.368.13-.684.31-.948.54-.265.23-.473.498-.625.805-.151.308-.227.635-.227.982 0 .312.048.592.143.839.095.247.223.463.383.65.16.186.343.348.547.487.203.139.418.251.643.338l1.092.468.5.215c.152.064.282.134.39.207.109.074.191.159.247.254.057.095.085.208.085.338 0 .251-.097.45-.293.598-.194.147-.491.221-.89.221-.355 0-.715-.082-1.079-.247-.364-.165-.698-.377-1.001-.637L.69 8.934c.442.407.938.713 1.488.916.55.204 1.103.306 1.658.306zm5.408-7.553c.33 0 .596-.093.8-.28.203-.186.305-.426.305-.721s-.102-.533-.306-.715C9.84.705 9.573.614 9.244.614c-.32 0-.585.091-.793.273-.208.182-.312.42-.312.715s.104.535.312.721c.208.187.472.28.793.28zM10.206 10V3.552H8.295V10h1.911zm6.5 0V8.505h-2.795l2.704-3.939V3.552h-4.784v1.495h2.405l-2.704 3.926V10h5.174zm4.043.156c.39 0 .786-.065 1.19-.195.402-.13.769-.308 1.098-.533L22.4 8.271c-.468.286-.932.429-1.391.429-.433 0-.8-.11-1.099-.332-.299-.22-.491-.578-.578-1.072h3.861c.017-.078.035-.188.052-.331.017-.143.026-.302.026-.475 0-.442-.056-.851-.169-1.228-.113-.378-.284-.705-.514-.982-.23-.277-.515-.494-.857-.65-.343-.156-.744-.234-1.203-.234-.39 0-.767.078-1.131.234-.364.156-.687.38-.969.67-.281.29-.509.645-.682 1.066-.173.42-.26.89-.26 1.41 0 .537.082 1.014.247 1.43.165.416.394.77.689 1.06.295.29.641.51 1.04.662.399.152.828.228 1.287.228zm.897-4.043h-2.327c.07-.433.219-.752.449-.956.23-.203.496-.305.799-.305.39 0 .667.117.832.351.165.234.247.537.247.91z"/>
</svg>
