<svg xmlns="http://www.w3.org/2000/svg" width="295" height="25" viewBox="0 0 295 25">
    <defs>
        <linearGradient id="xleebegr3a" x1="0%" x2="50%" y1="29.672%" y2="70.328%">
            <stop offset="0%" stop-color="#FCD117"/>
            <stop offset="100%" stop-color="#FF377C"/>
        </linearGradient>
    </defs>
    <g fill="none" fill-rule="evenodd">
        <g>
            <g>
                <path fill="url(#xleebegr3a)" d="M25.159.002l.055-.001h.152l.131.004.142.01.152.015.067.009.109.016.194.037c.497.107.96.305 1.37.575l.156.107.046.034.14.108.109.094c.297.26.55.557.753.88.221.35.39.737.494 1.148l.047.21c.045.225.07.454.077.685v17.04c0 2.224-1.817 4.027-4.059 4.027-2.241 0-4.058-1.803-4.058-4.028V19.06l-2.282 3.924c-1.12 1.926-3.603 2.586-5.544 1.474-1.94-1.112-2.606-3.575-1.485-5.502l9.8-16.848c.123-.224.267-.435.428-.63l.154-.177.073-.077.162-.156.105-.093.08-.067.11-.086.088-.064.1-.07c.582-.39 1.27-.634 2.014-.68l.12-.006zM35.15 0c2.241 0 4.058 1.803 4.058 4.028v16.944c0 2.225-1.817 4.028-4.058 4.028-2.241 0-4.058-1.803-4.058-4.028V4.028C31.092 1.803 32.909 0 35.15 0zM15.944.54c1.94 1.112 2.606 3.576 1.485 5.502L7.573 22.984c-1.12 1.926-3.602 2.586-5.543 1.474C.089 23.346-.576 20.883.544 18.956L10.4 2.014C11.52.088 14.003-.572 15.944.54z" transform="translate(-25 -35) translate(25 35)"/>
                <path fill="#FFF" fill-rule="nonzero" d="M67.896 14.515c-2.193-.704-4.347-1.33-4.347-2.817v-.078c0-1.409 1.332-2.348 3.172-2.348 1.332 0 2.898.47 4.386 1.33.079.079.314.157.627.157.705 0 1.253-.548 1.253-1.252s-.47-1.017-.705-1.174c-1.684-.939-3.563-1.447-5.522-1.486-3.446.078-5.952 2.112-5.952 5.047v.078c0 3.286 3.133 4.225 5.757 4.969 2.271.626 4.19 1.251 4.19 2.895v.078c0 1.565-1.332 2.582-3.368 2.582-1.919-.039-3.799-.665-5.365-1.8-.157-.156-.47-.234-.705-.234-.705 0-1.253.547-1.253 1.252 0 .47.235.86.548 1.017 1.958 1.37 4.308 2.152 6.697 2.19 3.681 0 6.227-2.112 6.227-5.28v-.08c-.157-3.168-2.898-4.264-5.64-5.046zm15.94-4.851c.704 0 1.253-.548 1.253-1.252 0-.705-.627-1.252-1.254-1.252h-4.308V3.326c0-.783-.626-1.409-1.41-1.409-.783 0-1.41.626-1.41 1.409V7.16h-1.252c-.705 0-1.254.547-1.254 1.252 0 .704.549 1.252 1.254 1.252h1.253v10.133c0 3.208 1.723 4.968 4.934 4.968.94 0 1.802-.156 2.585-.47.47-.156.783-.586.783-1.095 0-.626-.548-1.252-1.253-1.252-.51.196-1.057.274-1.567.235-1.801 0-2.74-.86-2.74-2.66v-9.82h4.385v-.04zm10.3-2.74c-2.037 0-3.76.392-5.64 1.175-.392.156-.784.626-.784 1.173 0 .626.549 1.252 1.254 1.252.156 0 .313 0 .548-.078 1.37-.626 2.898-.939 4.386-.939 3.211 0 4.974 1.565 4.974 4.5v.39c-1.253-.39-2.82-.704-5.091-.704-4.66 0-7.402 2.113-7.402 5.673v.078c0 3.56 3.29 5.439 6.54 5.439 3.094 0 4.974-1.409 6.07-2.66v1.173c0 .782.549 1.33 1.332 1.33s1.331-.626 1.331-1.408v-9.35c.118-1.879-.548-3.678-1.801-5.087-1.645-1.37-3.642-2.073-5.718-1.956zm4.738 9.664v1.565c0 2.583-2.35 4.46-5.561 4.46-2.428 0-4.19-1.33-4.19-3.286v-.078c0-2.113 1.8-3.365 4.855-3.365 1.684 0 3.25.235 4.896.704zm19.581 3.365c-.313 0-.548.157-.783.391-1.214 1.252-2.898 1.996-4.621 2.035-3.447 0-6.149-2.817-6.149-6.534v-.078c0-3.6 2.624-6.416 5.992-6.416 2.115 0 3.446 1.017 4.582 2.034.235.235.548.313.94.313.783 0 1.331-.626 1.331-1.33 0-.47-.235-.783-.47-1.017-1.723-1.644-3.994-2.543-6.383-2.543s-4.66.938-6.344 2.66c-1.684 1.721-2.585 3.99-2.507 6.377v.078c-.039 2.387.901 4.656 2.585 6.338 1.684 1.683 3.955 2.622 6.305 2.622 2.585 0 4.621-.861 6.54-2.739.235-.235.392-.548.392-.86-.078-.783-.705-1.33-1.41-1.33zM130.4 14.75l5.482-5.4c.314-.312.549-.625.549-1.095 0-.704-.549-1.33-1.254-1.33-.391 0-.783.156-1.096.548l-9.047 9.272V1.408c0-.782-.626-1.408-1.41-1.408-.783 0-1.41.626-1.41 1.408V23.24c0 .783.627 1.409 1.41 1.409.784 0 1.41-.626 1.41-1.409v-3.208l3.368-3.364 5.796 7.316c.392.47.705.626 1.175.626.784 0 1.332-.548 1.332-1.33 0-.313-.079-.626-.392-.94l-5.913-7.59zm63.991-7.903c-2.428-.04-4.7 1.212-5.952 3.325-1.019-2.073-3.173-3.364-5.522-3.325-2.193-.04-4.19 1.056-5.326 2.895v-1.33c0-.783-.627-1.409-1.41-1.409-.784 0-1.41.626-1.41 1.409v14.75c0 .782.626 1.408 1.41 1.408.783 0 1.41-.626 1.41-1.409v-8.646c0-3.052 1.958-5.282 4.62-5.282 2.664 0 4.27 1.917 4.27 4.969v8.88c0 .783.626 1.41 1.41 1.41.783 0 1.41-.627 1.41-1.41v-8.567c0-3.052 1.8-5.086 4.581-5.086 2.742 0 4.347 1.8 4.347 5.008v8.802c0 .783.627 1.409 1.41 1.409.783 0 1.41-.626 1.41-1.409v-9.428c-.235-4.304-2.741-6.964-6.658-6.964zm29.725 0c-2.428-.04-4.7 1.212-5.992 3.325-1.018-2.073-3.172-3.364-5.483-3.325-2.193-.04-4.23 1.056-5.326 2.895v-1.33c0-.783-.627-1.409-1.41-1.409-.783 0-1.41.626-1.41 1.409v14.75c0 .782.627 1.408 1.41 1.408.783 0 1.41-.626 1.41-1.409v-8.646c0-3.052 1.958-5.282 4.621-5.282 2.663 0 4.269 1.917 4.269 4.969v8.88c0 .783.626 1.41 1.41 1.41.783 0 1.41-.627 1.41-1.41v-8.567c0-3.052 1.801-5.086 4.542-5.086 2.742 0 4.347 1.8 4.347 5.008v8.802c0 .783.627 1.409 1.41 1.409.784 0 1.41-.626 1.41-1.409v-9.428c-.196-4.304-2.624-6.964-6.618-6.964zm17.27 0c-2.271 0-4.386.939-5.952 2.66-1.567 1.76-2.39 4.03-2.35 6.377v.078c0 5.087 3.681 9.038 8.655 9.038 2.585 0 4.621-.782 6.54-2.582.313-.235.47-.548.47-.94 0-.703-.548-1.251-1.253-1.251-.314-.04-.588.078-.783.313-1.254 1.252-2.977 1.956-4.778 1.956-3.133 0-5.522-2.19-5.796-5.516h12.18c.704 0 1.33-.626 1.33-1.33-.156-4.422-3.015-8.803-8.263-8.803zm5.248 7.903h-10.691c.391-3.287 2.585-5.517 5.404-5.517 2.31-.039 4.896 1.448 5.287 5.517zm13.942-7.825c-2.193 0-4.464 1.643-5.718 4.108V8.45c0-.783-.626-1.409-1.41-1.409-.783 0-1.41.626-1.41 1.409V23.2c0 .782.627 1.408 1.41 1.408.784 0 1.41-.626 1.41-1.409v-5.79c0-4.343 2.193-7.238 5.875-7.63.705-.077 1.253-.703 1.253-1.408 0-.821-.627-1.447-1.41-1.447zm15.86 13.028c-.312 0-.547.157-.782.391-1.214 1.252-2.898 1.996-4.622 2.035-3.446 0-6.148-2.817-6.148-6.534v-.078c0-3.6 2.624-6.416 5.992-6.416 2.115 0 3.446 1.017 4.582 2.034.235.235.548.313.94.313.783 0 1.331-.626 1.331-1.33 0-.47-.235-.783-.47-1.017-1.723-1.644-3.994-2.543-6.383-2.543-2.39 0-4.66.938-6.344 2.66-1.684 1.721-2.585 3.99-2.546 6.377v.078c-.04 2.387.9 4.656 2.585 6.338 1.684 1.683 3.955 2.622 6.305 2.622 2.585 0 4.621-.861 6.54-2.739.235-.235.392-.548.392-.86-.118-.783-.666-1.33-1.371-1.33zM295 15.533c0-4.305-2.741-8.804-8.028-8.804-2.272 0-4.387.94-5.953 2.66-1.567 1.761-2.389 4.03-2.389 6.378v.117c0 5.086 3.681 9.038 8.655 9.038 2.585 0 4.621-.783 6.54-2.582.313-.235.47-.548.47-.94 0-.704-.548-1.251-1.253-1.251-.313 0-.588.117-.783.313-1.254 1.252-3.016 1.995-4.817 1.956-3.133 0-5.522-2.191-5.796-5.517h12.022c.784 0 1.332-.547 1.332-1.369zm-148.779-8.53c2.31-.078 4.582.822 6.266 2.426.157.156.392.47.392.86 0 .705-.627 1.252-1.253 1.252-.314 0-.549-.156-.783-.313-1.175-1.095-2.585-2.034-4.622-2.034-3.485 0-6.148 2.934-6.148 6.612v.156c-.04 1.37.391 2.74 1.175 3.913 1.057 1.526 2.741 2.504 4.62 2.66h1.02c1.722-.313 6.148-1.565 7.48-8.255l-.02.086.02-.125.016-.037c.06-.359.143-.706.247-1.044.144-.574.375-1.108.676-1.619.278-.497.604-.966.973-1.402l.105-.122.062-.07c1.638-1.837 4.038-2.968 6.653-2.944.1-.002.2-.002.3 0l.058.002c1.28.029 2.504.341 3.604.88.857.414 1.65.961 2.344 1.622 1.684 1.643 2.663 3.912 2.663 6.26v.156c0 2.348-.94 4.617-2.624 6.3-1.684 1.682-3.956 2.581-6.345 2.581-2.898.04-5.56-1.33-7.245-3.677.627-.783 1.097-1.643 1.488-2.66.901 2.464 3.212 4.068 5.836 4.068 3.72 0 6.305-2.973 6.305-6.573v-.078c0-.456-.043-.901-.125-1.331l-.11.001c-.588-2.973-3.172-5.125-6.227-5.164-1.83-.024-3.515.773-4.663 2.077-.707.866-1.194 1.93-1.407 3.087v-.078c-.204 1.195-.556 2.357-1.047 3.454-.273.628-.59 1.238-.95 1.827-1.724 3.13-5.013 5.087-8.577 5.087h-.157c-4.973 0-8.733-4.108-8.733-8.882v-.384c.04-2.237.933-4.382 2.506-5.954 1.645-1.682 3.878-2.62 6.227-2.62zm145.92 7.747H281.49c.392-3.287 2.585-5.517 5.404-5.517 2.272-.039 4.857 1.448 5.248 5.517z" transform="translate(-25 -35) translate(25 35)"/>
                <g fill="#FFF" transform="translate(-25 -35) translate(25 35) translate(44.422 7.292)">
                    <rect width="1.043" height="10.417" x="4.692" rx=".521"/>
                    <rect width="10.428" height="1.042" y="4.688" rx=".521"/>
                </g>
            </g>
        </g>
    </g>
</svg>
