<svg xmlns="http://www.w3.org/2000/svg" width="17" height="16" viewBox="0 0 17 16">
    <path fill="#9CA5B4" d="M9.417.565l2.052 4.154 4.651.636c.558.076.948.583.87 1.131-.031.223-.138.429-.303.585l-3.382 3.203.822 4.547c.099.546-.271 1.066-.826 1.163-.225.04-.457.004-.658-.102L8.5 13.708l-4.143 2.174c-.497.26-1.115.076-1.38-.413-.107-.198-.144-.427-.104-.648l.822-4.547L.312 7.071c-.405-.384-.417-1.02-.027-1.418.159-.162.368-.267.594-.298l4.651-.636L7.583.565C7.829.067 8.439-.141 8.946.1c.205.098.371.262.471.464zm.694 5.993L8.5 3.298l-1.61 3.26-3.653.5L5.894 9.57l-.646 3.57L8.5 11.433l3.251 1.706-.645-3.569 2.655-2.513-3.65-.5z"/>
</svg>
