<svg xmlns="http://www.w3.org/2000/svg" width="18" height="16" viewBox="0 0 18 16">
    <defs>
        <linearGradient id="mm197omwma" x1="0%" x2="50%" y1="5.709%" y2="94.291%">
            <stop offset="0%" stop-color="#FCD117"/>
            <stop offset="100%" stop-color="#FF377C"/>
        </linearGradient>
    </defs>
    <path fill="url(#mm197omwma)" d="M280.917 12.565l2.052 4.154 4.651.636c.558.076.948.583.87 1.131-.031.223-.138.429-.303.585l-3.382 3.203.822 4.547c.099.546-.271 1.066-.826 1.163-.225.04-.457.004-.658-.102L280 25.708l-4.143 2.174c-.497.26-1.115.076-1.38-.413-.107-.198-.144-.427-.104-.648l.822-4.547-3.383-3.203c-.405-.384-.417-1.02-.027-1.418.159-.162.368-.267.594-.298l4.651-.636 2.053-4.154c.246-.498.856-.706 1.363-.464.205.098.371.262.471.464z" transform="translate(-271 -12)"/>
</svg>
