<svg xmlns="http://www.w3.org/2000/svg" width="16" height="16" viewBox="0 0 16 16">
    <g fill="none" fill-rule="evenodd">
        <g fill="#9CA5B4">
            <path d="M17 25c1.105 0 2 .895 2 2v1h-7v-1c0-1.105.895-2 2-2h3zm9 0c1.105 0 2 .895 2 2v1h-7v-1c0-1.105.895-2 2-2h3zm-10.5-4c.828 0 1.5.672 1.5 1.5s-.672 1.5-1.5 1.5-1.5-.672-1.5-1.5.672-1.5 1.5-1.5zm9 0c.828 0 1.5.672 1.5 1.5s-.672 1.5-1.5 1.5-1.5-.672-1.5-1.5.672-1.5 1.5-1.5zM17 16c1.105 0 2 .895 2 2v1h-7v-1c0-1.105.895-2 2-2h3zm9 0c1.105 0 2 .895 2 2v1h-7v-1c0-1.105.895-2 2-2h3zm-10.5-4c.828 0 1.5.672 1.5 1.5s-.672 1.5-1.5 1.5-1.5-.672-1.5-1.5.672-1.5 1.5-1.5zm9 0c.828 0 1.5.672 1.5 1.5s-.672 1.5-1.5 1.5-1.5-.672-1.5-1.5.672-1.5 1.5-1.5z" transform="translate(-12 -12)"/>
        </g>
    </g>
</svg>
