<svg xmlns="http://www.w3.org/2000/svg" width="17" height="12" viewBox="0 0 17 12">
    <path fill="#9CA5B4" d="M2.448 11l.64-2.48h3.2l.64 2.48h2.496L6.144.568H3.328L.048 11h2.4zm3.36-4.32h-2.24l.256-.96c.15-.523.293-1.075.432-1.656s.267-1.15.384-1.704h.064c.15.544.29 1.11.424 1.696.133.587.275 1.141.424 1.664l.256.96zm6.592 4.512c.448 0 .861-.093 1.24-.28.379-.187.739-.43 1.08-.728h.048l.176.816h1.92V6.456c0-1.227-.27-2.13-.808-2.712-.539-.581-1.32-.872-2.344-.872-.63 0-1.224.096-1.784.288-.56.192-1.096.443-1.608.752l.832 1.552c.384-.224.747-.4 1.088-.528.341-.128.683-.192 1.024-.192.427 0 .736.104.928.312.192.208.299.488.32.84-1.568.16-2.704.475-3.408.944-.704.47-1.056 1.12-1.056 1.952 0 .341.056.656.168.944.112.288.27.541.472.76.203.219.448.39.736.512.288.123.613.184.976.184zm.8-1.824c-.277 0-.499-.061-.664-.184-.165-.123-.248-.312-.248-.568 0-.31.16-.576.48-.8.32-.224.901-.395 1.744-.512v1.392c-.213.213-.416.379-.608.496-.192.117-.427.176-.704.176z"/>
</svg>
