<svg xmlns="http://www.w3.org/2000/svg" width="26" height="11" viewBox="0 0 26 11">
    <path fill="#9CA5B4" d="M4.881 10V3.136h2.327V1.524H.63v1.612h2.34V10h1.911zm6.267.156c.407 0 .799-.076 1.176-.228.377-.151.71-.37 1.001-.656.29-.286.522-.64.695-1.06.174-.42.26-.899.26-1.436 0-.537-.086-1.016-.26-1.436-.173-.42-.405-.774-.695-1.06-.29-.286-.624-.505-1.001-.656-.377-.152-.77-.228-1.176-.228-.408 0-.802.076-1.183.228-.382.151-.718.37-1.008.656-.29.286-.522.64-.696 1.06-.173.42-.26.899-.26 1.436 0 .537.087 1.016.26 1.436.174.42.406.774.696 1.06.29.286.626.505 1.008.656.38.152.775.228 1.183.228zm0-1.547c-.4 0-.696-.165-.891-.494-.195-.33-.292-.776-.292-1.339s.097-1.01.292-1.339c.195-.33.492-.494.89-.494.39 0 .685.165.885.494.199.33.299.776.299 1.339s-.1 1.01-.3 1.339c-.199.33-.493.494-.883.494zm7.214 1.547c.408 0 .8-.076 1.177-.228.377-.151.71-.37 1.001-.656.29-.286.522-.64.696-1.06.173-.42.26-.899.26-1.436 0-.537-.087-1.016-.26-1.436-.174-.42-.406-.774-.696-1.06-.29-.286-.624-.505-1.001-.656-.377-.152-.77-.228-1.177-.228-.407 0-.801.076-1.183.228-.38.151-.717.37-1.007.656-.29.286-.522.64-.696 1.06-.173.42-.26.899-.26 1.436 0 .537.087 1.016.26 1.436.174.42.406.774.696 1.06.29.286.626.505 1.007.656.382.152.776.228 1.183.228zm0-1.547c-.398 0-.695-.165-.89-.494-.195-.33-.293-.776-.293-1.339s.098-1.01.293-1.339c.195-.33.492-.494.89-.494.39 0 .685.165.884.494.2.33.3.776.3 1.339s-.1 1.01-.3 1.339c-.199.33-.493.494-.884.494zm6.201 1.547c.217 0 .406-.015.566-.045.16-.03.293-.068.396-.111l-.233-1.417c-.052.017-.094.026-.124.026h-.11c-.078 0-.154-.039-.228-.117-.074-.078-.11-.217-.11-.416V.887h-1.912v7.111c0 .33.03.626.091.89.061.265.159.49.293.676.134.187.314.332.54.436.225.104.502.156.831.156z"/>
</svg>
